<svg id="Layer_1" data-name="Layer 1" xmlns="http://www.w3.org/2000/svg" viewBox="0 0 3280.19 2780.29"><defs><style>.cls-1{fill:#ffda22;}.cls-2{opacity:0.35;}.cls-3{fill:#371a45;}.cls-4{opacity:0.4;}.cls-5{fill:#fff;}.cls-6{opacity:0.3;}.cls-7{fill:#22a7f0;}.cls-8{opacity:0.8;}.cls-9{fill:#293856;}.cls-10{fill:#21102b;}.cls-11{opacity:0.5;}</style></defs><title>start-cosmic</title><path class="cls-1" d="M3434.44,1656.31c-260,181.77-618.12,118.36-799.92-141.66A573.24,573.24,0,0,1,2561.88,1372a565.44,565.44,0,0,1-18.23-65.39c-45.54-211.67,31.53-439.07,212.76-577.39,6.45-5,13-9.8,19.78-14.5a575.12,575.12,0,0,1,284.84-102c5-.39,9.95-.68,14.94-.94a575.09,575.09,0,0,1,581.1,413.43C3723.87,1255,3641.48,1511.57,3434.44,1656.31Z" transform="translate(-422.57 -589.95)"/><g class="cls-2"><path class="cls-3" d="M2532.31,1229.22q3.18,27.83,9.07,55.43a565.44,565.44,0,0,0,18.23,65.39,573.35,573.35,0,0,0,72.64,142.61c181.79,260,539.9,323.44,799.92,141.67,174.77-122.2,260.68-324,243-522.25-1.93-17.81-4.62-35.58-8.24-53.24.67,182-84.91,361.21-245.32,473.36-260,181.76-618.13,118.35-799.92-141.67a573.35,573.35,0,0,1-72.64-142.61,566,566,0,0,1-18.23-65.39q-.57-2.68-1.12-5.37a574.47,574.47,0,0,0,4.38,68.4Q2533.1,1237.39,2532.31,1229.22Z" transform="translate(-422.57 -589.95)"/></g><g class="cls-4"><path class="cls-5" d="M3570.6,848.81a573.94,573.94,0,0,0-494.63-237c-5,.26-10,.55-14.94.94a575.12,575.12,0,0,0-284.84,102c-6.74,4.7-13.33,9.51-19.78,14.5-181.23,138.32-258.3,365.72-212.76,577.39a565.44,565.44,0,0,0,18.23,65.39c1.67,4.89,3.48,9.75,5.29,14.61-60.38-230.28,24.4-483.85,230.95-628.26a582.15,582.15,0,0,1,60.3-37,42.11,42.11,0,0,0,1.37,4.58c11.7,32.13,61.62,43.47,111.53,25.3s80.88-58.94,69.18-91.08l0-.1C3233.55,629.15,3435.3,696.54,3570.6,848.81Z" transform="translate(-422.57 -589.95)"/></g><path class="cls-3" d="M3108.83,1779a593.61,593.61,0,0,1-487.77-254,594.63,594.63,0,1,1,487.77,254Zm-1.77-1149.1c-112.59,0-222.29,34.32-316.49,100.18C2669.2,814.93,2588.13,942,2562.31,1087.79s6.68,293,91.53,414.34,211.89,202.44,357.71,228.27a561.35,561.35,0,0,0,97.86,8.64c112.59,0,222.29-34.32,316.49-100.18,121.37-84.85,202.44-211.89,228.26-357.71s-6.68-293-91.53-414.34-211.89-202.44-357.71-228.27A561.35,561.35,0,0,0,3107.06,629.9Z" transform="translate(-422.57 -589.95)"/><g class="cls-2"><ellipse class="cls-3" cx="2938.65" cy="847.71" rx="127.48" ry="79.86" transform="translate(-539.65 128) rotate(-13.66)"/></g><ellipse class="cls-1" cx="2943.39" cy="872.61" rx="111.48" ry="50.13" transform="translate(-545.39 129.83) rotate(-13.66)"/><path class="cls-3" d="M3039.14,777.2a72.35,72.35,0,0,1,14.71,10.69,66.85,66.85,0,0,1,6.24,7,63.85,63.85,0,0,1,5.19,8,57.86,57.86,0,0,1,3.81,8.85l.72,2.31c.22.78.39,1.57.58,2.36l.56,2.37c.15.79.26,1.6.39,2.4a62.22,62.22,0,0,1-.17,19.36,76.93,76.93,0,0,1-5.49,18.26,100.47,100.47,0,0,1-9.19,16.31,120.79,120.79,0,0,1-11.68,14.23c-2.08,2.24-4.28,4.34-6.49,6.43l-3.41,3c-1.13,1-2.32,1.94-3.48,2.91a156.27,156.27,0,0,1-14.62,10.65c-2.5,1.67-5.11,3.16-7.67,4.72s-5.22,3-7.9,4.3a202.68,202.68,0,0,1-33.18,13.51c-2.85.88-5.73,1.65-8.61,2.44s-5.78,1.49-8.71,2.07c-5.83,1.33-11.75,2.27-17.69,3.06a186.42,186.42,0,0,1-36.08,1.09,148.42,148.42,0,0,1-36.06-6.84c-11.78-3.95-23.39-9.58-33.49-18.06a72.41,72.41,0,0,1-13.48-14.78,62.72,62.72,0,0,1-8.57-18.58,61.06,61.06,0,0,1-2-20.26,69.89,69.89,0,0,1,4.13-19.34,87.26,87.26,0,0,1,8.55-17c.87-1.29,1.7-2.62,2.61-3.87l2.77-3.73,2.94-3.55c1-1.18,2-2.28,3.05-3.42a132.66,132.66,0,0,1,13.19-12.39,165.61,165.61,0,0,1,14.48-10.43c5-3.13,10.13-6.05,15.39-8.65a174.09,174.09,0,0,1,16.07-7,185.46,185.46,0,0,1,33.42-9.25,3.66,3.66,0,0,1,1.9,7l-.09,0c-5.23,1.89-10.45,3.72-15.51,6-2.55,1-5.05,2.21-7.56,3.33-1.24.58-2.47,1.2-3.7,1.8s-2.47,1.19-3.67,1.85l-3.63,1.92-3.56,2-1.78,1-1.75,1.06c-1.16.71-2.33,1.4-3.48,2.12-4.57,2.94-9,6-13.29,9.28s-8.31,6.78-12.14,10.45a130.36,130.36,0,0,0-10.61,11.64c-6.49,8.1-11.61,17-14.36,26.26a49.15,49.15,0,0,0-2.2,13.77,41.84,41.84,0,0,0,2,13.18c2.68,8.41,8.24,15.76,15.65,21.58s16.5,10.13,26.14,13.15a132.25,132.25,0,0,0,30.34,5.33,176.43,176.43,0,0,0,31.47-1,202.9,202.9,0,0,0,31.15-6.35c2.54-.76,5.1-1.48,7.61-2.34s5-1.73,7.52-2.63c4.95-1.88,9.85-3.92,14.62-6.2,2.42-1.09,4.74-2.34,7.11-3.53s4.65-2.5,6.89-3.88a153.13,153.13,0,0,0,13.16-8.66,129.75,129.75,0,0,0,12-10,104.32,104.32,0,0,0,10.51-11.27,79.79,79.79,0,0,0,8.36-12.57,59.62,59.62,0,0,0,5.43-13.65,47.09,47.09,0,0,0,1.52-14.3l-.09-1.8-.23-1.79c-.08-.59-.13-1.2-.24-1.79l-.35-1.78a51.8,51.8,0,0,0-2.09-7,52.58,52.58,0,0,0-3.25-6.67,56.45,56.45,0,0,0-4.34-6.22,61.29,61.29,0,0,0-5.22-5.75c-1.88-1.82-3.9-3.53-6-5.21l-.08-.06a4.55,4.55,0,0,1,5-7.53Z" transform="translate(-422.57 -589.95)"/><path class="cls-3" d="M2979.83,969.29a93,93,0,0,1-13.29,8.93,115.21,115.21,0,0,1-14.63,6.83,128.33,128.33,0,0,1-31.5,7.59,149.89,149.89,0,0,1-32.46.14,159.87,159.87,0,0,1-31.77-6.72,151.49,151.49,0,0,1-29.79-13.16c-2.36-1.37-4.69-2.8-7-4.3s-4.51-3.11-6.7-4.76A119.4,119.4,0,0,1,2800.25,953a92.72,92.72,0,0,1-19.13-27.11c-4.61-10.15-6.9-21.51-5.72-32.35a3.7,3.7,0,0,1,7.28-.46l0,.07c4.46,18.84,16.46,33.47,31.06,44.69s31.83,19.38,49.73,24.88a190.93,190.93,0,0,0,55.56,8.26,171.4,171.4,0,0,0,28.26-2.39c4.7-.79,9.38-1.81,14.06-3s9.33-2.65,14-4.22l.07,0a4.6,4.6,0,0,1,4.36,7.93Z" transform="translate(-422.57 -589.95)"/><g class="cls-2"><ellipse class="cls-3" cx="2725.35" cy="1270.84" rx="80.01" ry="127.75" transform="translate(-576.03 -188.05) rotate(-8.2)"/></g><ellipse class="cls-1" cx="2750.43" cy="1268.25" rx="50.13" ry="111.48" transform="translate(-575.4 -184.5) rotate(-8.2)"/><path class="cls-3" d="M2664.56,1163.85a72,72,0,0,1,12-13.62,61.37,61.37,0,0,1,16-10,57.11,57.11,0,0,1,9.18-3l2.37-.5c.79-.14,1.6-.23,2.4-.35l2.41-.33c.81-.07,1.62-.11,2.43-.16a62.34,62.34,0,0,1,19.25,2,77.18,77.18,0,0,1,17.66,7.21,100.51,100.51,0,0,1,15.36,10.7,120.38,120.38,0,0,1,13.06,13c2,2.28,3.91,4.68,5.78,7.07l2.68,3.68c.91,1.22,1.71,2.49,2.57,3.74a156.73,156.73,0,0,1,9.21,15.57c1.43,2.65,2.66,5.38,4,8.09s2.46,5.47,3.53,8.26a202.46,202.46,0,0,1,10.29,34.32c.61,2.92,1.1,5.86,1.62,8.8s.93,5.9,1.23,8.87c.77,5.93,1.14,11.91,1.37,17.9a187.14,187.14,0,0,1-2.36,36,148.42,148.42,0,0,1-10.23,35.25c-5.06,11.35-11.77,22.37-21.16,31.62a72.65,72.65,0,0,1-16,12,63.15,63.15,0,0,1-19.31,6.76,61.31,61.31,0,0,1-20.36.11,70.26,70.26,0,0,1-18.86-6,86.86,86.86,0,0,1-16.14-10.13c-1.2-1-2.44-1.94-3.61-3l-3.44-3.11-3.26-3.26c-1.08-1.09-2.07-2.24-3.11-3.36a132.26,132.26,0,0,1-11.08-14.31,164.49,164.49,0,0,1-9-15.4c-2.64-5.3-5-10.67-7.15-16.15a174,174,0,0,1-5.42-16.66,186.77,186.77,0,0,1-6-34.15,3.66,3.66,0,0,1,7.2-1.22l0,.09c1.39,5.39,2.71,10.76,4.45,16,.79,2.64,1.72,5.23,2.59,7.84.46,1.29,1,2.57,1.44,3.86s1,2.57,1.5,3.83l1.57,3.79,1.67,3.74.83,1.87.89,1.84c.6,1.22,1.17,2.45,1.78,3.66,2.49,4.83,5.12,9.56,8,14.12s6,8.91,9.25,13.07a129.47,129.47,0,0,0,10.57,11.67c7.45,7.23,15.87,13.18,24.78,16.79a49,49,0,0,0,13.5,3.51,42,42,0,0,0,13.31-.7c8.62-1.88,16.46-6.71,23-13.53s11.65-15.47,15.57-24.77a132.29,132.29,0,0,0,8.19-29.7,175,175,0,0,0,2-31.42,201.59,201.59,0,0,0-3.35-31.61c-.52-2.6-1-5.22-1.61-7.8s-1.24-5.16-1.9-7.73c-1.41-5.11-3-10.18-4.79-15.15-.85-2.51-1.88-4.94-2.83-7.41s-2-4.87-3.21-7.23a152.61,152.61,0,0,0-7.37-13.92,129.66,129.66,0,0,0-8.77-12.92,104.4,104.4,0,0,0-10.22-11.54,81.27,81.27,0,0,0-11.71-9.52,59.91,59.91,0,0,0-13.08-6.7,47.2,47.2,0,0,0-14.09-2.87l-1.8-.09-1.8.06c-.6,0-1.21,0-1.81.07l-1.81.18a51.08,51.08,0,0,0-7.15,1.42,52.16,52.16,0,0,0-7,2.6,54.61,54.61,0,0,0-6.6,3.73,61.08,61.08,0,0,0-6.23,4.65c-2,1.7-3.88,3.55-5.75,5.46l-.07.07a4.55,4.55,0,0,1-7-5.74Z" transform="translate(-422.57 -589.95)"/><path class="cls-3" d="M2850.14,1241.16a92.71,92.71,0,0,1,7.62,14.08,114,114,0,0,1,5.41,15.21,128.54,128.54,0,0,1,4.56,32.08,149.39,149.39,0,0,1-2.94,32.33,159.58,159.58,0,0,1-9.72,31,151.34,151.34,0,0,1-15.93,28.41c-1.59,2.22-3.23,4.4-4.94,6.53s-3.52,4.2-5.38,6.22a121.28,121.28,0,0,1-11.94,11.38,92.89,92.89,0,0,1-28.81,16.47c-10.54,3.62-22.07,4.82-32.75,2.62a3.71,3.71,0,0,1,.23-7.3h.08c19.18-2.65,34.88-13.2,47.44-26.66s22.32-29.85,29.49-47.15a190.56,190.56,0,0,0,13.51-54.52,169.87,169.87,0,0,0,.3-28.36c-.33-4.75-.9-9.51-1.66-14.28s-1.75-9.54-2.87-14.37l0-.07a4.61,4.61,0,0,1,8.32-3.59Z" transform="translate(-422.57 -589.95)"/><g class="cls-2"><ellipse class="cls-3" cx="3162.7" cy="1162.16" rx="107.58" ry="91.76" transform="matrix(0.97, -0.26, 0.26, 0.97, -614.69, 258.38)"/></g><ellipse class="cls-1" cx="3149.86" cy="1198.97" rx="65.22" ry="80.83" transform="matrix(0.03, -1, 1, 0.03, 1429.21, 3719.36)"/><path class="cls-3" d="M3188.93,1249.72l3.8-1.58c1.26-.52,2.54-1,3.78-1.56l3.69-1.76c1.22-.59,2.46-1.12,3.64-1.81l3.57-1.92,1.78-1,1.72-1.06c2.3-1.42,4.61-2.78,6.77-4.38l3.28-2.3,3.16-2.46,1.57-1.23a18.65,18.65,0,0,0,1.54-1.28l3-2.64,1.48-1.31,1.41-1.4,2.82-2.77c.93-.93,1.77-2,2.66-2.92s1.78-1.93,2.59-3l2.45-3.06c.4-.51.82-1,1.21-1.53l1.12-1.6,2.24-3.19c.71-1.08,1.35-2.21,2-3.31,1.42-2.16,2.55-4.47,3.77-6.73.64-1.11,1.09-2.31,1.63-3.47s1.08-2.32,1.54-3.5l1.32-3.58c.21-.59.46-1.18.65-1.78l.53-1.82,1.08-3.62c.28-1.23.62-2.44.85-3.67a80.56,80.56,0,0,0,1.68-14.78,72.85,72.85,0,0,0-5.37-28.65,73.84,73.84,0,0,0-16-24.24,86.55,86.55,0,0,0-24.06-17.17,93.58,93.58,0,0,0-14-5.56l-1.81-.57-1.83-.49c-1.23-.31-2.43-.69-3.68-.94l-3.7-.84-3.75-.67c-40.09-6.61-84.72,9.08-110.32,41.4a98.82,98.82,0,0,0-8.59,12.72,88.77,88.77,0,0,0-6.34,13.94,79.06,79.06,0,0,0-4.59,30.13,81.78,81.78,0,0,0,2.21,15.33,79.56,79.56,0,0,0,13.45,28.39,94.57,94.57,0,0,0,10.7,12.16l0,0a3.67,3.67,0,0,1-4.63,5.66,92,92,0,0,1-13.52-11.54,88.54,88.54,0,0,1-11.09-14.24,87,87,0,0,1-12.38-34.33,91.71,91.71,0,0,1,2.56-36.91,106.71,106.71,0,0,1,15.9-33.44c14.32-20.23,34.79-35.73,57.66-44.84a141.48,141.48,0,0,1,35.7-9.18,141.56,141.56,0,0,1,18.54-1,143,143,0,0,1,18.57,1.6,119.63,119.63,0,0,1,18.23,4.26,117.51,117.51,0,0,1,17.49,7,111.12,111.12,0,0,1,16.23,9.83,101.31,101.31,0,0,1,14.37,12.64,99.15,99.15,0,0,1,11.77,15.25,88.87,88.87,0,0,1,8.48,17.36,92.2,92.2,0,0,1,5.44,37.87,94.58,94.58,0,0,1-3.18,18.76c-.39,1.53-.89,3-1.35,4.52l-1.6,4.43-.81,2.21c-.29.72-.62,1.43-.93,2.15l-1.92,4.27a114.33,114.33,0,0,1-21.41,29.89,121.46,121.46,0,0,1-29,21.37c-2.6,1.47-5.34,2.67-8,3.92l-2,.92-2.08.82-4.14,1.61c-1.37.56-2.8.94-4.21,1.4l-4.22,1.31c-2.84.79-5.71,1.44-8.56,2.12a4.54,4.54,0,0,1-2.8-8.6Z" transform="translate(-422.57 -589.95)"/><path class="cls-3" d="M3019.35,1147.24a131.74,131.74,0,0,0-2.28,15.81,116.34,116.34,0,0,0,5.27,46.28c.74,2.46,1.76,4.83,2.65,7.23.42,1.21,1,2.35,1.53,3.52l1.58,3.49a113.4,113.4,0,0,0,7.65,13.23c.73,1,1.4,2.12,2.15,3.15l2.29,3,1.14,1.52,1.23,1.46,2.45,2.91c.82,1,1.74,1.86,2.6,2.79s1.7,1.88,2.63,2.75l2.74,2.64c.46.44.9.9,1.38,1.32l1.44,1.25,2.88,2.49c1,.81,2,1.57,3,2.36,2,1.61,4.09,3,6.15,4.51,1,.76,2.11,1.44,3.18,2.12l3.22,2.06,3.32,1.9c1.12.62,2.19,1.31,3.35,1.86a149.12,149.12,0,0,0,28.42,11.45,156.7,156.7,0,0,0,30.28,5.66,175.44,175.44,0,0,0,30.92,0,182.9,182.9,0,0,0,59.81-16,166.81,166.81,0,0,0,50.46-35.86l1.36-1.39,1.3-1.46,2.59-2.9c1.7-2,3.31-4,4.94-6a154.38,154.38,0,0,0,8.85-12.82,131.11,131.11,0,0,0,13.15-28.25,122.41,122.41,0,0,0,5.87-30.81c.07-2.63.28-5.28.15-7.92l-.08-4-.3-4c-.11-2.67-.55-5.3-.87-8-.13-1.34-.44-2.64-.67-4l-.72-4-.05-.26a3.65,3.65,0,0,1,7.05-1.83c.92,2.7,2,5.39,2.75,8.16s1.61,5.55,2.14,8.39l.87,4.26.62,4.3c.49,2.87.62,5.78.89,8.68.16,1.46.11,2.91.18,4.37s.1,2.93.07,4.39l-.17,4.38-.08,2.19-.2,2.19-.41,4.38c-.17,1.46-.43,2.9-.64,4.35-.39,2.92-1,5.78-1.64,8.66-.27,1.45-.66,2.86-1,4.28l-1.16,4.26-1.37,4.2c-.46,1.39-.89,2.81-1.44,4.17-1.07,2.74-2.06,5.53-3.32,8.18l-1.82,4-2,3.93a152.64,152.64,0,0,1-19.69,29.31,172.32,172.32,0,0,1-25.56,24.37c-1.14.94-2.34,1.8-3.53,2.66l-3.59,2.6c-2.41,1.69-4.9,3.27-7.36,4.91s-5.06,3-7.61,4.51-5.18,2.81-7.81,4.14a193.52,193.52,0,0,1-67.65,19.45,179.54,179.54,0,0,1-70.39-6.95,164.74,164.74,0,0,1-32.75-14.28,143.71,143.71,0,0,1-28.62-21.64,127.44,127.44,0,0,1-22.05-28.36,130.85,130.85,0,0,1-7.81-16.18c-.53-1.4-1-2.82-1.52-4.23s-1-2.8-1.41-4.24c-.81-2.88-1.73-5.71-2.35-8.62a118.94,118.94,0,0,1,4.76-69.19,4.55,4.55,0,0,1,8.71,2.52Z" transform="translate(-422.57 -589.95)"/><g class="cls-2"><ellipse class="cls-3" cx="3329.46" cy="817.2" rx="57.09" ry="48.7" transform="translate(-451.86 -459.74) rotate(-2.23)"/></g><ellipse class="cls-1" cx="3318.54" cy="834.77" rx="34.61" ry="42.9" transform="translate(1261.32 3251.07) rotate(-75.58)"/><path class="cls-3" d="M3332.88,865.09c11.39-1.9,22.16-6.2,30.76-13,1-.89,2.15-1.68,3.11-2.64l1.49-1.38c.48-.48.93-1,1.39-1.47a47,47,0,0,0,5-6.21c.67-1.13,1.47-2.18,2-3.36l.94-1.71c.28-.59.58-1.17.83-1.77a42,42,0,0,0,2.46-7.26,38,38,0,0,0-4.93-28.89c-5.32-8.59-14-15.22-23.71-19.16-19.53-7.9-44-5.1-60.72,8.28-8.36,6.59-14.62,15.89-16.59,26.42a40.63,40.63,0,0,0-.72,8,44,44,0,0,0,.9,8.13,47.28,47.28,0,0,0,6.5,15.48h0a2.34,2.34,0,0,1-3.67,2.88,48.36,48.36,0,0,1-5.82-7.54,46.45,46.45,0,0,1-6.88-28.22,49.2,49.2,0,0,1,5.57-19.2,57.41,57.41,0,0,1,12.24-15.82,69.56,69.56,0,0,1,35.58-17,74.3,74.3,0,0,1,39.37,4,66.87,66.87,0,0,1,17.54,10.16,58.55,58.55,0,0,1,13.53,15.54,51.81,51.81,0,0,1,6.83,19.72,49.84,49.84,0,0,1-1.67,20.73,51.49,51.49,0,0,1-3.94,9.54c-.4.76-.84,1.49-1.26,2.23l-1.38,2.14c-.89,1.45-2,2.75-3,4.11A61.14,61.14,0,0,1,3369.86,861a66.45,66.45,0,0,1-36.63,9.85,2.91,2.91,0,0,1-.39-5.77Z" transform="translate(-422.57 -589.95)"/><path class="cls-3" d="M3257.37,793.11a63.45,63.45,0,0,0-5.15,32.22,58.37,58.37,0,0,0,3.85,15.48,60.64,60.64,0,0,0,7.7,13.83,73.3,73.3,0,0,0,24.06,20.62,88,88,0,0,0,30.57,9.83,96.3,96.3,0,0,0,32.38-1.28,88.18,88.18,0,0,0,29.94-12.4,76,76,0,0,0,12.62-10.29,70,70,0,0,0,10.08-12.84,63.66,63.66,0,0,0,6.71-15,67.29,67.29,0,0,0,2.62-16.58v0a2.34,2.34,0,0,1,4.65-.29,61.4,61.4,0,0,1,.08,18.51c-.23,1.54-.52,3.08-.85,4.62l-.58,2.27c-.19.77-.4,1.52-.65,2.27l-.71,2.25c-.25.75-.55,1.47-.82,2.21-.53,1.49-1.18,2.92-1.82,4.37a72.94,72.94,0,0,1-10.13,16A81.74,81.74,0,0,1,3388.25,882a94.19,94.19,0,0,1-34.08,16.27,103.11,103.11,0,0,1-37.74,2.34,96.15,96.15,0,0,1-36.12-11.93,88.33,88.33,0,0,1-15.5-11.39,76.73,76.73,0,0,1-12.45-14.79,68.55,68.55,0,0,1-8.18-17.56,69.3,69.3,0,0,1-2.14-9.44c-.19-1.6-.41-3.19-.52-4.8s-.21-3.2-.18-4.8a65.16,65.16,0,0,1,2.86-18.79,67.5,67.5,0,0,1,3.44-8.74,64,64,0,0,1,4.67-8,2.91,2.91,0,0,1,5.07,2.81Z" transform="translate(-422.57 -589.95)"/><path class="cls-3" d="M3471.14,950.76a108.51,108.51,0,0,0-16.38,13,102.38,102.38,0,0,0-13.08,15.72,97.26,97.26,0,0,0-14.86,36.9,111.9,111.9,0,0,0,.15,39.73,126.86,126.86,0,0,0,13.24,37.82,141.9,141.9,0,0,0,24.07,32.6,153.64,153.64,0,0,0,15.36,13.46l4.1,3.08L3488,1146c2.8,2,5.82,3.59,8.79,5.31,1.47.91,3,1.64,4.55,2.4L3506,1156l4.76,2,2.37,1c.79.36,1.62.59,2.43.89l4.88,1.72c.81.31,1.64.54,2.47.77l2.5.71,2.5.72a22,22,0,0,0,2.51.64c1.7.36,3.39.73,5.09,1.11s3.42.64,5.14.9,3.45.55,5.18.76l5.23.44c.87.07,1.75.18,2.63.22l2.63.05,5.29.1,5.3-.25,2.67-.1,2.65-.32c1.76-.21,3.55-.4,5.35-.58l.31,0a3.66,3.66,0,0,1,1.6,7.08c-1.8.65-3.61,1.29-5.45,1.9l-2.75.93-2.81.73-5.66,1.39c-1.91.34-3.83.63-5.76.94l-2.89.45c-1,.13-1.94.18-2.91.26l-5.86.44c-2,.09-3.91,0-5.87,0s-3.94,0-5.89-.17-3.92-.29-5.88-.46a28.58,28.58,0,0,1-2.93-.36l-2.92-.44-2.93-.44a28.15,28.15,0,0,1-2.91-.54l-5.77-1.32c-1-.24-1.94-.41-2.88-.71l-2.84-.85-5.68-1.75-5.54-2.12c-1.85-.72-3.73-1.39-5.5-2.27a147.91,147.91,0,0,1-69.09-63.86,138.51,138.51,0,0,1-9.76-22.07,136.3,136.3,0,0,1-5.72-23.54,121.15,121.15,0,0,1,2.44-48.35A103.49,103.49,0,0,1,3428.25,969c1.29-1.55,2.75-3,4.15-4.37s2.9-2.78,4.39-4.11,3.05-2.57,4.62-3.8,3.14-2.42,4.79-3.52a93.82,93.82,0,0,1,10.2-6,91,91,0,0,1,10.8-4.57,4.57,4.57,0,0,1,4,8.15Z" transform="translate(-422.57 -589.95)"/><g class="cls-2"><ellipse class="cls-3" cx="3532.38" cy="1055.07" rx="73.79" ry="89.03" transform="translate(-535.68 1014.05) rotate(-25.19)"/></g><path class="cls-1" d="M3554.77,1127.73c-25.26,7.16-55.69-3.11-76.77-28.51-28.05-33.83-28.9-81.7-1.89-106.93a54.58,54.58,0,0,1,12.41-8.77c20.65,2.55,41.63,14,57.72,33.33C3574.73,1051.22,3577.77,1098.73,3554.77,1127.73Z" transform="translate(-422.57 -589.95)"/><path class="cls-3" d="M3587.2,1010.14A102.53,102.53,0,0,0,3568,996.76a86.55,86.55,0,0,0-21.28-8c-14.58-3.35-29.76-2.4-42.42,3.32l-2.35,1.12-1.17.55-1.15.63c-1.49.84-2.93,1.76-4.33,2.72a50.85,50.85,0,0,0-4,3.1c-1.3,1.09-2.5,2.32-3.71,3.5a52.78,52.78,0,0,0-10.94,16.87,59.45,59.45,0,0,0-4.15,20,70.36,70.36,0,0,0,2.57,20.82,81,81,0,0,0,22.23,36.48l2,1.89c.68.61,1.39,1.17,2.09,1.76l2.09,1.76,2.2,1.62,2.19,1.63L3510,1108c.77.49,1.52,1,2.31,1.48l2.39,1.33a79.33,79.33,0,0,0,20.33,7.83,68.6,68.6,0,0,0,21.65,1.53c.91-.09,1.82-.14,2.72-.26l2.67-.46a46,46,0,0,0,5.33-1.15,58.35,58.35,0,0,0,27.95-17.12,63.77,63.77,0,0,0,12-19.61l0-.06a3.67,3.67,0,0,1,7,2,64.42,64.42,0,0,1-9.7,24.88,66.88,66.88,0,0,1-19.48,19.38,69.13,69.13,0,0,1-12.44,6.44,56.53,56.53,0,0,1-6.65,2.25l-3.4.93c-1.14.28-2.29.47-3.44.71a83.29,83.29,0,0,1-27.95.56,97.63,97.63,0,0,1-49.9-23.65c-.87-.77-1.76-1.53-2.61-2.33l-2.47-2.47c-.82-.83-1.66-1.65-2.46-2.5l-2.32-2.63a104.6,104.6,0,0,1-8.42-11.25,100.45,100.45,0,0,1-6.81-12.38,102.5,102.5,0,0,1-4.94-13.34,85.07,85.07,0,0,1-2.89-14,88.91,88.91,0,0,1-.62-14.42,80.93,80.93,0,0,1,6.44-28.43,74.26,74.26,0,0,1,16.94-24.05,71.05,71.05,0,0,1,24.85-15.2,77.26,77.26,0,0,1,28.11-4.63,31.49,31.49,0,0,1,3.51.17l3.5.27a33.59,33.59,0,0,1,3.47.45l3.43.56a90.13,90.13,0,0,1,55.72,35.3,4.56,4.56,0,0,1-6.68,6.12Z" transform="translate(-422.57 -589.95)"/><path class="cls-1" d="M3424.62,1426.09c28.34,11.37,51.47,29.85,65.92,55,26.2,45.57,16.58,99.92-17.5,150.42-22.36,33.12-55.84,63.42-98,85.8-106.42,56.48-227.86,41.07-271.24-34.41-16.14-28.09-19.2-60.53-11.2-93.12,13.51-55,59.88-107.64,126.7-143.1" transform="translate(-422.57 -589.95)"/><path class="cls-3" d="M3495.16,1478.44a111.39,111.39,0,0,1,16,35.64,124.32,124.32,0,0,1,3.24,39.45,158,158,0,0,1-8,38.65,186.73,186.73,0,0,1-7.25,18.25c-2.73,5.93-5.65,11.77-8.89,17.4a237,237,0,0,1-22,32.18,261.91,261.91,0,0,1-26.74,28.27c-2.39,2.19-4.85,4.3-7.29,6.43s-5,4.12-7.54,6.13c-5.1,4-10.28,7.85-15.62,11.5a314.5,314.5,0,0,1-33.29,19.76A295.64,295.64,0,0,1,3305,1758q-9.48,2-19.1,3.38c-6.41.9-12.86,1.52-19.32,1.94a241.45,241.45,0,0,1-38.87-.54c-6.47-.61-12.91-1.56-19.3-2.75a191.58,191.58,0,0,1-19-4.56,171.06,171.06,0,0,1-36.07-15.07,138.1,138.1,0,0,1-31.07-23.7,122.49,122.49,0,0,1-12.45-15,115.4,115.4,0,0,1-9.71-16.7,4.31,4.31,0,0,1,7.41-4.32l0,0a122.32,122.32,0,0,0,11.2,13.75,115.06,115.06,0,0,0,12.9,11.9,137.12,137.12,0,0,0,29.85,17.84c21.28,9.33,44.53,13.79,67.83,14.59a255.83,255.83,0,0,0,69.59-7.55c5.69-1.41,11.34-3,17-4.7s11.15-3.66,16.64-5.75,10.93-4.29,16.29-6.68,10.66-5,15.87-7.65a307.9,307.9,0,0,0,30.3-17.92,276.53,276.53,0,0,0,27.91-21.28,266.26,266.26,0,0,0,24.88-24.6,230.37,230.37,0,0,0,21.08-27.83,203.89,203.89,0,0,0,16.34-30.68,150,150,0,0,0,9.72-33,116.46,116.46,0,0,0,.81-34.17,113,113,0,0,0-9.76-33.33v0a5.34,5.34,0,0,1,9.25-5.27Z" transform="translate(-422.57 -589.95)"/><g class="cls-2"><ellipse class="cls-3" cx="3297.02" cy="1581.02" rx="165.71" ry="120.43" transform="translate(-768.67 678.54) rotate(-20.72)"/></g><ellipse class="cls-1" cx="3292.61" cy="1615.28" rx="140.47" ry="88.57" transform="translate(-740.86 383.57) rotate(-16.05)"/><path class="cls-3" d="M3198,1705.3a115.25,115.25,0,0,1-11.36-4.39c-1.88-.8-3.69-1.75-5.54-2.64s-3.64-1.91-5.4-3a104.42,104.42,0,0,1-19.81-15.15,95.78,95.78,0,0,1-25.32-43.79,105.19,105.19,0,0,1-3.33-25.5,118.66,118.66,0,0,1,2.68-25.41,143.22,143.22,0,0,1,7.57-24.13l1.22-2.9c.4-1,.81-1.94,1.28-2.88.9-1.88,1.79-3.78,2.72-5.66l3-5.51c1-1.84,2.11-3.6,3.16-5.4s2.2-3.54,3.35-5.27,2.26-3.5,3.5-5.16,2.41-3.39,3.66-5l3.85-4.88a218.13,218.13,0,0,1,16.79-18.24,226.86,226.86,0,0,1,39.09-30c28-17,59.56-28.59,92.53-32.49a224.21,224.21,0,0,1,24.89-1.44,183.64,183.64,0,0,1,25,1.88,146.87,146.87,0,0,1,48.5,15.51,114.89,114.89,0,0,1,21.56,14.79,105.37,105.37,0,0,1,17.56,19.77,99,99,0,0,1,11.9,23.64,101.81,101.81,0,0,1,5.25,25.75,112.65,112.65,0,0,1-1.24,25.8,125.48,125.48,0,0,1-6.63,24.41,150.09,150.09,0,0,1-10.71,22.44,169.7,169.7,0,0,1-13.91,20.2,178.53,178.53,0,0,1-16.35,17.93c-2.87,2.84-5.91,5.47-8.92,8.13-1.52,1.31-3.1,2.55-4.65,3.81-.78.63-1.55,1.27-2.34,1.88l-2.41,1.8a210.69,210.69,0,0,1-19.83,13.33l-5.16,3c-1.74,1-3.5,1.85-5.25,2.78-3.46,1.92-7.11,3.49-10.66,5.2a4.3,4.3,0,0,1-4.19-7.48l.17-.1c6.4-4.13,12.77-8.24,18.74-12.88a209,209,0,0,0,17.32-14.44l2.06-1.9c.68-.65,1.33-1.32,2-2l4-4c2.56-2.71,5.14-5.39,7.54-8.23l1.82-2.09c.61-.71,1.17-1.44,1.76-2.16,1.15-1.45,2.36-2.85,3.47-4.32l3.31-4.44c1.1-1.47,2.1-3,3.15-4.53a164.52,164.52,0,0,0,11-18.88,142,142,0,0,0,8-20,111.19,111.19,0,0,0,4.31-20.61,90.61,90.61,0,0,0-.11-20.5,77.27,77.27,0,0,0-4.88-19.39,77.59,77.59,0,0,0-23.32-31.65,88.72,88.72,0,0,0-16.95-11,116.37,116.37,0,0,0-19.21-7.46,127.86,127.86,0,0,0-20.53-4.27,178.16,178.16,0,0,0-21.22-1.3,194.48,194.48,0,0,0-21.4,1.41c-28.53,3.55-56.44,13.53-81.49,28.22a213.08,213.08,0,0,0-18.21,11.89c-5.88,4.24-11.41,8.91-16.82,13.69a189.61,189.61,0,0,0-15.14,15.4,172.59,172.59,0,0,0-13.08,17,140.82,140.82,0,0,0-10.54,18.51,122.67,122.67,0,0,0-7.38,19.74,95.37,95.37,0,0,0-3.48,20.51,84.12,84.12,0,0,0,1.18,20.55,78.47,78.47,0,0,0,6.29,19.65l1.1,2.37,1.24,2.3c.4.77.84,1.53,1.3,2.27s.89,1.51,1.36,2.24c1,1.45,1.92,2.93,3,4.33s2.13,2.8,3.22,4.19a90,90,0,0,0,15.58,14.71,113.58,113.58,0,0,0,18.76,11.43l.14.07a5.33,5.33,0,0,1-4.1,9.82Z" transform="translate(-422.57 -589.95)"/><path class="cls-5" d="M1155.9,2868.85c-10.57,64.66-62.68,90.38-165.32,70.09s-142.13,23.2-149,31.55C818.56,2998.77,652,3267,810.49,3343.14c111.77,53.68,228.6-121.76,228.6-121.76s263.6,176.75,629.3-225.17" transform="translate(-422.57 -589.95)"/><path class="cls-3" d="M1327.64,3220.34c-31.34,0-61.3-5.3-88.91-15.89-88.79-34-154.27-120.31-194.64-256.42a16.93,16.93,0,0,1,32.46-9.62c37.21,125.48,95.86,204.36,174.3,234.43,109.41,41.95,221.85-25.78,223-26.47a16.93,16.93,0,1,1,17.7,28.86c-1.3.79-32.38,19.69-78.76,32.81A312.77,312.77,0,0,1,1327.64,3220.34Z" transform="translate(-422.57 -589.95)"/><g class="cls-2"><path class="cls-3" d="M810.49,3343.15c111.77,53.67,228.59-121.76,228.59-121.76s263.6,176.73,629.31-225.17l-335.33-83.35c-118.77,218.48-307.88,210.05-307.88,210.05s-64.45,216.57-231.83,163.56c-45.05-14.28-37.85-69.76-48.51-89C737.09,3258,750.48,3314.32,810.49,3343.15Z" transform="translate(-422.57 -589.95)"/></g><path class="cls-3" d="M854.81,3370.24a118.13,118.13,0,0,1-51.65-11.84c-39.2-18.83-63.8-49.54-73.11-91.28-11.11-49.84-.08-113.64,32.77-189.65,24.15-55.85,54.7-104.2,65.69-117.68,11.56-14.17,57.65-58.75,165.35-37.46,54.92,10.86,94.71,8.07,118.28-8.29,14.59-10.13,23.44-25.81,27.06-47.92a16.93,16.93,0,1,1,33.41,5.46c-5.1,31.21-18.95,54.85-41.16,70.27-31.84,22.09-79,26.57-144.15,13.69-91.5-18.08-126.47,18.2-132.56,25.65-14.34,17.58-114.6,175.59-91.64,278.56,7,31.54,24.93,53.82,54.72,68.13C915,3374.56,1023.92,3213.62,1025,3212l9.42-14.11,14.09,9.44c.58.38,64.2,41.56,169.64,35.15,98.16-6,253.79-55.51,437.71-257.65a16.93,16.93,0,0,1,25,22.78c-84.75,93.14-171.3,163.24-257.26,208.34-69.53,36.48-138.88,56.83-206.13,60.48-7.5.4-14.82.59-21.92.59-75.15,0-127.74-21.3-151.59-33.43-12.2,16.3-35.78,45.41-66.27,71.64C935.31,3351.72,893.63,3370.24,854.81,3370.24Z" transform="translate(-422.57 -589.95)"/><path class="cls-5" d="M1624.12,2213.36c-10.7-1.86-235.86-107.77-386.89-105.61-125.92,1.8-365.84,427-323.6,538.77,39.14,103.56,257,197.71,257,197.71Z" transform="translate(-422.57 -589.95)"/><path class="cls-5" d="M1624.11,2213.37l-73.7,102.54-379.78,528.32s-105.64-45.65-183-108.37c-33.76-27.31-62.09-57.87-74-89.34-42.25-111.75,197.67-537,323.6-538.77C1388.26,2105.59,1613.41,2211.5,1624.11,2213.37Z" transform="translate(-422.57 -589.95)"/><g class="cls-2"><path class="cls-3" d="M1550.41,2315.91l-379.78,528.32a.52.52,0,0,1-.16-.06c-.49-.23-2-.9-4.54-2l-1.63-.76a1.59,1.59,0,0,1-.33-.13c-.52-.23-1.1-.52-1.69-.76-1.4-.68-3-1.39-4.75-2.2-.42-.22-.88-.41-1.34-.63s-.81-.4-1.23-.58-1.07-.51-1.62-.79c-5.63-2.64-12.47-6-20.2-9.83-.94-.45-1.91-.94-2.88-1.44q-4.37-2.21-9.07-4.64l-3.16-1.63c-1.23-.61-2.49-1.29-3.78-2-1.54-.84-3.12-1.66-4.73-2.51-.49-.23-.93-.49-1.38-.75-1.16-.63-2.32-1.23-3.51-1.87-3.3-1.8-6.68-3.61-10.11-5.5-.1,0-.22-.14-.35-.2-2.38-1.31-4.81-2.67-7.24-4.06a.52.52,0,0,1-.19-.11c-1.76-1-3.53-2-5.31-3-1.13-.62-2.24-1.28-3.39-2-4.25-2.46-8.59-5-13-7.6-2.8-1.67-5.62-3.42-8.48-5.17-2.57-1.56-5.17-3.19-7.77-4.83s-5.18-3.3-7.81-5-5.2-3.41-7.82-5.12-5.19-3.48-7.76-5.25-5.18-3.55-7.74-5.39c0,0,0,0,0,0-2.56-1.8-5.12-3.64-7.65-5.47l-7.59-5.61c-.41-.29-.81-.6-1.18-.88-2.11-1.62-4.21-3.24-6.28-4.85-2.48-1.92-4.91-3.88-7.34-5.84-33.76-27.31-62.09-57.87-74-89.34-22-58.31,32.75-202,108.1-326.31-33.48,79-50.41,150.25-36.44,187.25,4.89,12.94,12.56,25.73,22.26,38.21a216.62,216.62,0,0,0,37.75,37.94c84.93-151.51,242.28-327.8,326.59-319.42,48.75,4.87,103.94,21.89,156.64,42.78C1535.88,2309.89,1543.2,2312.87,1550.41,2315.91Z" transform="translate(-422.57 -589.95)"/></g><path class="cls-3" d="M1176.44,2865.17l-12.5-5.4a1013.6,1013.6,0,0,1-116-61.14C965.91,2748.21,915.39,2699,897.8,2652.5c-16.8-44.43,5.07-119.4,26.37-174.47,27-69.72,68.79-148.43,114.73-215.93,43.24-63.53,126.46-170.25,198.09-171.28,55.58-.81,126.9,12.35,212,39.07,68.54,21.52,128,46.07,159.87,59.26,8.43,3.49,16.43,6.8,19,7.68l25.81,4.48Zm65.37-740.53c-1.46,0-2.9,0-4.34,0-39.92.58-105.28,60.53-170.58,156.48-44.55,65.46-85.06,141.67-111.14,209.1-26.71,69-36.29,123.82-26.29,150.29,14.65,38.74,61.63,83.36,135.87,129a1024.1,1024.1,0,0,0,99.68,53.5l432.65-601.91-1.76-.73C1538.22,2196.61,1364.09,2124.64,1241.81,2124.64ZM1628.23,2197Z" transform="translate(-422.57 -589.95)"/><path class="cls-3" d="M1228.76,2100.5c5.54,6,10.81,11.92,16.12,17.94s10.54,12,15.73,18.11c10.4,12.15,20.63,24.44,30.6,37s19.76,25.25,29,38.44c1.17,1.65,2.36,3.27,3.51,4.93l3.4,5c2.24,3.38,4.58,6.64,6.71,10.14s4.36,6.86,6.45,10.39l6.1,10.73a9.67,9.67,0,0,1-16.64,9.85l-.18-.3c-7.94-12.93-17.28-25.38-26.93-37.57s-19.9-24.07-30.3-35.78-21.12-23.22-32-34.57q-8.15-8.52-16.42-16.9c-5.49-5.57-11.1-11.19-16.6-16.54l-.05,0a15,15,0,0,1,20.85-21.44C1228.37,2100.09,1228.59,2100.31,1228.76,2100.5Z" transform="translate(-422.57 -589.95)"/><path class="cls-5" d="M1007.21,2335.59l106.43,83.33a26.47,26.47,0,0,1,8,31.4c-17.63,40.52-63.2,132-117,136.32-44.62,3.59-90.2-30.8-102.25-72.87C888.92,2466.72,941.15,2382,969,2341.45A26.51,26.51,0,0,1,1007.21,2335.59Z" transform="translate(-422.57 -589.95)"/><g class="cls-2"><path class="cls-3" d="M1121.61,2450.33c-17.6,40.52-63.19,132-116.95,136.3-44.64,3.59-90.2-30.8-102.27-72.88-8.27-28.94,8.3-72.11,28.76-110.5-7,21.35-8.81,41.25-5.35,57.42,19.79,92.63,105.2,56.12,105.2,56.12s-3.18,20.6,2,25.39c21.9,20,67.89-59.69,90.73-101.48A25.65,25.65,0,0,1,1121.61,2450.33Z" transform="translate(-422.57 -589.95)"/></g><path class="cls-3" d="M998.32,2603.82c-49,0-98.28-36.87-112.18-85.39-14.41-50.24,29.52-129.18,68.91-186.56a43.42,43.42,0,0,1,62.59-9.61h0l106.43,83.33a43.41,43.41,0,0,1,13.08,51.48c-9.86,22.68-26,55.8-46.67,84.81-27.54,38.61-56,59.34-84.46,61.63Q1002.18,2603.82,998.32,2603.82Zm-7.45-257a9.93,9.93,0,0,0-1.47.11A9.54,9.54,0,0,0,983,2351c-48.41,70.52-72.44,129.61-64.28,158.08,9.76,34,45.38,60.86,79.52,60.86,1.71,0,3.41-.07,5.11-.2,36.59-2.95,77.1-67.12,102.8-126.2a9.56,9.56,0,0,0-2.91-11.33l-106.43-83.32A9.46,9.46,0,0,0,990.87,2346.87Z" transform="translate(-422.57 -589.95)"/><path class="cls-3" d="M940.43,2550.41h-.16l.05,0,.13,0,.39.06c.31,0,.61.09,1,.12.67.08,1.41.13,2.16.16,1.49.08,3.07.07,4.66,0a78,78,0,0,0,9.72-1,82.11,82.11,0,0,0,9.81-2.25,92.1,92.1,0,0,0,9.7-3.37,125.23,125.23,0,0,0,35.76-22.77,180.18,180.18,0,0,0,15.47-15.66l3.62-4.23,3.57-4.42c1.21-1.46,2.37-3,3.53-4.45s2.34-3,3.45-4.51c4.57-6,8.91-12.21,12.92-18.57,2-3.18,3.91-6.39,5.65-9.67.88-1.63,1.72-3.28,2.5-4.93.37-.82.77-1.65,1.1-2.46.18-.41.35-.82.5-1.21l.4-1,.2-.53a4.46,4.46,0,0,1,8.5,2.6l-.22.94-.2.79c-.14.53-.28,1-.43,1.53-.29,1-.62,2-.94,2.94-.65,1.93-1.36,3.81-2.1,5.68-1.48,3.73-3.14,7.34-4.83,10.94-3.45,7.15-7.23,14.08-11.25,20.86-1,1.72-2,3.37-3,5.06s-2,3.37-3.12,5l-3.17,5-3.37,5a198.61,198.61,0,0,1-15,19.1,147.31,147.31,0,0,1-38.79,31.25,119.49,119.49,0,0,1-11.62,5.59,111.08,111.08,0,0,1-12.33,4.36,104.06,104.06,0,0,1-13.06,2.89c-2.25.33-4.52.62-6.88.77-1.18.09-2.37.15-3.62.17-.61,0-1.27,0-1.92,0l-1,0-.59,0-.32,0-.51-.05a14.94,14.94,0,0,1,3.77-29.65Z" transform="translate(-422.57 -589.95)"/><path class="cls-5" d="M1882.33,2572.06s51.87,7.21,132.87,1.2c162-12.06,440.71-76.83,654.88-357.34,27.92-36.55,163.07-51.52,127.8-127.66-10.7-23.1-38.75-28-38.75-28s41.09-16.83,31.55-59.59c-15.09-67.57-137.93-38.6-137.93-38.6s41.11-43.29,50.23-84c6.36-28.55-13.57-54.37-31.29-61.19-50.25-19.31-153.52,56.55-216.33,99-59.2,39.94-97.29,91.64-136.59,144.71-61.32,82.72-125.67,168.78-277.84,218.81-51,16.73-111.79,29.46-185.65,36.64l18.23,172.69Z" transform="translate(-422.57 -589.95)"/><g class="cls-2"><path class="cls-3" d="M1882.33,2572.06s51.87,7.21,132.87,1.2c162-12.06,440.71-76.83,654.88-357.34,23.63-30.9,124-46.39,133-96.51-11.09-23.69-104.11,43.82-129,50.83-48.21,13.6-58.79-15.76-60.79-28.6-7.62-48.79,173.46-74.37,175.73-117.09,2.89-54.55-55.18,41.5-191.87,44.18-43.23.85-54-52.53-55.64-48.77-49,110.56,35.07,186.17-14.05,258.47-146.79,216-368.57,182.29-505.72,192.5-81,6-132.87-1.2-132.87-1.2l-8.82-83.38-7.62-72.17q-8.46,1-17.14,1.82l18.23,172.69Z" transform="translate(-422.57 -589.95)"/></g><path class="cls-3" d="M1951.94,2592.65c-43.35,0-69.67-3.5-71.94-3.82a16.93,16.93,0,1,1,4.65-33.53c1.14.16,116.4,15.31,268.6-20.3,139.93-32.75,340.85-116.47,503.39-329.36,12-15.66,35.53-26.44,60.48-37.86,28.59-13.08,61-27.9,68.16-47.31,2.65-7.15,1.74-15.35-2.76-25.07-6.58-14.2-25.19-18.22-26.37-18.46a16.83,16.83,0,0,1-3.5-32.31c3.2-1.39,27.59-13,21.5-40.26-2-9.1-6.76-15.71-14.89-20.8-27.78-17.41-83.51-9.52-102.65-5a16.92,16.92,0,0,1-16.15-28.13c.37-.39,38-40.47,46-76.06,4.56-20.38-11.13-38-20.81-41.7-10.49-4-32.69-3.85-78.9,19.89-35.07,18-73.25,44.1-103.93,65.06-6.28,4.29-12.29,8.4-18,12.24-56.3,38-92.82,87.28-131.48,139.47-41.79,56.4-85,114.73-156.3,163.09-80.25,54.44-185,87.29-320.11,100.43a16.93,16.93,0,0,1-3.27-33.7c288-28,371.63-140.85,452.48-250,38.66-52.18,78.64-106.14,139.74-147.38,5.64-3.8,11.6-7.87,17.82-12.12,31.46-21.49,70.61-48.24,107.56-67.22,47.33-24.32,81.18-31.12,106.51-21.38,26.58,10.21,49.68,45.07,41.71,80.69-4.6,20.57-16.08,41.25-27.33,57.78.81-.06,1.63-.11,2.45-.15,35.28-2,63.08,3.24,82.64,15.49,15.85,9.93,25.93,24.1,30,42.11,5.84,26.15-2.9,46-14.92,59.58a61.85,61.85,0,0,1,21,24.6c8.36,18,9.64,35.22,3.8,51-12.05,32.61-51.25,50.55-85.84,66.37-20.07,9.18-40.82,18.68-47.65,27.62-74.6,97.71-163.23,177.59-263.41,237.44a907.76,907.76,0,0,1-260.59,104.66C2074.86,2588,2002,2592.65,1951.94,2592.65Z" transform="translate(-422.57 -589.95)"/><path class="cls-5" d="M463.26,2885.83c76.27,89.79,187.24-17.51,187.24-17.51s84.56,234.75,262.17,283.48c149.25,40.94,334.33-57.2,334.33-57.2s631.89,175.37,768.2-521.34a1356.8,1356.8,0,0,0,20.67-156q5-64.93,5.06-137.94-.08-38.19-1.54-78.68l-523.87-47.28-60.39-5.41-15.06-1.38c-.85,3.37-1.71,6.7-2.61,10-26,95-77,166.87-131.78,224.13-69.44,72.71-144.73,121.84-181.91,164.53a493.73,493.73,0,0,0-48.55,66c-21.59,35.06-30.77,59.95-30.77,59.95-23,18.21-96.06,70.87-156.37,31.48-20.91-13.68-35.08-36.89-47.54-62.18-22.09-44.75-38.9-96-78.64-112.63-57.37-24-123.23-2.26-178.06,38-34.23,25.13-64.15,57.52-85,90.46C462.82,2713.15,407.51,2820.27,463.26,2885.83Z" transform="translate(-422.57 -589.95)"/><g class="cls-2"><path class="cls-3" d="M450.38,2866.32a96.55,96.55,0,0,0,12.88,19.51c76.27,89.79,187.24-17.51,187.24-17.51s84.56,234.75,262.17,283.48c149.25,40.94,334.33-57.2,334.33-57.2s614.94,170.67,762.4-493.64c-148.55,465.54-557.52,439.38-694.1,416.53a158.73,158.73,0,0,0-87.15,9.91c-63.26,26.26-186.72,66.86-292.26,37.91-177.61-48.73-221.48-278.42-298.1-297.84C619.88,2762.93,584.3,2956,450.38,2866.32Z" transform="translate(-422.57 -589.95)"/></g><path class="cls-3" d="M992.1,3178.71c-30.12,0-58.22-3.53-83.88-10.57-43-11.8-84.26-34.83-122.6-68.45-30.22-26.51-58.72-59.64-84.71-98.47a681.21,681.21,0,0,1-57.37-105c-22.76,17.22-63.54,42.38-107.5,42.38-1.85,0-3.69,0-5.55-.13-31-1.52-57.95-15.54-80.14-41.65-28.24-33.23-35-78.11-20.06-133.41,9.53-35.29,27.77-74.34,54.22-116.07,30.09-47.49,74.93-90,123-116.75,26.69-14.82,53.33-24.19,79.17-27.86,29.14-4.13,56.63-.91,81.71,9.59,38.87,16.28,57.86,57.47,76.23,97.3,14.44,31.33,29.37,63.72,52.7,79,21.07,13.77,47,15.17,77,4.14,18-6.59,37.24-17.61,56-32,6.55-15.85,30.75-69.29,80.61-126.52,18.37-21.09,44.63-42.89,75-68.13,83.45-69.25,197.73-164.09,237.58-323.55a16.93,16.93,0,1,1,32.84,8.21c-42.54,170.22-161.75,269.15-248.79,341.39-29.29,24.3-54.57,45.29-71.15,64.32-53.94,61.92-76,120.12-76.23,120.7l-1.65,4.43-3.71,3c-22.66,17.93-46.48,31.75-68.89,40-40.07,14.7-77.15,12.08-107.23-7.58-31.47-20.57-48.48-57.45-64.92-93.12s-31.84-69.06-58.57-80.25c-80.54-33.71-188.45,37-242.24,121.91-24.62,38.85-41.48,74.78-50.12,106.78-11.85,43.89-7.42,78.43,13.17,102.66,16.08,18.93,34.37,28.66,55.89,29.75,52.85,2.66,106.17-48,106.7-48.48l18.81-18.08,8.86,24.53c.21.57,21.22,58.07,63.07,120.44,37.88,56.45,101.2,128.72,187.69,152.45,73,20,156.2,4,213.13-13,62.72-18.69,108.32-42.66,108.78-42.9l6-3.15,6.5,1.8c.74.2,76.26,20.7,178.45,18.94,93.44-1.63,229.15-22.8,345-114.44,178.21-140.93,261.48-403.85,247.5-781.46a16.93,16.93,0,1,1,33.83-1.25c7.72,208.43-14.26,385.34-65.32,525.81-43.79,120.47-109.49,215.91-195.27,283.66-54.65,43.18-117.83,75.36-187.77,95.67-55.72,16.18-115.81,24.88-178.6,25.88-4.12.06-8.21.09-12.23.09-84.38,0-148.13-13.73-168.15-18.61a712.73,712.73,0,0,1-108.33,42.2c-38.78,11.6-76.21,19.09-111.26,22.24Q1010.29,3178.71,992.1,3178.71Z" transform="translate(-422.57 -589.95)"/><path class="cls-5" d="M2433.2,1955.17c41.93-65.65,131.14-81.46,148.67-78.1,13.36,2.56,45,45.28,12.43,71.08s-59.71,25.19-59.25,38.12,22.57,58.93-13,104.08" transform="translate(-422.57 -589.95)"/><path class="cls-3" d="M2428.45,1952.13c8-17.68,20.75-33.34,35.62-46.2a191.65,191.65,0,0,1,50.09-30.84,207.9,207.9,0,0,1,28-9.7c4.8-1.29,9.66-2.42,14.66-3.35a130.64,130.64,0,0,1,15.62-2l2.11-.11c.71,0,1.5,0,2.24,0,1.43,0,3.22.07,4.92.17,1,.12,2.09.25,3.13.41a30.26,30.26,0,0,1,4.41,1.21,34.08,34.08,0,0,1,6.2,3.06,49.38,49.38,0,0,1,8.18,6.43,67.52,67.52,0,0,1,6.14,6.78,74.24,74.24,0,0,1,9.28,15,66.91,66.91,0,0,1,5.53,17.48,52.75,52.75,0,0,1-.3,19.85,50,50,0,0,1-8.31,18.78,46.36,46.36,0,0,1-3.09,3.92,44.83,44.83,0,0,1-3.36,3.51,46.62,46.62,0,0,1-3.55,3.12l-.9.75c-.3.24-.63.52-.86.68l-1.54,1.14q-6.16,4.56-12.73,8.52a187.41,187.41,0,0,1-26.9,13.09c-4.4,1.74-8.8,3.37-12.11,4.83-1.61.69-2.92,1.44-3.16,1.54a10.63,10.63,0,0,1,.53-1,6.2,6.2,0,0,0,.76-2.81,2,2,0,0,0,0-.55l0-.13h0v.07l0,.07s0,0,0,.12l0,.46c0,.65.17,1.58.33,2.57.32,2,.76,4.22,1.19,6.53.84,4.62,1.67,9.51,2.26,14.46a118.15,118.15,0,0,1,0,30.41,92.59,92.59,0,0,1-26.24,53.35,5.68,5.68,0,0,1-8.95-6.85l.08-.13A100.39,100.39,0,0,0,2528,2063.4a84.31,84.31,0,0,0,2.56-12.16,93.47,93.47,0,0,0,.73-12.28,103.53,103.53,0,0,0-.91-12.29c-.54-4.11-1.39-8.19-2.35-12.31s-2.15-8.23-3.45-12.56c-.64-2.17-1.3-4.42-2-6.92-.33-1.27-.66-2.59-1-4.22l-.22-1.25c0-.19-.06-.47-.09-.73l-.09-.79-.08-.8c0-.14,0-.24,0-.42v-.57c0-.76,0-1.52,0-2.28a22.32,22.32,0,0,1,2.94-9.3,26.6,26.6,0,0,1,5.09-6.1,46.14,46.14,0,0,1,8.53-5.75c4.93-2.66,9.07-4.5,13.09-6.49s7.8-3.83,11.46-5.88,7.17-4.23,10.6-6.5,6.73-4.71,9.92-7.3l1.2-1a5.36,5.36,0,0,0,.46-.41l.41-.39a16.07,16.07,0,0,0,1.56-1.51,22.51,22.51,0,0,0,2.49-3.07,16.7,16.7,0,0,0,2.59-6.37c.12-.56.12-1.17.23-1.74s.06-1.22,0-1.86,0-1.28-.12-2l-.1-1-.18-1c-.92-5.58-4.1-12-8.15-17.14a34.79,34.79,0,0,0-3.09-3.48,18.51,18.51,0,0,0-2.58-2.19c-.26-.19-.35-.18.05-.06h0l.15.06.34.1a1.86,1.86,0,0,0,.34.07l.21,0a.67.67,0,0,1-.28-.06c-.61,0-1.12-.13-2-.13-.41,0-.76,0-1.21,0l-1.34,0a102.45,102.45,0,0,0-11.82,1.09c-4.1.54-8.26,1.26-12.41,2.15s-8.31,1.89-12.45,3-8.26,2.34-12.34,3.69a218.91,218.91,0,0,0-46.9,21.39,175.66,175.66,0,0,0-40,33.55l-.05.06a5.7,5.7,0,0,1-9.46-6.13Z" transform="translate(-422.57 -589.95)"/><path class="cls-5" d="M2012,2672.51l-187.81,247.3-189.6,18.48-100.26,9.77s-77.27-29.63-95.93-37.1c-25.33-10.08-15.07-40.77-3.27-57.78a598.36,598.36,0,0,0,49.18-86c21.12-44.86,34.94-86.59,47.73-120.7a65.58,65.58,0,0,1,68.3-42.34c177.62,19.09,352.4,18.26,352.4,18.26Z" transform="translate(-422.57 -589.95)"/><path class="cls-3" d="M1534.35,2963.06a15,15,0,0,1-5.38-1c-3.16-1.21-77.57-29.77-96.1-37.16-11.84-4.73-19.91-13.23-23.34-24.6-5.65-18.75,3.15-41.06,13.27-55.68,44.52-64.29,67.82-128.32,86.53-179.78,3-8.26,5.85-16.06,8.68-23.6a80.52,80.52,0,0,1,84-52c174.69,18.76,349,18.19,350.73,18.18a15,15,0,0,1,9.75,3.54l59.25,50.05a15,15,0,0,1,2.27,20.53l-187.79,247.32a15,15,0,0,1-10.49,5.86L1535.8,2963A14.08,14.08,0,0,1,1534.35,2963.06Zm59-344.25a50.61,50.61,0,0,0-47.28,33c-2.78,7.4-5.59,15.14-8.57,23.33-19.31,53.07-43.34,119.13-90.06,186.6-7.25,10.46-11.21,23.34-9.22,29.94.53,1.75,1.62,3.75,5.73,5.39,16.16,6.45,77.47,30,92.44,35.75l279.82-27.26,175.22-230.76-44.19-37.32c-31.31-.07-189.71-1.3-348.52-18.36A51.11,51.11,0,0,0,1593.38,2618.81Z" transform="translate(-422.57 -589.95)"/><g class="cls-6"><path class="cls-3" d="M1634.61,2938.29l-100.26,9.77s-77.27-29.63-95.93-37.1c-19.34-7.69-17.94-27.44-10.94-43.9a79.85,79.85,0,0,1,7.67-13.88,598.36,598.36,0,0,0,49.18-86c4.05,12.7,16-.5,47.76-10.4,37.57-11.71,55.69-43.52,77.68-51C1673.91,2683.9,1650.81,2866.7,1634.61,2938.29Z" transform="translate(-422.57 -589.95)"/></g><path class="cls-5" d="M1893.1,2833.5c-8.75,23.64-16.94,53.79-16.94,53.79s-49.59-13.1-53.47-14.54c-12.86-4.76-13.12-36.07-.59-69.95s33.12-57.49,46-52.73c9.41,3.48,49.35,13.58,49.35,13.58S1896.46,2824.41,1893.1,2833.5Z" transform="translate(-422.57 -589.95)"/><ellipse class="cls-5" cx="1896.11" cy="2825.23" rx="65.4" ry="33.04" transform="translate(-1834.06 3033.39) rotate(-69.7)"/><path class="cls-5" d="M2007.48,2686c-13.49,24.15-34.79,62.59-58.34,102.16-33.72,56.6-72,115.44-98.34,137.62-45.87,38.59-211.14,36.33-316.48,22.28-27.65-3.69-43.54-32.71-28-55.92,25.36-38,47.18-75.7,64.87-108.75,16.75-31.28,29.79-58.36,38.61-77.58a43.5,43.5,0,0,1,46.07-24.82c166.68,25.19,285.7,1.6,337.61-12.9A12.32,12.32,0,0,1,2007.48,2686Z" transform="translate(-422.57 -589.95)"/><g class="cls-6"><path class="cls-3" d="M1905.66,2857.48c-16.29,24.29-32,45.49-45.62,59.53a115.78,115.78,0,0,1-9.24,8.77c-45.87,38.59-211.14,36.33-316.48,22.28-27.65-3.69-43.54-32.71-28-55.92,25.36-38,47.18-75.7,64.87-108.75,5.36,29.87,29.21,94.3,134.91,116.73,27.37,5.78,56,2.21,84.28-7.27-4.07-12.81-1.66-35.78,7.32-60,12.5-33.88,33.11-57.49,45.95-52.74,7.86,2.92,37,10.42,46.42,12.85a17.17,17.17,0,0,1,4.33,1c9.08,3.34,14.38,14.14,15.5,28.57C1910.65,2832.76,1909.3,2844.88,1905.66,2857.48Z" transform="translate(-422.57 -589.95)"/></g><g class="cls-6"><path class="cls-3" d="M1905.66,2857.48c3.64-12.6,5-24.72,4.21-35,14.07-11.39,27.29-23.06,39.27-34.3C1935.05,2811.82,1920.15,2835.88,1905.66,2857.48Z" transform="translate(-422.57 -589.95)"/></g><path class="cls-3" d="M1678,2972.38a1143.31,1143.31,0,0,1-145.67-9.45c-19.11-2.55-35.07-14.15-42.71-31-7.16-15.86-5.64-33.38,4.19-48.09,49.32-73.83,85.28-147.13,102.32-184.25l13.63,6.26-13.63-6.26a58.8,58.8,0,0,1,61.95-33.4c161.72,24.42,277,2.64,331.31-12.52a27.32,27.32,0,0,1,31.19,39.65l-3.27,5.87c-36.17,64.87-111.44,199.86-156.87,238.08-23.54,19.8-72.31,31.38-145,34.4C1703.48,2972.14,1690.91,2972.38,1678,2972.38Zm-28.64-276.87a28.65,28.65,0,0,0-26,16.56c-17.41,37.94-54.16,112.85-104.64,188.4a19.12,19.12,0,0,0-1.79,19.07c3.34,7.38,10.56,12.48,19.33,13.65,117.22,15.64,267.09,12.85,304.83-18.9,41.22-34.69,117.44-171.37,150-229.74l.18-.34c-58.9,15.66-176.28,36-337.69,11.62A27.7,27.7,0,0,0,1649.37,2695.51Z" transform="translate(-422.57 -589.95)"/><path class="cls-7" d="M1893.1,2833.5c-8.75,23.64-16.94,53.79-16.94,53.79s-49.59-13.1-53.47-14.54c-12.86-4.76-13.12-36.07-.59-69.95s33.12-57.49,46-52.73c9.41,3.48,49.35,13.58,49.35,13.58S1896.46,2824.41,1893.1,2833.5Z" transform="translate(-422.57 -589.95)"/><g class="cls-8"><path class="cls-5" d="M1917.4,2763.66s-21,60.73-24.29,69.85c-8.76,23.62-16.94,53.8-16.94,53.8s-1-.28-2.67-.7c3-9.84,6.8-21.67,10.69-32.15,3.37-9.11,24.33-69.87,24.33-69.87s-40-10.1-49.37-13.56c-10.41-3.88-26,11-38.19,34.87.39-1,.74-2.05,1.13-3.09,12.54-33.88,33.11-57.49,46-52.74C1877.49,2753.54,1917.4,2763.66,1917.4,2763.66Z" transform="translate(-422.57 -589.95)"/></g><g class="cls-6"><path class="cls-3" d="M1889.15,2844.83c-7.14,20.94-13,42.48-13,42.48s-49.58-13.14-53.48-14.57c-12.84-4.75-13.11-36-.6-69.93a152.65,152.65,0,0,1,14.84-30.1c-8.7,29.44-7.23,54.81,4.2,59C1844.22,2832.87,1876.13,2841.38,1889.15,2844.83Z" transform="translate(-422.57 -589.95)"/></g><path class="cls-3" d="M1876.17,2899.8a12.69,12.69,0,0,1-3.21-.42c-15.08-4-50.6-13.42-54.61-14.91-24-8.89-21-50.82-8-86,6.57-17.77,15.51-33.65,25.16-44.73,16.65-19.09,30.25-17.83,36.87-15.39,7.2,2.67,37.14,10.43,48.07,13.2a12.49,12.49,0,0,1,8.75,16.19c-.86,2.49-21,61-24.41,70.11-8.44,22.82-16.52,52.44-16.6,52.73A12.51,12.51,0,0,1,1876.17,2899.8Zm-48.58-38.6c4.23,1.29,21.65,6,39.89,10.86,3.24-11.12,8.43-28.12,13.89-42.9,2.33-6.29,13.47-38.46,19.81-56.78-12.43-3.23-29.92-7.92-36.83-10.37-4.73,1.1-19.34,14.88-30.52,45.13C1822.69,2837.24,1824.74,2857.17,1827.59,2861.2Zm65.51-27.7h0Z" transform="translate(-422.57 -589.95)"/><ellipse class="cls-7" cx="1896.11" cy="2825.23" rx="65.4" ry="33.04" transform="translate(-1834.06 3033.39) rotate(-69.7)"/><g class="cls-8"><path class="cls-5" d="M1927.09,2836.68c-.84,2.22-1.7,4.36-2.62,6.45,5.79-27,.78-50.15-13.33-55.39-16-5.92-38.08,13.23-51.12,43.45a133.32,133.32,0,0,1,5.09-17.42c12.54-33.87,36.58-56.23,53.68-49.88S1939.63,2802.81,1927.09,2836.68Z" transform="translate(-422.57 -589.95)"/></g><g class="cls-6"><path class="cls-3" d="M1926,2839.56c-12.77,32.27-35.92,53.13-52.56,47-17.1-6.32-20.8-38.91-8.29-72.79,6.56-17.71,16.23-32.26,26.44-41.22-.37.93-.74,1.87-1.08,2.81-12.51,33.89-8.81,66.47,8.33,72.8C1906.93,2851.19,1916.65,2847.68,1926,2839.56Z" transform="translate(-422.57 -589.95)"/></g><path class="cls-3" d="M1879.6,2900.17a30.12,30.12,0,0,1-10.52-1.88c-24.35-9-31.09-47.21-15.68-88.86,6.73-18.19,16.79-34.11,28.34-44.84,13.77-12.8,28.47-17.21,41.4-12.43,24.35,9,31.09,47.21,15.68,88.87-6.73,18.18-16.79,34.1-28.34,44.83C1900.34,2895.29,1889.68,2900.17,1879.6,2900.17Zm33.06-124.86c-3.55,0-8.74,2.79-13.91,7.59-8.6,8-16.59,20.83-21.9,35.2s-7.61,29.31-6.28,41c1,8.31,3.77,14.5,7.18,15.76s9.59-1.6,15.72-7.29c8.6-8,16.59-20.83,21.9-35.2s7.61-29.31,6.28-41c-1-8.31-3.77-14.5-7.18-15.76A5.21,5.21,0,0,0,1912.66,2775.31Z" transform="translate(-422.57 -589.95)"/><path class="cls-3" d="M1657,2969.69A12.5,12.5,0,0,1,1646.2,2951l59.41-103.46-28.42-25.44a12.5,12.5,0,0,1-3.14-14.27l53-122.73A12.49,12.49,0,1,1,1750,2695l-49.46,114.47,29.26,26.19a12.5,12.5,0,0,1,2.51,15.54l-64.46,112.24A12.48,12.48,0,0,1,1657,2969.69Z" transform="translate(-422.57 -589.95)"/><path class="cls-3" d="M869.86,3150.79a14.9,14.9,0,0,1-10.67-4.46c-32.53-32.92-51.08-77.42-55.13-132.23-3.16-42.59,2.43-91.53,16.61-145.47,23.88-90.85,63.47-163.94,65.14-167A15,15,0,1,1,912.14,2716c-.5.92-39.73,73.51-62.59,160.8-20.51,78.28-31.77,184.92,31,248.46a15,15,0,0,1-10.67,25.54Z" transform="translate(-422.57 -589.95)"/><path class="cls-3" d="M2361,2492q-.53,0-1.05,0c-82.74-5.74-141.21-58.49-169.06-152.55-20.32-68.58-17.16-134.45-17-137.22a15,15,0,0,1,30,1.56c-.06,1.08-2.94,64.33,16,127.8,24.4,81.73,72.23,125.63,142.18,130.48a15,15,0,0,1-1,30Z" transform="translate(-422.57 -589.95)"/><path class="cls-3" d="M2766.38,2073.39c-2.42,1.78-5,3.38-7.5,5-1.26.81-2.61,1.48-3.94,2.18s-2.68,1.36-4,2c-2.68,1.39-5.51,2.41-8.28,3.56s-5.64,2-8.49,2.92c-11.41,3.55-23,5.18-34,6.53s-21.54,2.4-32.08,4.14-21.08,4.14-32,7h0A2.2,2.2,0,0,1,2634,2103a129.34,129.34,0,0,1,28.24-20.17c10.29-5.54,21.19-9.81,31.63-13.61s20.33-7.41,29.78-11c2.34-1,4.76-1.74,7.05-2.75l3.5-1.39,1.77-.66c.58-.25,1.15-.51,1.73-.74,2.31-1,4.68-1.84,7-2.81s4.7-1.91,7.17-2.69l1.08-.34a15.09,15.09,0,0,1,13.45,26.58Z" transform="translate(-422.57 -589.95)"/><path class="cls-3" d="M2664.52,1971.36l-1.06,1.76c-.31.5-.62,1-.94,1.48-.62.92-1.27,1.86-1.93,2.73-1.29,1.78-2.68,3.42-4.07,5.05a106.88,106.88,0,0,1-8.93,9,165.13,165.13,0,0,1-20,15.08c-7,4.61-14.15,8.84-21.53,12.77-3.72,1.92-7.47,3.8-11.3,5.55-1.93.87-3.87,1.71-5.84,2.51s-3.94,1.59-6,2.31a2.27,2.27,0,0,1-2.72-3.29l0,0q1.65-2.77,3.41-5.39c1.15-1.77,2.33-3.5,3.53-5.21,2.37-3.44,4.81-6.77,7.27-10.06,4.89-6.61,9.92-13,14.93-19.25s10-12.48,15.32-18.19c2.64-2.88,5.31-5.67,8.08-8.31,1.37-1.32,2.76-2.62,4.16-3.85.72-.62,1.39-1.22,2.11-1.8.33-.29.68-.56,1-.84l.49-.36.24-.17a.3.3,0,0,1,.14,0l7.19-2.26a14.17,14.17,0,0,1,16.39,20.81Z" transform="translate(-422.57 -589.95)"/><path class="cls-5" d="M1054.52,2640.23c70.15,227.66,434.33,264.4,469.1,147.4,11.76-39.59-20.26-64.41-20.26-64.41s-308.43,1.26-389.33-192.46C1114,2530.76,1030.2,2561.31,1054.52,2640.23Z" transform="translate(-422.57 -589.95)"/><g class="cls-6"><path class="cls-3" d="M1054.52,2640.21c70.17,227.67,434.35,264.42,469.12,147.41a57.58,57.58,0,0,0-2-39.55c-71.83,116.14-429.61,33.21-448.19-178.92-.28-3.24-1.77-6.16-2.39-9.11C1055.13,2577.64,1043.3,2603.76,1054.52,2640.21Z" transform="translate(-422.57 -589.95)"/></g><path class="cls-3" d="M1384.5,2869.42c-67.69,0-141-19.49-201.51-53.58-72.89-41.1-122.91-100.1-144.65-170.63-15.08-48.93,5.27-82.16,25-101.42a139.76,139.76,0,0,1,44.91-28.93,16.91,16.91,0,0,1,21.41,9.38c31.37,75.1,103.07,128.55,213.12,158.87,84.06,23.15,159.77,23.21,160.53,23.18h0a16.93,16.93,0,0,1,10.38,3.55c1.68,1.3,41,32.49,26.12,82.61-14.2,47.78-71.61,76.55-153.58,77ZM1106,2553.62a101,101,0,0,0-19.65,15.06c-18.58,18.57-23.69,40.34-15.61,66.56,40.18,130.37,191.29,200.32,313.79,200.32h1.62c65.25-.33,111.72-20.54,121.3-52.75,6.19-20.85-4.69-36.16-10.81-42.75-21.11-.5-87.59-3.7-162-24.1-52.42-14.36-97.84-34.33-135-59.36C1157.74,2628.46,1126.33,2593.88,1106,2553.62Z" transform="translate(-422.57 -589.95)"/><path class="cls-5" d="M488,2452.49s-4.26,28.6,12,50.32c8.16,10.85,21.33,22.37,37.16,33.73a520,520,0,0,0,46.72,29.39c36.49,20.53,75,37.87,97.73,46.24,47.78,17.62,102.22,26.6,159,28.38C918.1,2643,1000,2632,1075.22,2611.3c70.72-19.43,135.58-47.43,185.35-80.87l35.39-52.35,48.36-71.53,171.2-253.15,38.89-57.5c-1.7,1-39.44,22.49-99.28,52.09q-8.57,4.23-17.67,8.65c-68,33-159.51,73.72-257.66,107.11-152.84,52-321.85,86.33-443.58,46-141.77-47-208.72-81.39-244.2-43.9-36,38,7.36,88.75,7.36,88.75s-31.3,22.24-31.5,54.45C467.68,2434.58,488,2452.49,488,2452.49Z" transform="translate(-422.57 -589.95)"/><g class="cls-2"><path class="cls-3" d="M681.37,2415.83s1.32,8.14,7.76,20.78C685,2424.07,681.37,2415.83,681.37,2415.83Z" transform="translate(-422.57 -589.95)"/></g><g class="cls-2"><path class="cls-3" d="M537.12,2536.54a520,520,0,0,0,46.72,29.39c36.49,20.53,75,37.87,97.73,46.24,47.78,17.62,102.22,26.6,159,28.38C918.1,2643,1000,2632,1075.22,2611.3c70.72-19.43,135.58-47.43,185.35-80.87h0c11.11-16.44-5-37.58-23.81-31.17-96.66,33-255,79.39-336.85,61.75-144.89-31.26-194.37-92.35-210.78-124.4,12,36.13,28,108-27.35,120.79C640.59,2562.32,576,2552.93,537.12,2536.54Z" transform="translate(-422.57 -589.95)"/></g><path class="cls-3" d="M1557.24,2100.75c-5,4.33-10,8.35-15.15,12.26s-10.37,7.67-15.65,11.34q-15.87,11-32.34,20.88c-21.94,13.24-44.65,25.05-67.54,36.48-45.78,22.89-93.19,42.36-140.88,61-23.87,9.26-47.79,18.44-71.92,27.1s-48.44,16.84-73,24.45c-49.06,15.17-99,28.11-149.87,37.29-25.44,4.58-51.13,8.2-77.06,10.37a617.77,617.77,0,0,1-78.35,1.93l-9.85-.59-4.93-.3c-1.64-.12-3.28-.29-4.92-.44l-9.86-.92c-3.28-.34-6.56-.82-9.85-1.23-6.57-.75-13.11-2-19.66-3-1.64-.26-3.27-.6-4.9-1l-4.89-1-4.89-1c-.82-.17-1.63-.33-2.45-.52l-2.43-.62-9.72-2.49c-.8-.22-1.62-.4-2.42-.64l-2.41-.73-4.82-1.47c-6.57-1.94-12.46-4-18.54-6q-18.15-6.12-36.22-12.38c-24.06-8.32-48-16.88-71.82-24.75-11.9-3.91-23.78-7.66-35.54-10.8-2.93-.77-5.87-1.56-8.79-2.23s-5.81-1.31-8.71-1.93A157.55,157.55,0,0,0,541,2267.2a76.43,76.43,0,0,0-15.47.11A37.07,37.07,0,0,0,513,2271a32.87,32.87,0,0,0-9.77,7.84,35.1,35.1,0,0,0-6.6,10.89,34.16,34.16,0,0,0-1.88,12.47,52.05,52.05,0,0,0,2.57,14,82.38,82.38,0,0,0,6.32,14.39c1.31,2.36,2.73,4.69,4.23,6.94.75,1.13,1.52,2.23,2.3,3.3.39.53.79,1.06,1.17,1.55l1,1.22,11.06,13.94-14.12,10.86-.76.59-1.07.86c-.72.6-1.46,1.22-2.18,1.88-1.45,1.3-2.88,2.68-4.24,4.1a74.4,74.4,0,0,0-7.39,8.94c-4.33,6.21-7.27,12.77-8.29,19.12-.12.79-.25,1.58-.3,2.37s-.11,1.58-.14,2.37a6.52,6.52,0,0,0,0,1.17l.06,1.16,0,1.16c0,.39.11.78.16,1.17.14.78.15,1.56.35,2.35s.37,1.56.53,2.35a46.64,46.64,0,0,0,1.63,4.74,50.13,50.13,0,0,0,5.07,9.3l.78,1.13.83,1.09c.53.74,1.13,1.43,1.7,2.14s1.18,1.38,1.77,2c.3.32.59.62.87.89l.39.39c.1.09.29.27.15.15l5.54,15.17v0s0,0,0,0l0,.24c0,.15,0,.33-.05.55,0,.4-.08.79-.1,1.23-.06.85-.09,1.74-.11,2.64s0,1.81,0,2.71l.11,2.72a62.21,62.21,0,0,0,1.51,10.61c.34,1.73.89,3.34,1.36,5s1.12,3.18,1.86,4.63a43.19,43.19,0,0,0,2.22,4.28c.4.69.88,1.3,1.31,2l.64,1c.21.33.55.7.82,1.05a119.11,119.11,0,0,0,16.62,16.75c6.36,5.38,13.22,10.52,20.32,15.46,14.21,9.87,29.36,18.95,44.8,27.53s31.33,16.62,47.38,24.17q12,5.65,24.22,10.86c4.05,1.72,8.11,3.4,12.16,5s8,3.12,12.17,4.49,8.18,2.85,12.3,4.18l12.5,3.68,3.13.92,3.17.79,6.34,1.58,6.34,1.59c2.12.52,4.27.91,6.4,1.37,34.15,7.44,69.34,10.9,104.62,11.83,8.83.05,17.66.3,26.51,0l6.63-.12c2.21,0,4.42-.06,6.63-.18l13.26-.59c17.68-1,35.36-2.42,52.95-4.67a831.22,831.22,0,0,0,104.57-19.65c17.17-4.47,34.18-9.55,50.84-15.55l3.14-1.08,3.11-1.16,6.21-2.32c4.14-1.56,8.31-3,12.4-4.7s8.23-3.2,12.36-4.75,8.18-3.29,12.3-4.86c2.05-.81,4.13-1.57,6.17-2.4l6.12-2.48,6.15-2.42,3.09-1.2,3.05-1.27c4.06-1.69,8.15-3.35,12.27-5s8.16-3.36,12.29-5,8.22-3.3,12.39-4.87c2.07-.81,4.15-1.61,6.26-2.37,1.06-.37,2.08-.8,3.12-1.22l3.13-1.21c2.08-.81,4.2-1.58,6.32-2.35,1-.4,2.14-.76,3.2-1.13s2.11-.81,3.19-1.18c4.23-1.59,8.57-3.08,13.07-4.39l.24-.07a5.85,5.85,0,0,1,6.06,9.43c-3.11,3.6-6.38,7-9.75,10.35-1.66,1.7-3.43,3.24-5.18,4.8s-3.54,3.09-5.35,4.59c-3.57,3.1-7.3,5.91-11.09,8.65s-7.58,5.54-11.54,8-7.9,5-11.92,7.36-8.15,4.5-12.27,6.68l-3.09,1.65c-1,.53-2.08,1-3.13,1.54l-6.28,3-6.31,3c-2.1,1-4.26,1.87-6.39,2.8-17,7.54-34.67,13.35-52.35,18.85l-13.31,4c-4.43,1.32-8.91,2.49-13.36,3.74l-6.67,1.89c-2.22.62-4.47,1.18-6.7,1.79l-13.39,3.57a863.11,863.11,0,0,1-108.87,20.47c-18.33,2.33-36.79,3.81-55.26,4.87l-13.88.61c-2.31.13-4.63.16-6.94.2l-6.95.12c-9.26.27-18.55,0-27.82,0-37.11-1-74.33-4.6-111-12.58-2.3-.5-4.6-.92-6.88-1.48l-6.84-1.7-6.83-1.72-3.42-.85-3.39-1-13.56-4c-4.49-1.45-9-3-13.42-4.55s-9-3.19-13.31-4.92-8.69-3.51-13-5.33c-8.56-3.64-17-7.44-25.36-11.37-16.72-7.86-33.19-16.2-49.4-25.2s-32.18-18.56-47.72-29.35c-7.77-5.41-15.43-11.13-22.89-17.44a150.42,150.42,0,0,1-21.49-21.84c-.42-.55-.84-1-1.27-1.64l-1.26-1.83c-.82-1.23-1.69-2.44-2.44-3.7a80.61,80.61,0,0,1-4.05-7.75,85.66,85.66,0,0,1-3.18-8c-.81-2.69-1.68-5.39-2.24-8.1a95.91,95.91,0,0,1-2.31-16.26l-.15-4.06c0-1.36,0-2.71,0-4.08s.09-2.74.19-4.15c0-.68.1-1.42.17-2.15,0-.35.07-.73.11-1.14l.07-.6.11-.83,5.54,15.17c-.58-.52-.81-.75-1.15-1.06l-.88-.87c-.57-.57-1.1-1.12-1.62-1.67-1.06-1.11-2-2.21-3-3.34s-1.89-2.26-2.75-3.44L466,2453l-1.26-1.81a83.47,83.47,0,0,1-8.54-15.73,79.31,79.31,0,0,1-3-8.77l-1.05-4.6c-.35-1.54-.5-3.14-.73-4.71-.1-.79-.22-1.58-.29-2.37l-.12-2.41-.09-2.4c0-.81-.05-1.61,0-2.4,0-1.59.11-3.18.28-4.76s.36-3.14.61-4.7a73.67,73.67,0,0,1,5.28-17.67,90,90,0,0,1,8.64-15.31,108.69,108.69,0,0,1,10.77-13.06c1.94-2,3.94-3.95,6-5.82,1-.94,2.11-1.86,3.22-2.78l1.71-1.38.92-.71,1.16-.86-3.06,24.8-1.11-1.35-.91-1.16c-.59-.76-1.14-1.5-1.69-2.25-1.09-1.5-2.15-3-3.15-4.51-2-3-3.91-6.14-5.69-9.33a116.52,116.52,0,0,1-9-20.46,85.9,85.9,0,0,1-4.17-23.36,67.87,67.87,0,0,1,3.89-25,68.82,68.82,0,0,1,12.88-21.61,67,67,0,0,1,19.84-15.73,70.89,70.89,0,0,1,23.8-7.13,110.34,110.34,0,0,1,22.57-.25c14.34,1.3,27.5,4.34,40.3,7.73s25.15,7.33,37.38,11.35c24.45,8.08,48.36,16.63,72.32,24.91q18,6.23,35.91,12.28c6,2,12.09,4.1,17.71,5.74l4.3,1.31,2.14.66c.72.21,1.46.38,2.18.57l8.75,2.24,2.18.56c.73.17,1.48.31,2.22.47l4.43.93,4.43.94c1.48.32,2.95.63,4.46.86,6,1,11.93,2.11,18,2.79,3,.37,6,.82,9.06,1.13l9.12.85c1.52.14,3,.3,4.56.42l4.58.27,9.17.55a584.39,584.39,0,0,0,74-1.84c24.71-2.06,49.4-5.54,74-10,49.14-8.86,97.8-21.46,145.82-36.31q36-11.16,71.56-24c23.7-8.51,47.28-17.44,70.57-27.08l17.45-7.29,17.37-7.5c11.55-5.07,23.08-10.17,34.56-15.4l68.9-31.31c23-10.38,45.88-21.06,69.17-31q17.48-7.44,35.23-14.41c5.93-2.3,11.88-4.58,17.89-6.76s12.07-4.31,18.16-6.26l.07,0a5.75,5.75,0,0,1,5.54,9.81Z" transform="translate(-422.57 -589.95)"/><path class="cls-5" d="M2373.12,2004.36c-390.42,807.54-1531,305.49-1240.88-508.16C1512.28,660.09,2690.76,1180.16,2373.12,2004.36Z" transform="translate(-422.57 -589.95)"/><path class="cls-5" d="M2373.12,2004.36c-390.42,807.54-1531,305.49-1240.88-508.16C1512.28,660.09,2690.76,1180.16,2373.12,2004.36Z" transform="translate(-422.57 -589.95)"/><g class="cls-2"><path class="cls-3" d="M1159.66,2259.75a685.32,685.32,0,0,0,127.92,118.91q19.2,13.71,39.26,26.2c158.17,98.14,354.73,133.88,537.73,83.47a620.19,620.19,0,0,0,165-72.54q5.09-66,5.14-140.17-.08-38.82-1.56-79.95l-532.34-48.05,39.52-58.43c-1.73,1-40.07,22.86-100.88,52.94l-15.31-1.4c-.86,3.42-1.73,6.8-2.64,10.19C1352.39,2184.43,1259.4,2225.83,1159.66,2259.75Z" transform="translate(-422.57 -589.95)"/></g><path class="cls-5" d="M2373.12,2004.36c-390.42,807.54-1531,305.49-1240.88-508.16C1512.28,660.09,2690.76,1180.16,2373.12,2004.36Z" transform="translate(-422.57 -589.95)"/><path class="cls-3" d="M1767.39,2426.26c-91.13,0-183.44-18.54-271.5-55.4A715.82,715.82,0,0,1,1288,2238.24c-62.8-57.54-113.08-124.45-149.45-198.87-80.57-164.89-86.75-354.14-17.89-547.28l.39-1c89.21-196.27,229-332.91,404.33-395.15,78.79-28,162.33-40.13,248.29-36.11,82.67,3.86,164.19,22.42,242.28,55.19a720,720,0,0,1,210.79,135.15c63.6,58.72,114.15,126.9,150.25,202.65,80.22,168.31,82.83,360.54,7.54,555.91l-.4.93c-91.76,189.79-231.73,321.67-404.78,381.38A649.31,649.31,0,0,1,1767.39,2426.26Zm-623.77-925.45c-148.15,416.21,83.61,731,361.74,847.43,82.85,34.68,173.42,54.05,265,54.05,223,0,452.09-114.8,591.52-402.81,162.23-421.62-70.44-742.27-355.36-861.81C1724.33,1019.3,1334,1082.47,1143.62,1500.81Zm1229.5,503.55h0Z" transform="translate(-422.57 -589.95)"/><g class="cls-2"><path class="cls-3" d="M2373.11,2004.34C2048,2707.7,1046.67,2436.28,1087.18,1692.66c64.92,234,147.94,236.42,283.93,346.64,419.59,364,998.55,19.32,1033.17-468C2442.94,1717.24,2430.17,1869.59,2373.11,2004.34Z" transform="translate(-422.57 -589.95)"/></g><path class="cls-9" d="M1767.39,2431.2c-91.78,0-184.74-18.67-273.41-55.79a720.32,720.32,0,0,1-209.28-133.53c-63.26-58-113.92-125.36-150.55-200.34-81.17-166.12-87.43-356.69-18.11-551.11l.24-.69.3-.65c89.78-197.52,230.58-335.06,407.18-397.76,79.4-28.19,163.57-40.44,250.17-36.4,83.25,3.89,165.33,22.59,244,55.58a725.12,725.12,0,0,1,212.24,136.07c64,59.15,115,127.84,151.35,204.15,80.82,169.57,83.48,363.15,7.69,559.81l-.26.67-.31.64c-92.34,191-233.29,323.75-407.61,383.9A654.25,654.25,0,0,1,1767.39,2431.2ZM1148.2,1502.66c-146.91,413.07,83.07,725.5,359.06,841,282.47,118.23,654.77,57,850.06-346.17,160.88-418.43-70-736.66-352.73-855.28C1724.6,1024.76,1337.29,1087.52,1148.2,1502.66Zm1224.92,501.7h0Z" transform="translate(-422.57 -589.95)"/><path class="cls-3" d="M1767.39,2431.2c-91.78,0-184.74-18.67-273.41-55.79a720.32,720.32,0,0,1-209.28-133.53c-63.26-58-113.92-125.36-150.55-200.34-81.17-166.12-87.43-356.69-18.11-551.11l.24-.69.3-.65c89.78-197.52,230.58-335.06,407.18-397.76,79.4-28.19,163.57-40.44,250.17-36.4,83.25,3.89,165.33,22.59,244,55.58a725.12,725.12,0,0,1,212.24,136.07c64,59.15,115,127.84,151.35,204.15,80.82,169.57,83.48,363.15,7.69,559.81l-.26.67-.31.64c-92.34,191-233.29,323.75-407.61,383.9A654.25,654.25,0,0,1,1767.39,2431.2ZM1148.2,1502.66c-146.91,413.07,83.07,725.5,359.06,841,282.47,118.23,654.77,57,850.06-346.17,160.88-418.43-70-736.66-352.73-855.28C1724.6,1024.76,1337.29,1087.52,1148.2,1502.66Zm1224.92,501.7h0Z" transform="translate(-422.57 -589.95)"/><path class="cls-3" d="M2286.41,2152.69c-614.14,493-1297.06-208.13-853.45-736C1965.76,855.68,2747.33,1497.48,2286.41,2152.69Z" transform="translate(-422.57 -589.95)"/><path class="cls-10" d="M2399.24,1665.19c104.59,704-894.42,908.12-1095.68,280.14C1681.07,2277.94,2259.62,2033.33,2399.24,1665.19Z" transform="translate(-422.57 -589.95)"/><path class="cls-3" d="M1833,2405.23a612.08,612.08,0,0,1-192.85-31.59,647,647,0,0,1-193.65-103.39,629.53,629.53,0,0,1-149.27-165,602.27,602.27,0,0,1-82.39-215.92c-14.31-82.22-11.91-168.07,7.12-255.15l.1-.43c21.89-89.1,63.37-172.09,123.3-246.64,56.53-70.33,129.21-131.47,210.2-176.82,81.22-45.48,171.67-75.56,261.57-87,95.48-12.14,188.63-4,276.88,24.15l1.39.45,1.3.67c148.86,77.29,260.16,213.52,313.39,383.59,50.28,160.62,42.54,335.27-21.23,479.17l-.05.12c-39.29,86.86-89.16,161.28-148.24,221.18-55.28,56.06-118.44,99.31-187.72,128.57a560.94,560.94,0,0,1-206.89,43.89Q1839.46,2405.24,1833,2405.23ZM1255.5,1641.75c-75.93,347.9,141.44,615.08,395.45,699.24,221.06,73.24,538.7,27.2,706.46-343.63,117.18-264.51,34.45-655.78-275.28-817.58-163.12-51.61-348.84-29.58-509.78,60.53C1411.61,1330.32,1296.13,1476.62,1255.5,1641.75Zm1117.62,362.61h0Z" transform="translate(-422.57 -589.95)"/><path class="cls-3" d="M1850.35,2337.39q-16.74,0-33.45-.94a581.83,581.83,0,0,1-384.18-174.54c-94.2-96.34-150.31-220.6-158-349.89-8.5-142.8,41.67-283.32,145.08-406.37l.7-.78c126-132.66,274.76-208.36,430.25-218.89,139.78-9.47,277.11,34.73,386.66,124.48,112.1,91.83,183.7,221.71,201.61,365.73,20,160.92-27.89,329.11-138.53,486.39l-1.4,2-1.9,1.52C2157.06,2278.57,2003.26,2337.39,1850.35,2337.39Zm-404.56-909.21c-217.73,259.43-151.12,543.33,11.53,709.68,179.13,183.22,500.84,254.92,816.42,2.94,231-330.23,132-648-58.14-803.73C2024.39,1180.43,1712.26,1147.9,1445.79,1428.18Zm840.62,724.51h0Z" transform="translate(-422.57 -589.95)"/><path class="cls-5" d="M1023.13,1987.34c87.16,304,399.2,242.26,345.25-56.37C1288.73,1609,955.16,1675,1023.13,1987.34Z" transform="translate(-422.57 -589.95)"/><g class="cls-2"><path class="cls-3" d="M1252.14,2185.56c93.67-17.83,146.81-142.2,112.59-270.11-41,144.36-214.59-61.46-233.32-124.6C897.3,1884.54,1080.79,2222,1252.14,2185.56Z" transform="translate(-422.57 -589.95)"/></g><path class="cls-3" d="M1224,2204.57c-37.58,0-75.51-13.5-109.64-39.47-48.69-37.06-86-96.89-107.79-173l-.27-1.08c-16.2-74.43-11.5-141.3,13.58-193.38,23.15-48.06,62.18-80.64,109.9-91.73a159.36,159.36,0,0,1,75.26.94c26,6.46,50.74,18.92,73.59,37,49.76,39.44,86.56,102.72,106.42,183l.23,1.07c12.89,71.37,6.45,135.26-18.64,184.78-23.26,45.92-61.38,77.11-107.34,87.82A155,155,0,0,1,1224,2204.57Zm-184.21-221.43c43.24,150.16,140,200.57,211.7,183.87,35.88-8.36,65.88-33.17,84.46-69.86,21.62-42.66,27-98.87,15.57-162.58-18-72.56-50.62-129.18-94.26-163.76-37.27-29.53-79.78-40.69-119.7-31.41-37.36,8.68-68.14,34.66-86.68,73.15C1029.24,1857.52,1025.41,1916.5,1039.82,1983.14Z" transform="translate(-422.57 -589.95)"/><path class="cls-5" d="M1013.26,2006.26c70.89,246.3,305.44,204,261.84-37.57C1211.06,1704.53,956.21,1750.81,1013.26,2006.26Z" transform="translate(-422.57 -589.95)"/><path class="cls-3" d="M1171.46,2188.89c-30.26,0-61-11.83-88.83-34.54-38.18-31.19-67.89-80.75-85.9-143.33l-.26-1c-13.6-60.93-11.11-115.47,7.2-157.72,17.23-39.75,47.35-66.44,84.8-75.16,39.34-9.16,82.59,3.3,118.66,34.18,39.23,33.6,68.51,86.62,84.69,153.33l.21,1c10.44,57.82,6.24,109.37-12.13,149.06-17.38,37.56-46.65,62.85-82.42,71.2A114.35,114.35,0,0,1,1171.46,2188.89ZM1029.94,2002c16.07,55.58,41.81,99,74.45,125.7,27.38,22.37,57.67,31.14,85.27,24.69,48.23-11.26,88.09-71.33,68.61-180.15-30.19-123.84-104.3-175-162-161.62-26.58,6.19-48.26,25.84-61,55.34C1019.88,1901.4,1018.05,1948.43,1029.94,2002Z" transform="translate(-422.57 -589.95)"/><g class="cls-11"><path class="cls-5" d="M1410.85,1792.73c52.69,122.28,192.6,64.55,164.87-48.83C1532.67,1602.88,1366.68,1668.25,1410.85,1792.73Z" transform="translate(-422.57 -589.95)"/></g><g class="cls-11"><path class="cls-5" d="M1514.41,1982c22.86,45.6,84.53,21.53,64.29-30.31C1555.85,1906.05,1494.18,1930.11,1514.41,1982Z" transform="translate(-422.57 -589.95)"/></g><g class="cls-11"><path class="cls-5" d="M2336.7,1729.43c22.06-508.27-502-508.5-645.27-383.33C2025,1327.54,2196.94,1513.5,2336.7,1729.43Z" transform="translate(-422.57 -589.95)"/></g><g class="cls-2"><path class="cls-3" d="M1294.91,2024.08c.1-36-9.7-72.26-26.41-104.39-23.52,175.6-203.92,122-258.86,5.06C1003.41,2180.87,1273.68,2266.31,1294.91,2024.08Z" transform="translate(-422.57 -589.95)"/></g><path class="cls-3" d="M1322.33,1745.33c-7.89,0-17.54-2.42-29.08-9.2a17.2,17.2,0,0,1,17.44-29.66c7.39,4.35,10.89,4.51,11.71,4.48,1.1-1.15,3.81-6.33,4.55-18.44a117.18,117.18,0,0,0-.45-18.59,17.2,17.2,0,1,1,34.14-4.23,149.19,149.19,0,0,1,.58,25.9c-1.49,21.58-8.24,36.46-20.06,44.23A33.76,33.76,0,0,1,1322.33,1745.33Z" transform="translate(-422.57 -589.95)"/><path class="cls-5" d="M760.3,2324.88c-104.75-29.85-186.22-24.54-196.42,3.35-7.48,20.44-1.14,53.55,41.73,67.78,29.27,9.72,71.31,7.91,71.31,7.91s21.82,65.54,56.9,92.06" transform="translate(-422.57 -589.95)"/><path class="cls-3" d="M755.67,2341.16c-28.77-7.71-57.9-14.07-87.09-17.33a308.23,308.23,0,0,0-43.35-2.18,182.16,182.16,0,0,0-20.74,1.73,75.42,75.42,0,0,0-18.07,4.73,32.85,32.85,0,0,0-3.41,1.69,18.07,18.07,0,0,0-2.53,1.72,9.74,9.74,0,0,0-1.41,1.39,1,1,0,0,0-.19.25.69.69,0,0,0-.15.21.62.62,0,0,0-.1.17s0,0-.07.11l-.15.42a31.38,31.38,0,0,0-1.59,15.07,33.66,33.66,0,0,0,5.75,14.71,44.71,44.71,0,0,0,12.51,11.93c10.33,6.84,23.64,10.67,37.82,13.07,7.08,1.2,14.34,2.08,21.66,2.66,3.66.3,7.34.52,11,.68,1.83.08,3.68.15,5.5.19l2.74,0,2.61,0,9,.06,2.42,7.79.93,3,1,3.11c.69,2.08,1.42,4.16,2.16,6.24,1.45,4.16,3,8.32,4.59,12.44q4.74,12.41,10.29,24.49A253.6,253.6,0,0,0,719,2473.1c.55,1,1.13,1.91,1.72,2.85s1.16,1.9,1.78,2.81l1.82,2.79,1.92,2.74a131.59,131.59,0,0,0,8.39,10.56l0,0a1.45,1.45,0,0,1-.12,2,1.43,1.43,0,0,1-1.6.2c-8.45-4.28-16-10.43-22.66-17.18a161.38,161.38,0,0,1-18-22.05c-1.35-1.95-2.65-3.93-3.94-5.91s-2.51-4-3.71-6c-2.45-4-4.69-8.19-6.9-12.35s-4.23-8.43-6.19-12.73c-1-2.15-1.91-4.32-2.83-6.51l-1.37-3.31c-.46-1.13-.87-2.17-1.34-3.47l11.39,7.84-3.13.18-3,.13c-2,.08-4,.13-6,.17-4,.07-8,.08-11.93,0-8-.16-16-.58-24-1.49a164.24,164.24,0,0,1-24.54-4.5,109,109,0,0,1-12.4-4.1,95.46,95.46,0,0,1-12.11-5.94,73.78,73.78,0,0,1-21.38-18.6A63,63,0,0,1,546,2339a58.76,58.76,0,0,1,2.87-15.13l.31-.94c.13-.36.31-.82.47-1.22.33-.84.69-1.66,1.09-2.44A24,24,0,0,1,552,2317c.43-.76.89-1.48,1.37-2.16a40.34,40.34,0,0,1,6.28-7.08,48.92,48.92,0,0,1,6.73-5,61.51,61.51,0,0,1,6.73-3.68A105.61,105.61,0,0,1,599,2291.1a184.37,184.37,0,0,1,24.91-2.79,331.14,331.14,0,0,1,48.31,1.49,509,509,0,0,1,92.73,18.8,16.93,16.93,0,0,1-9.2,32.58Z" transform="translate(-422.57 -589.95)"/><path class="cls-3" d="M979.37,2646.69a15,15,0,0,1-10.13-26.07c46-42.07,59.38-103.9,39.73-183.78-15.23-61.87-45.46-111.52-45.76-112a15,15,0,0,1,25.55-15.72c1.33,2.16,32.71,53.59,49.16,119.85,9.81,39.54,12.21,76.17,7.13,108.88-6.5,41.86-25.19,77.16-55.56,104.93A15,15,0,0,1,979.37,2646.69Z" transform="translate(-422.57 -589.95)"/><path class="cls-3" d="M509.85,2343.82c2.63,1.87,5.15,3.84,7.62,5.86s5,3.83,7.39,5.82c1.2,1,2.44,1.91,3.68,2.82l3.65,2.8c1.2,1,2.46,1.78,3.69,2.68s2.45,1.79,3.68,2.69c5,3.36,10.05,6.71,15.52,9.88,2.66,1.61,5.51,3.2,8.33,4.8l8.71,4.8a403.61,403.61,0,0,1,35.48,21.29q4.27,3,8.49,6c2.79,2,5.51,4.2,8.22,6.34l4.06,3.21c1.33,1.1,2.63,2.26,3.94,3.38q3.93,3.38,7.75,6.89a2.19,2.19,0,0,1-2.16,3.69l-.07,0c-6.56-2.12-12.86-4.64-19.26-6.84l-9.52-3.4q-4.78-1.62-9.5-3.29c-12.66-4.34-25.2-8.21-38.14-12.36-3.28-1.08-6.52-2.12-9.83-3.32l-5-1.8c-1.66-.56-3.34-1.34-5-2l-2.51-1c-.84-.34-1.67-.69-2.5-1.11l-5-2.39c-1.68-.76-3.28-1.71-4.91-2.61s-3.25-1.83-4.85-2.77-3.13-2-4.66-3.06l-2.31-1.56c-.78-.51-1.54-1-2.26-1.62-2.88-2.26-5.89-4.45-8.58-6.88-1.34-1.22-2.7-2.42-4-3.66s-2.68-2.45-3.88-3.76c-2.47-2.59-4.88-5.23-7.17-8a15.06,15.06,0,0,1,20.25-22Z" transform="translate(-422.57 -589.95)"/><path class="cls-3" d="M499.69,2443.14a61.74,61.74,0,0,0,8.94,6.11,79.76,79.76,0,0,0,11.15,5c8.46,3.09,18.66,6,29.29,9.49a248.63,248.63,0,0,1,31.08,12.84A217.21,217.21,0,0,1,609,2493.44a2.22,2.22,0,0,1-1.47,4h0c-11-1-21.85-2.33-32.53-3.6s-21.23-2.49-31.57-3.4-21.62-1.63-33.73-5.16a68.16,68.16,0,0,1-18.3-8.25,50,50,0,0,1-15.18-15.23,15.07,15.07,0,0,1,22.22-19.68Z" transform="translate(-422.57 -589.95)"/><path class="cls-3" d="M646.74,2703.83a264.47,264.47,0,0,0-3.1,41.39c.05,3.45,0,6.87.13,10.31l.43,10.26L645,2776c.11,1.7.32,3.39.53,5.08l.61,5.07.61,5.05.82,5c.58,3.34,1,6.67,1.71,10,1.45,6.6,2.67,13.18,4.56,19.61,3.23,13,7.93,25.42,12.82,37.54l.2.5a17,17,0,0,1-31.61,12.74,18.79,18.79,0,0,1-1-3.28c-2.68-14.57-4.93-29.06-5.55-43.6-.58-7.24-.46-14.5-.55-21.7,0-3.6.24-7.2.36-10.78l.22-5.37.44-5.36.44-5.34c.14-1.78.29-3.56.53-5.33l1.32-10.59,1.7-10.51c.57-3.49,1.34-7,2-10.42A268.71,268.71,0,0,1,646.74,2703.83Z" transform="translate(-422.57 -589.95)"/></svg>