<svg id="Layer_1" data-name="Layer 1" xmlns="http://www.w3.org/2000/svg" viewBox="0 0 2253.87 3048.07"><defs><style>.cls-1{fill:#fff;}.cls-2{opacity:0.25;}.cls-3{fill:#371a45;}.cls-4{opacity:0.35;}.cls-5{fill:#22a7f0;}.cls-6{opacity:0.5;}.cls-7{fill:#111a28;}</style></defs><title>time-cosmic</title><path class="cls-1" d="M2370.1,2668c-36.74-11.86-73.43-31.93-107.86-61.46-109.42-93.8-133-541.11-133-541.11l.5-.66,200.46-268.57s15.21,21.32,39.39,56.56c24.72,36.13,58.81,86.84,95.5,144.14C2550,2129.7,2648.69,2298,2676.66,2402.23,2727.37,2591.13,2547.33,2725.12,2370.1,2668Z" transform="translate(-810.12 -527.55)"/><g class="cls-2"><path class="cls-3" d="M2684.87,2480.32c-9.51,145.55-163.17,236.54-314.77,187.69-36.74-11.86-73.43-31.93-107.86-61.46-109.42-93.8-133-541.11-133-541.11l.5-.66,42-56.25c9.86,119.92,42.7,416,129.34,490.25,34.43,29.53,183.66,69.94,222.08,73.73C2618.38,2581.91,2628.11,2558.2,2684.87,2480.32Z" transform="translate(-810.12 -527.55)"/></g><path class="cls-3" d="M2453.14,2699.31c-65.67,0-137.46-22.6-202.94-78.72-114.13-97.83-138.42-535.61-139.4-554.2a18.49,18.49,0,0,1,36.92-1.95c6.44,122.24,41.74,455.39,126.54,528.08,112.11,96.1,232.59,79.37,301.68,35.85,75.06-47.28,106.82-132.09,82.89-221.33-50.36-187.75-340.75-596-343.68-600.12a18.48,18.48,0,1,1,30.09-21.47c12.11,17,297.2,417.83,349.29,612,28.29,105.48-9.6,205.94-98.89,262.18C2556.86,2684.08,2507.06,2699.31,2453.14,2699.31Z" transform="translate(-810.12 -527.55)"/><path class="cls-3" d="M2320.74,2329.41a18.48,18.48,0,0,1-7.79-35.25c7.89-3.67,194.73-89.07,316.91-41.47a18.48,18.48,0,1,1-13.41,34.44c-107.48-41.86-286.17,39.74-288,40.57A18.42,18.42,0,0,1,2320.74,2329.41Z" transform="translate(-810.12 -527.55)"/><circle class="cls-1" cx="2437.88" cy="2391.68" r="80.76" transform="translate(-1787.26 1896.8) rotate(-45)"/><g class="cls-4"><path class="cls-3" d="M2518.6,2393.64a80.77,80.77,0,1,1-161.49-3.93,79.87,79.87,0,0,1,8.61-34.33,80.76,80.76,0,0,0,146,3.55A79.87,79.87,0,0,1,2518.6,2393.64Z" transform="translate(-810.12 -527.55)"/></g><path class="cls-3" d="M2437.94,2490.93c-.83,0-1.65,0-2.48,0a99.18,99.18,0,1,1,2.48,0Zm-.08-161.53a62.28,62.28,0,0,0-1.5,124.55h1.54a62.28,62.28,0,0,0,1.49-124.54Z" transform="translate(-810.12 -527.55)"/><path class="cls-1" d="M2559.44,2532.42l-36.28,40.09-72.38,80c-39.89-.05-62.06-46.49-73.78-104.35-16.66-82.19-12.21-187.4-7.5-215.38,5.95-34.93,59.71-80.53,118.37-45.95C2572.66,2336.87,2559.44,2532.42,2559.44,2532.42Z" transform="translate(-810.12 -527.55)"/><g class="cls-2"><path class="cls-3" d="M2523.16,2572.51l-72.38,80c-39.89-.05-62.06-46.49-73.78-104.35C2403.48,2566.6,2451.23,2587,2523.16,2572.51Z" transform="translate(-810.12 -527.55)"/></g><path class="cls-3" d="M2556.38,2532.2c-5-31.91-9.51-63.29-15.55-93.81-6.29-30.35-13.38-60.4-25.45-86.66-6-13-13.1-25.17-21.85-34.71a77.58,77.58,0,0,0-6.85-6.63c-1.21-1-2.32-2.16-3.59-3l-3.78-2.64c-2.48-1.82-5.56-3-8.29-4.67a20.51,20.51,0,0,0-4.31-1.9l-4.35-1.67c-11.67-4.15-24-3.76-35.54,0-11.72,3.45-22.29,11.62-29.91,21.19a52.16,52.16,0,0,0-7.91,15c-.23,1.18-.53,2.26-.85,3.49l-.68,5.16c-.41,3.62-.74,7.38-1,11.18-1,15.29-1.37,31-1.37,46.6.17,31.29,1.44,62.63,4.13,93.56q2,23.2,5.42,46c2.37,15.13,5.44,30,9.19,44.41s8.51,28.21,15.39,40.24a60.45,60.45,0,0,0,12.61,16c5.11,4.67,11.49,7.66,19,10.2l.44.15a3.11,3.11,0,0,1-.45,6c-2.12.37-4.31.64-6.54.92-1.12.11-2.27.32-3.39.32l-3.38-.27a63,63,0,0,1-6.92-.81l-6.72-2.06a67.16,67.16,0,0,1-23.36-15.18c-13.28-12.91-22-28.65-28.77-44.41s-11.08-32.18-14.62-48.48a473.35,473.35,0,0,1-8-49,702.09,702.09,0,0,1-3.57-98.14c.49-16.37,1.36-32.67,2.92-49.27.4-4.16.83-8.36,1.4-12.68.26-2.14.67-4.49,1-6.72.59-2.66,1.31-5.46,2-8.16a89.49,89.49,0,0,1,14.63-27.08,107.64,107.64,0,0,1,21.33-20,130.61,130.61,0,0,1,12.42-7.71c4.47-2.06,8.78-4.43,13.57-5.82,2.35-.77,4.69-1.6,7.08-2.28l7.32-1.51c4.86-1.22,9.93-1.12,14.91-1.56a143.64,143.64,0,0,1,14.95.89c4.82,1,9.85,1.63,14.5,3.14l7,2.34a41.69,41.69,0,0,1,6.75,2.7c4.29,2.2,8.71,4,12.84,6.66l6.2,4c2.06,1.35,3.85,3,5.78,4.46a104.11,104.11,0,0,1,10.61,9.79c13.23,13.8,22.27,29.86,29.22,46a237.35,237.35,0,0,1,8.73,24.55c2.26,8.27,4.29,16.54,5.9,24.82a316.32,316.32,0,0,1,5.54,49.72,365.06,365.06,0,0,1-1.32,49.31,289.11,289.11,0,0,1-8.24,48.52,3.14,3.14,0,0,1-6.13-.32Z" transform="translate(-810.12 -527.55)"/><path class="cls-1" d="M1824.88,1829.22l-61.35,689.42-25.33,284.72s-315,10.39-405-113.84c-33.25-46.05-48.55-176.8-48-319.66.81-174,25.12-366.13,69.16-444.83C1425.14,1798.69,1716.49,1811.83,1824.88,1829.22Z" transform="translate(-810.12 -527.55)"/><g class="cls-2"><path class="cls-3" d="M1763.53,2518.64l-25.33,284.72s-315,10.39-405-113.84c-33.25-46.05-48.55-176.8-48-319.66L1481,2339.72s68,2.71,66.93,218.92c-.25,60.5,91.43,85.73,161.26,39C1734.51,2580.63,1751.63,2552.39,1763.53,2518.64Z" transform="translate(-810.12 -527.55)"/></g><path class="cls-3" d="M1718.44,2822.11c-73.16,0-318.32-8.66-400.15-121.76-43.51-60.14-54.71-234.77-50.67-378.15,4-142.42,24.69-323.92,70.71-406.2,77.3-138.16,379.52-122.67,489.46-105a18.48,18.48,0,1,1-5.85,36.5c-120.64-19.34-389.69-23.63-451.35,86.59-35.22,63-61.14,215.74-66,389.19-4.78,169.89,12.77,312.73,43.66,355.44,83.1,114.84,386.34,106.31,389.39,106.22a18.48,18.48,0,0,1,1.21,36.95C1737.05,2821.9,1729.83,2822.11,1718.44,2822.11Z" transform="translate(-810.12 -527.55)"/><path class="cls-1" d="M1304,2340.41l165.24,17.05a32.54,32.54,0,0,1,28.87,27.44c8.17,53.68,20.61,178.67-32.49,218.34-44.08,32.93-114,27-154.06-8.9-44.82-40.13-45.89-162.39-43.47-222.84A32.57,32.57,0,0,1,1304,2340.41Z" transform="translate(-810.12 -527.55)"/><g class="cls-2"><path class="cls-3" d="M1498,2384.91c8.21,53.67,20.63,178.66-32.49,218.32-44.09,32.95-114,27-154.07-8.9-27.54-24.7-38.56-80.45-42.38-133.77,6.71,26.78,17.82,48.67,32,63.23,81.19,83.42,146.16-10.45,146.16-10.45s10.17,23.52,18.75,25.07c35.88,6.51,31.57-106.5,28-164.93A31.37,31.37,0,0,1,1498,2384.91Z" transform="translate(-810.12 -527.55)"/></g><path class="cls-3" d="M1395.73,2643.4c-35,0-70.49-12-96.55-35.29-47.18-42.25-53-152.39-49.6-237.35a51,51,0,0,1,56.27-48.74h0l165.24,17.05a51,51,0,0,1,45.24,43c10.53,69.16,19.38,191.79-39.7,235.93C1453.87,2635.05,1425,2643.4,1395.73,2643.4Zm-95.17-284.68a14.08,14.08,0,0,0-14,13.52c-4.25,105.72,9.71,183.6,37.33,208.33,34.81,31.17,94.65,34.78,130.66,7.87,31.4-23.46,40.85-98.51,25.28-200.76a14.06,14.06,0,0,0-12.49-11.84l-165.23-17.05h0C1301.56,2358.74,1301.06,2358.72,1300.56,2358.72Z" transform="translate(-810.12 -527.55)"/><path class="cls-3" d="M1443.78,2416c-.49,20,.93,40,.89,60.17s-.85,40.56-4.81,61-11.14,41.09-24.91,58.92a103,103,0,0,1-24.86,23,121.06,121.06,0,0,1-30.86,14.32l0,0a15,15,0,1,1-8.91-28.72,16.24,16.24,0,0,1,1.89-.46c17.26-3,33.31-10.3,45.79-22.93s21.41-29.62,27.39-47.92,9.42-37.95,11.85-57.69S1440.8,2435.8,1443.78,2416Z" transform="translate(-810.12 -527.55)"/><path class="cls-3" d="M1449.84,1905c22.82.4,45.45,1.32,68.18,2.51s45.42,2.78,68.15,4.89,45.48,4.63,68.29,8.24,45.64,7.79,69,15.45a18.5,18.5,0,1,1-11.53,35.15c-.46-.15-.91-.31-1.35-.5l-.1,0c-19.14-8-40.64-13.78-62.09-19s-43.52-9.39-65.62-13.13-44.35-7.1-66.66-10-44.75-5.56-67.07-7.7h-.07a8,8,0,0,1,.9-15.9Z" transform="translate(-810.12 -527.55)"/><path class="cls-1" d="M2602.45,1812v-1C2603,1811.14,2603,1811.44,2602.45,1812Z" transform="translate(-810.12 -527.55)"/><path class="cls-1" d="M2602.45,1812v-1C2603,1811.14,2603,1811.44,2602.45,1812Z" transform="translate(-810.12 -527.55)"/><path class="cls-1" d="M2602.45,1811.09c.5.05.5.35,0,1Z" transform="translate(-810.12 -527.55)"/><path class="cls-1" d="M2636,3423.09c1.35,117.92-127.08,125.48-284.44,125.58-112.57,0-197-18.92-239-55.11-68.92-59.26-51.3-394-126-1004l392.71-35.68s22.92,122.22,47.3,296.2c21.67,154.66,44.49,350.27,53.45,537.26,0,0,141.25,38.44,155,123.38A83,83,0,0,1,2636,3423.09Z" transform="translate(-810.12 -527.55)"/><g class="cls-2"><path class="cls-3" d="M2636,3423.09c1.35,117.92-127.08,125.48-284.44,125.58-112.57,0-197-18.92-239-55.11-68.92-59.26-51.3-394-126-1004l392.71-35.68s22.92,122.22,47.3,296.2c-86.14,62.37-163,91.45-243.61,184.55-96.6,111.46-74.92,493.46,111.62,518.18,147.75,19.57,280,15.47,340.4-42.09A83,83,0,0,1,2636,3423.09Z" transform="translate(-810.12 -527.55)"/></g><path class="cls-3" d="M2351,3567.13c-118.61,0-205.24-20.59-250.56-59.56-47.13-40.54-56.64-166.3-75.58-416.85-12-158.34-26.86-355.38-56.68-598.9a18.48,18.48,0,1,1,36.69-4.49c29.92,244.36,44.86,441.89,56.85,600.6,16.44,217.42,27.3,361.05,62.83,391.61,38,32.65,118.38,50.63,226.45,50.63h.55c105.44-.06,203.45-3.52,244.15-44.71,15-15.19,22.15-35.51,21.85-62.15-.75-65.15-103.06-107.37-142.41-118.14l-12.94-3.54-.66-13.41c-18.76-391.42-99.66-826.57-100.48-830.93a18.49,18.49,0,0,1,36.34-6.8c.81,4.32,80.41,432.41,100.42,823,39.75,13.2,155.66,59.38,156.69,149.4.42,36.5-10.52,66.29-32.51,88.55-50.78,51.39-152.52,55.63-270.43,55.69Z" transform="translate(-810.12 -527.55)"/><g class="cls-4"><path class="cls-3" d="M1977.24,2527.74c-.92-8.92-1.94-18-3-27.25C1975.3,2509.7,1976.27,2518.82,1977.24,2527.74Z" transform="translate(-810.12 -527.55)"/></g><g class="cls-4"><path class="cls-3" d="M1906.29,2523.1c-1-10.88-2.09-21.86-3.22-33.1Q1904.77,2506.86,1906.29,2523.1Z" transform="translate(-810.12 -527.55)"/></g><path class="cls-1" d="M2443,2497c-2.85,24.83-7.86,48.25-15.46,70a325.71,325.71,0,0,1-67.17,112.07c-224.24,246.41-806.79,175.88-825-133.74a257.38,257.38,0,0,1,.15-32.83c2.66-39.79,6.36-81.89,10.56-125.53,25.58-263.42,71.43-584.36,34.19-803.23C1659,1662.52,2188,1697,2191.16,1647.3c3.3-49-420-257.66-235.79-228.43,135.64,28.68,334.14,54.3,372.88,164.92,2.36,24.37,13.82,55.8,22,78.08l35,345.16C2408,2173.2,2459.19,2356.89,2443,2497Z" transform="translate(-810.12 -527.55)"/><path class="cls-3" d="M2394.37,2005.77c16.5,53.33,27,107.32,36.75,162,10,54.6,20,109.53,26.76,165.39,3.36,27.93,5.94,56.1,6.82,84.56s.36,57.2-3.33,86a358.56,358.56,0,0,1-7.89,43.15l-2.82,10.71c-1,3.55-2.22,7.08-3.33,10.62-2.18,7.14-4.82,13.9-7.55,20.75a341.45,341.45,0,0,1-43.15,76.6c-35.13,47.21-81.73,84.53-132.45,112s-105.91,46-162,57.12A703.19,703.19,0,0,1,1931.74,2847c-57-2.88-113.85-12.46-168.61-30.24-54.57-17.9-107.61-44.08-152.46-82.75-22.31-19.33-42.42-41.84-58.25-67.46a253.12,253.12,0,0,1-33.31-83.77,265.2,265.2,0,0,1-5-44.85c-.15-7.49-.14-15,.31-22.44s1-14.09,1.43-21.18q3.06-41.78,7-83.34c5.16-55.44,11.1-110.66,16.93-165.82,11.7-110.3,23.28-220.38,29.62-330.46,3-55,4.85-110,3.89-164.81s-4.59-109.33-13.39-162.6l-10.49-63.57,45.48,45.49a68.24,68.24,0,0,0,14.12,10.15,171,171,0,0,0,18.41,8.94,378.37,378.37,0,0,0,41.06,14.2c28.37,8.2,57.77,14.51,87.37,19.9,59.29,10.67,119.59,17.74,179.94,22.39,30.19,2.28,60.42,3.92,90.59,4.67s60.33.68,89.83-1.26c14.66-1,29.4-2.48,42.57-5.27,3.25-.7,6.39-1.49,9.14-2.37a31.68,31.68,0,0,0,6.1-2.49c.42-.22.3-.36-.67.75a10.83,10.83,0,0,0-1.74,3,11.81,11.81,0,0,0-.76,2.49,13.69,13.69,0,0,0-.24,2.38,7.49,7.49,0,0,0,.43,2.93,13.69,13.69,0,0,0-1-1.7c-2.49-3.67-7.36-8.7-12.38-13.26s-10.68-9.27-16.43-13.79c-11.51-9.06-23.68-17.83-36-26.45-49.59-34.57-101.65-66.6-152.51-102.38-12.74-9.09-25.37-18.28-38-29.15-3.15-2.74-6.29-5.61-9.48-8.82a81.91,81.91,0,0,1-9.79-11.69,39.61,39.61,0,0,1-5.07-10.39,33.15,33.15,0,0,1-1-4.2,27.69,27.69,0,0,1-.24-5.44,25.31,25.31,0,0,1,8.19-17.24,29.67,29.67,0,0,1,4-3,32.77,32.77,0,0,1,6.7-3.13,46.09,46.09,0,0,1,9.74-2.08c10.87-1,19-.09,27.39.77,4.22.52,7.87,1,12.51,1.75,4.21.76,8.17,1.7,11.82,2.42l44.82,9.1c60,12.15,120.92,24.28,180.56,45.34,29.72,10.69,59.32,23.6,86.67,42.4a196,196,0,0,1,37.86,33.62,142.21,142.21,0,0,1,26.42,45.4l.74,2.15.22,2.25c1.1,11.25,4.22,23.69,7.93,36s8.19,24.81,12.82,37.51a18.48,18.48,0,0,1-34.71,12.71c-4.71-12.75-9.48-25.83-13.65-39.38s-7.9-27.53-9.56-43.28l1,4.39c-8.45-24.25-27.29-44.51-50.46-60.26s-50.17-27.69-78-37.5c-56-19.51-115.54-31.25-175.41-43l-45.16-9c-3.86-.76-7.35-1.56-10.67-2.15-2.92-.44-6.85-1-10.21-1.36-6.79-.77-14-1.19-18.39-.68a8,8,0,0,0-1.47.25,8.45,8.45,0,0,0,1.49-.76,13.25,13.25,0,0,0,3.92-3.87,15.11,15.11,0,0,0,2.39-7.14,11.89,11.89,0,0,0-.12-2.59,8.86,8.86,0,0,0-.29-1.4c-.4-1.22-.34-.77.09-.19a46.48,46.48,0,0,0,5,5.78c2.21,2.21,4.72,4.49,7.35,6.76,10.6,9.1,22.74,17.93,35,26.54,49.37,34.44,101.75,66.37,152.72,101.55,12.77,8.84,25.48,17.89,38.05,27.69,6.29,4.92,12.55,10,18.77,15.64s12.4,11.48,18.7,20.36a53.47,53.47,0,0,1,4.69,8.25,33.75,33.75,0,0,1,3.12,14,27.06,27.06,0,0,1-.51,5.22,28.17,28.17,0,0,1-6.32,13.07,38.43,38.43,0,0,1-9.49,8,70.72,70.72,0,0,1-14.94,6.54c-4.53,1.44-8.83,2.51-13.05,3.42-16.78,3.53-32.58,5-48.42,6.13-31.56,2.09-62.62,2.11-93.64,1.41s-61.88-2.4-92.7-4.73c-61.63-4.75-123-11.93-184.2-22.92-30.57-5.58-61.08-12.08-91.51-20.87a418.26,418.26,0,0,1-45.61-15.81,211.93,211.93,0,0,1-22.84-11.13,107.81,107.81,0,0,1-22.84-16.81l35-18.08c9.32,56.24,13.09,112.66,14,168.81s-.84,112.11-3.86,167.86c-6.37,111.48-18,222.17-29.62,332.51-5.81,55.17-11.69,110.27-16.79,165.3q-3.87,41.28-6.88,82.5c-.44,6.75-1.07,14-1.37,20.33s-.38,12.78-.26,19.15a224.54,224.54,0,0,0,4.22,37.74,212,212,0,0,0,27.68,70.12c13.27,21.65,30.44,41.09,50,58.12,39.24,34.11,87.49,58.45,138.07,75.17,50.75,16.66,104.22,25.91,158,28.78a663.46,663.46,0,0,0,160.73-11c52.7-10.32,104.13-27.38,150.94-52.6s88.76-58.84,120.12-100.73a302.62,302.62,0,0,0,38.51-67.86c2.43-6,4.86-12.19,6.73-18.31,1-3.08,2-6.11,2.93-9.22l2.5-9.4a320.13,320.13,0,0,0,7.19-38.63c3.45-26.19,4.07-53.08,3.32-80.06s-3.11-54.14-6.29-81.29c-6.39-54.32-16-108.66-25.86-163.2-10.05-54.44-19.91-109.56-18.57-166.15a9.36,9.36,0,0,1,18.29-2.56Z" transform="translate(-810.12 -527.55)"/><path class="cls-3" d="M2099.64,3074c-35.1,0-57.76-1.91-60.71-2.18a18.48,18.48,0,0,1,3.29-36.81c2.33.19,234.86,19.6,403.64-74.42a18.49,18.49,0,0,1,18,32.3C2337.81,3063.07,2183.37,3074,2099.64,3074Z" transform="translate(-810.12 -527.55)"/><path class="cls-3" d="M2476.36,3305.46c-6.4-1.56-14.18-3-21.47-4.12s-14.92-2-22.44-2.78a372.79,372.79,0,0,0-45.34-1.39,300.27,300.27,0,0,0-45.1,4.59c-15,2.41-29.42,6.82-43.73,11.77l-.5.17a9.24,9.24,0,0,1-6.9-17.11c14.82-6.85,30.07-13.14,45.9-17.34a327,327,0,0,1,48.07-9.72,404.29,404.29,0,0,1,49-3.28c8.19,0,16.39.14,24.62.61,4.11.24,8.23.5,12.38.89s8.13.78,12.87,1.47a18.51,18.51,0,0,1-5.35,36.63c-.57-.08-1.13-.19-1.68-.32Z" transform="translate(-810.12 -527.55)"/><path class="cls-1" d="M2009.81,2705.57s-87.71,452.74-128.84,664.5c-35.09,180.66-158,192.44-428,182.35-95-3.55-167.38-36.26-160.06-114,9.84-104.37,157.14-143.9,157.14-143.9s53-526.59,89.1-814.08Z" transform="translate(-810.12 -527.55)"/><g class="cls-2"><path class="cls-3" d="M1841,3260.52c30-189.14,141.35-470.68,164.37-531.6-18.47,95.3-88.84,458.18-124.33,641.17-35.09,180.63-158.06,192.45-428,182.33-95-3.55-167.38-36.28-160-114a109,109,0,0,1,4.61-22.93c21.55,29,69.56,42.93,115.42,45.52C1704.79,3477.54,1812.55,3439.86,1841,3260.52Z" transform="translate(-810.12 -527.55)"/></g><path class="cls-3" d="M2018.88,2707.32c-5.36,68.87-17.16,136.49-30,203.9l-38.54,202.24-38.53,202.25-9.63,50.56c-1.55,8.24-3.34,17.36-5.41,26.09s-4.55,17.61-7.38,26.35a243.36,243.36,0,0,1-22.89,51.1,185.52,185.52,0,0,1-36.89,44.26,192.73,192.73,0,0,1-48.43,30.61,282.57,282.57,0,0,1-52.69,17.24c-35.49,8.1-70.87,11.1-105.84,12.64s-69.7,1.22-104.25.47q-25.92-.59-51.73-1.53l-12.9-.47c-4.35-.2-8.93-.37-13.39-.68-9-.53-18-1.46-27-2.64a277.75,277.75,0,0,1-54.12-12.36c-17.84-6.33-35.76-15.14-51.41-28.84a107,107,0,0,1-20.5-24.12,99.41,99.41,0,0,1-12-29.76,115.7,115.7,0,0,1-2.62-30.92,133.79,133.79,0,0,1,4.72-29.78c5.37-19.48,15.31-37.27,27.46-52.29s26.48-27.67,41.56-38.42a300.71,300.71,0,0,1,47.55-27.32q12.33-5.73,25-10.52c4.23-1.6,8.49-3.12,12.81-4.55s8.46-2.76,13.5-4.13h0l-13.6,16q20.65-203.79,42.58-407.39c14.71-135.76,29.71-271.46,46.57-407.14a18.49,18.49,0,0,1,36.69,4.56v.05c-16.81,135.22-31.81,270.86-46.5,406.49s-28.79,271.4-42.55,407.13l-1.26,12.51-12.34,3.49h0c-3.23.94-7.35,2.29-11,3.6s-7.6,2.76-11.37,4.26c-7.54,3-15,6.27-22.26,9.81a275.28,275.28,0,0,0-41.25,24.49c-25.5,18.4-46.19,42.33-53.39,69.81-3.59,13.59-4.27,28.6-1.25,41.17,3,12.72,9.88,23.59,20.24,32.45s23.68,15.65,38.15,20.61a238.57,238.57,0,0,0,46.09,10.39c8,1,16.06,1.86,24.21,2.33,4.09.28,8.09.42,12.31.61l12.81.46c17.08.58,34.14,1.09,51.17,1.44,34.06.71,68,.87,101.6-.56s66.83-4.49,98.29-11.73,60.73-19.24,83.41-38.69,38.38-46.52,48.33-76.81c2.51-7.57,4.75-15.29,6.67-23.16s3.53-15.66,5.2-24.26l10-50.5,39.84-202,39.85-202c13.24-67.34,27.57-134.46,48.34-200.34a9.3,9.3,0,0,1,18.14,3.51Z" transform="translate(-810.12 -527.55)"/><path class="cls-3" d="M1786.32,3064.6c-221.41,0-310.23-49.8-314.65-52.36a18.48,18.48,0,0,1,18.49-32c1.46.83,127.5,69.69,453.45,39.78a18.48,18.48,0,1,1,3.38,36.81C1887.06,3062.32,1833.65,3064.6,1786.32,3064.6Z" transform="translate(-810.12 -527.55)"/><path class="cls-3" d="M1440.8,3276.07c13.35-2.11,25.51-3.25,38.22-4.2s25.17-1.35,37.76-1.42a522.21,522.21,0,0,1,75.35,4.87,385,385,0,0,1,73.72,17.62,307.76,307.76,0,0,1,35,15,267.74,267.74,0,0,1,32.6,19.89,9.24,9.24,0,0,1-10.16,15.43l-.25-.16a247.41,247.41,0,0,0-31.08-16.36,282.74,282.74,0,0,0-33.21-11.77,359.16,359.16,0,0,0-69.7-12.07,491.17,491.17,0,0,0-71.15-.1q-17.78,1.21-35.41,3.57c-11.6,1.58-23.72,3.56-34.41,6l-.38.09a18.5,18.5,0,0,1-8.1-36.1C1440,3276.21,1440.43,3276.13,1440.8,3276.07Z" transform="translate(-810.12 -527.55)"/><g class="cls-2"><path class="cls-3" d="M2443,2497a345.17,345.17,0,0,1-6.2,37.09c-.6,2.85-1.26,5.66-2,8.46q-3.15,12.54-7.3,24.47-3.76,10.74-8.21,21c-.7,1.65-1.4,3.3-2.15,4.9-.81,1.75-1.61,3.46-2.41,5.16-1.05,2.2-2.1,4.45-3.2,6.65a338,338,0,0,1-21.37,36.54c-1.45,2.1-2.91,4.21-4.41,6.26-1.35,1.95-2.75,3.85-4.15,5.75-1.9,2.56-3.86,5.06-5.81,7.56-1.6,2-3.2,4-4.85,6-.75.9-1.5,1.75-2.25,2.65-1.71,2.05-3.41,4.06-5.16,6-1.05,1.2-2.15,2.4-3.2,3.55-87.79,96.45-230.44,144.35-372.69,148.3l26.83-129.63a907.62,907.62,0,0,0,96-9.81l-179.74,6.31c-50.5,1.8-93.29-38.09-95.1-88.65l-1.2-34c-177,20.47-272.48-14.32-299.06-26.28a257.38,257.38,0,0,1,.15-32.83c2.66-39.79,6.36-81.89,10.56-125.53,97.5,44.64,224.39,40.14,283.1,34.88l-1.5-43.34c-1.56-44.25,28.83-82.54,70.37-92.6a91.3,91.3,0,0,1,18.27-2.5l426.64-15c50.55-1.81,93.4,38.09,95.1,88.64Z" transform="translate(-810.12 -527.55)"/></g><path class="cls-1" d="M2368.15,2600.17l-426.69,15c-50.5,1.79-93.31-38.09-95.1-88.66l-7.95-227.06c-1.56-44.26,28.84-82.56,70.36-92.59a90.08,90.08,0,0,1,18.29-2.51l426.62-15c50.57-1.79,93.38,38.09,95.1,88.65l6.35,179.84,1.67,47.22C2458.59,2555.64,2418.65,2598.38,2368.15,2600.17Z" transform="translate(-810.12 -527.55)"/><g class="cls-2"><path class="cls-3" d="M2368.15,2600.17l-426.69,15c-50.5,1.79-93.31-38.09-95.1-88.66l-7.95-227.06c-1.56-44.26,28.84-82.56,70.36-92.59,24.79,15.24,40.54,25,40.54,25,27.17,181.53,23.91,316.93,306,288.25,97.27-9.89,161.57-40.83,199.78-62.24l1.67,47.22C2458.59,2555.64,2418.65,2598.38,2368.15,2600.17Z" transform="translate(-810.12 -527.55)"/></g><path class="cls-3" d="M1946.27,2633.42a119.11,119.11,0,0,1-118.65-114.63l-7.39-210.34a118.93,118.93,0,0,1,114.55-122.89l409.9-14.4a119.11,119.11,0,0,1,122.9,114.55l7.38,210.34A118.92,118.92,0,0,1,2360.41,2619l-409.9,14.39C1949.1,2633.39,1947.68,2633.42,1946.27,2633.42Zm402.62-425.37q-1.45,0-2.91.06l-409.9,14.39a81.93,81.93,0,0,0-78.91,84.65l7.39,210.35a82.13,82.13,0,0,0,84.65,78.9l409.9-14.39a82.13,82.13,0,0,0,78.91-84.66L2430.63,2287a82.15,82.15,0,0,0-81.74-79Z" transform="translate(-810.12 -527.55)"/><path class="cls-1" d="M2385.21,2597.89a82.14,82.14,0,0,1-17.06,2.28l-426.69,15a92.12,92.12,0,0,1-85.48-51.06,90.3,90.3,0,0,1-9.55-37.6l-3.58-100.87-1.18-33.28-3.26-92.91c-1.79-50.56,38.15-93.31,88.65-95.1l92.2-3.21c-42.21,9.5-73.26,48.1-71.72,92.82l4.27,122.65,3.69,104.47c1.79,50.5,44.6,90.44,95.1,88.65Z" transform="translate(-810.12 -527.55)"/><g class="cls-2"><path class="cls-3" d="M2385.21,2597.89a82.14,82.14,0,0,1-17.06,2.28l-426.69,15c-50.5,1.79-93.31-38.09-95-88.66l-4.76-134.15c11.56,23.33,31.86,51.74,62.82,53.72,17,1.12,33.22-11.65,47.32-29.47l3.69,104.47c1.79,50.5,44.6,90.44,95.1,88.65Z" transform="translate(-810.12 -527.55)"/></g><path class="cls-3" d="M1938.13,2633.71a110.67,110.67,0,0,1-110.2-106.56l-8-227.07a110.57,110.57,0,0,1,106.46-114.25l92.18-3.21,4.71,36.5a73.51,73.51,0,0,0-57.28,74.19l8,227.09a73.67,73.67,0,0,0,75.93,70.83l334.65-11.79,4.93,36.45a103.93,103.93,0,0,1-20.81,2.75l-426.59,15C1940.78,2633.69,1939.45,2633.71,1938.13,2633.71Zm15-411.82-25.45.89a73.53,73.53,0,0,0-70.82,76l8,227.11a73.69,73.69,0,0,0,75.93,70.81l28.45-1a109.5,109.5,0,0,1-32.2-74l-8-227.07A110.12,110.12,0,0,1,1953.17,2221.89Z" transform="translate(-810.12 -527.55)"/><path class="cls-5" d="M2119.83,2403.43c.24,8.4-9.57,76.55-9.57,76.55l-47.85,1.4c-32.95,1-60.66-32.36-61.9-74.44s24.48-77,57.42-78l47.85-1.4S2119.43,2389.75,2119.83,2403.43Z" transform="translate(-810.12 -527.55)"/><g class="cls-4"><path class="cls-3" d="M2119.83,2403.43c.24,8.4-9.57,76.55-9.57,76.55l-47.85,1.4c-32.95,1-60.66-32.36-61.9-74.44s24.48-77,57.42-78l47.85-1.4S2119.43,2389.75,2119.83,2403.43Z" transform="translate(-810.12 -527.55)"/></g><path class="cls-3" d="M2061,2495.26c-39.75,0-72.93-39-74.37-87.92-1.46-49.64,30.33-91,70.86-92.21l59.34-1.74,2.46,11.22c2.33,10.6,13.95,64.16,14.36,78.42h0c.27,8.9-7.36,62.66-9.7,78.92l-1.66,11.54-59.5,1.75Zm33.63-153.48-36.32,1.07c-25.25.74-45,29.31-44,63.68s22.53,61.75,47.63,61l36.18-1.06c4.07-28.9,7.79-57.89,7.79-62.67C2105.72,2396,2099.65,2365.24,2094.66,2341.78Z" transform="translate(-810.12 -527.55)"/><ellipse class="cls-5" cx="2108.02" cy="2403.78" rx="59.68" ry="76.23" transform="translate(-879.78 -464.62) rotate(-1.68)"/><g class="cls-4"><path class="cls-3" d="M2048.37,2405.55c1.22,42,28.93,75.41,61.87,74.44s58.69-35.87,57.43-78a93.16,93.16,0,0,0-1.94-16.55c-7.63,29.15-28.85,50.39-54.43,51.1-28.45.83-53-23.9-59.94-57.85A95.49,95.49,0,0,0,2048.37,2405.55Z" transform="translate(-810.12 -527.55)"/></g><path class="cls-1" d="M2048.37,2405.55a81.33,81.33,0,0,0,.65,8.46c5.58-33.17,28.27-58.23,56.1-59,30.7-.88,56.9,28,61.22,66a96.52,96.52,0,0,0,1.33-19c-1.22-42.06-28.94-75.41-61.88-74.45S2047.15,2363.44,2048.37,2405.55Z" transform="translate(-810.12 -527.55)"/><path class="cls-3" d="M2108.88,2493.86c-39.75,0-72.94-39-74.37-87.92-.69-23.44,5.91-45.81,18.58-63,13.43-18.23,32-28.59,52.28-29.19s39.43,8.66,53.91,26.07c13.66,16.43,21.56,38.38,22.25,61.82h0c.69,23.43-5.91,45.82-18.58,63-13.43,18.23-32,28.6-52.28,29.19Zm-1.71-152.43-1,0c-11.59.33-22.51,6.7-30.77,17.92-9,12.23-13.71,28.49-13.2,45.76,1,34.37,22.41,61.68,47.63,61,11.58-.34,22.51-6.71,30.78-17.92,9-12.24,13.7-28.49,13.19-45.77h0c-.51-17.27-6.14-33.22-15.86-44.91C2129.31,2347.12,2118.41,2341.43,2107.17,2341.43Z" transform="translate(-810.12 -527.55)"/><path class="cls-3" d="M2235.44,2617.05a13.86,13.86,0,0,1-13.86-13.7l-1.31-115a93.07,93.07,0,0,1,40.88-78.25,65.24,65.24,0,0,0,28.71-56.31l-5.13-162a13.86,13.86,0,1,1,27.71-.88l5.13,162a92.8,92.8,0,0,1-40.85,80.13,65.43,65.43,0,0,0-28.73,55l1.32,115a13.87,13.87,0,0,1-13.7,14Z" transform="translate(-810.12 -527.55)"/><path class="cls-1" d="M1551.92,2305.62s-55.88,7.37-57.66,72.73c-1.91,70.31,44,84.06,44,84.06s109.62,63,355.48,23.39c0,0,62.14-94.89-21.44-146.75C1872.32,2339.05,1683.3,2368.65,1551.92,2305.62Z" transform="translate(-810.12 -527.55)"/><g class="cls-2"><path class="cls-3" d="M1893.75,2485.82c-245.85,39.59-355.46-23.42-355.46-23.42s-46-13.77-44-84a101.05,101.05,0,0,1,1.55-15.27c13.07,23.88,32.79,29.78,32.79,29.78s97.73,56.19,315.67,29.12c28.67-3.56,52.6-24.26,59-52.43l.18-.81C1936.45,2420.6,1893.75,2485.82,1893.75,2485.82Z" transform="translate(-810.12 -527.55)"/></g><path class="cls-3" d="M1740,2516.42c-131.59,0-198-32.15-209-38-10.81-4.12-56.32-26-54.29-100.53,1.44-52.8,33.11-74.79,51.86-83.2a51.32,51.32,0,0,1,41.22-.11h0c105.88,45.7,246.72,33.6,287.37,28.81a51.71,51.71,0,0,1,39.09,11.39c39.9,33.14,48.11,84.52,22.54,141a51.89,51.89,0,0,1-40,30C1826.33,2513.42,1780.13,2516.41,1740,2516.42Zm-190.78-191.13a15.36,15.36,0,0,0-6.29,1.32c-20,9-30.49,26.53-31.19,52.22-1.53,56.26,31.21,66.71,31.54,66.81a17.32,17.32,0,0,1,3.7,1.6c.94.52,103.43,56.37,326.81,23.91a17,17,0,0,0,13.16-9.83c13.33-29.44,21.9-70.63-13-99.63a16.77,16.77,0,0,0-12.63-3.55c-42.83,5.06-191.46,17.72-305.34-31.45h0A17.05,17.05,0,0,0,1549.24,2325.29Z" transform="translate(-810.12 -527.55)"/><path class="cls-1" d="M1796.85,1797.36l-57.61,97.75L1592,2144.92l-4.55,7.76c-6.36-4.91-12.72-9.86-19-14.87-281.39-221.18-533.31-505.22-564.79-521.24-92.54-47-168.22-132.39-174.33-184.69-11.56-98.6,122.23-251.11,144.1-275.29l3-3.3s-116-162.67-39.89-215.87c78-54.51,263.68,207.46,276.44,223.13,23.72,29.28,81.58-107.91,162.52-99.35,96.5,10.16-29.88,218.12-22.68,240.65,8.41,26.22,75.88,117.82,193.3,245.35q16.46,17.79,34.19,36.59C1641.39,1648.35,1713.92,1720.68,1796.85,1797.36Z" transform="translate(-810.12 -527.55)"/><g class="cls-2"><path class="cls-3" d="M1592,2144.92l-4.55,7.76c-6.36-4.91-12.72-9.86-19-14.87-281.39-221.18-533.31-505.22-564.79-521.24-92.54-47-168.22-132.39-174.33-184.69-11.56-98.6,122.23-251.11,144.1-275.29,69.32,55.81,231.94,185.05,231.94,185.05S1203.84,1794.51,1592,2144.92Z" transform="translate(-810.12 -527.55)"/></g><path class="cls-3" d="M1587.43,2171.16a18.38,18.38,0,0,1-11.28-3.86c-195.15-150.7-377.72-334.1-486.8-443.67-43.81-44-85.19-85.57-94.19-90.64-94.34-48-177-137.23-184.24-199-11.6-99.41,106.34-241.74,142.11-282.35-20.41-31.48-70-115.78-59.35-177.4,3.82-22.19,14.67-39.68,32.26-52,58-40.55,154.58,30.94,295.22,218.55l2.1,2.8c6.54-5.29,16.74-16.52,24.64-25.22,31.25-34.38,74.09-81.46,129.51-75.61,24.95,2.62,37.6,15.61,43.82,26,23.38,39.23-1,106.36-32.85,183.59-7.06,17.15-15.73,38.21-17.2,45.87,15.47,37.74,165.43,233.23,438.22,485.45a18.48,18.48,0,0,1-25.09,27.15c-272.38-251.84-434.74-458.5-449.12-503.44-3.93-12.28,1.82-27.35,19-69.1,17.86-43.36,51.09-124.06,35.28-150.59-1.94-3.25-5.5-7.11-15.94-8.21-36.81-3.89-70.91,33.6-98.28,63.72-21.3,23.44-36.8,40.38-55.28,39.85a28.38,28.38,0,0,1-21.4-10.93c-1.13-1.39-3.52-4.56-7-9.2-18.28-24.39-66.86-89.19-119.91-142.09-58.22-58.06-103.62-83-124.56-68.33-9.32,6.51-14.88,15.65-17,27.92-8.65,50.1,41.36,134,61.36,162.08a18.48,18.48,0,0,1-1.53,23.33c-42.78,45.91-151.76,182.8-142.3,263.8,5.09,43.66,73.85,124.36,164.37,170.37,12.69,6.45,39.27,32.91,103.54,97.46,108.44,108.94,290,291.26,483.19,440.5a18.48,18.48,0,0,1-11.31,33.11Z" transform="translate(-810.12 -527.55)"/><path class="cls-1" d="M960.29,1591a408.12,408.12,0,0,1-62.07-48.75C861.33,1507,823,1455.85,830.1,1399.8c13.27-103.91,146.3-246.51,146.3-246.51,38.79-3.7,90.65,24.43,135.59,63.37,52.26,45.24,95.15,105.06,97.56,146.35C1212.85,1420.17,1098.28,1616.77,960.29,1591Z" transform="translate(-810.12 -527.55)"/><g class="cls-2"><path class="cls-3" d="M960.29,1591a408.12,408.12,0,0,1-62.07-48.75c29.18-6,68.32-23.92,110.87-70.67,87.89-96.5,129.73-168.62,102.9-255,52.26,45.24,95.15,105.06,97.56,146.35C1212.85,1420.17,1098.28,1616.77,960.29,1591Z" transform="translate(-810.12 -527.55)"/></g><path class="cls-3" d="M966.88,1573.76a46.13,46.13,0,0,1,6.69.44,28.41,28.41,0,0,0,4.21.3l4.74.2a69.82,69.82,0,0,0,9.48-.18l4.75-.23,4.73-.68a141.13,141.13,0,0,0,37.18-10.58c24-10.76,46.35-27,66-46.41a351.77,351.77,0,0,0,51.82-65.1,335.59,335.59,0,0,0,19.83-36.51c5.69-12.41,10.64-25.32,13.31-37.45l.85-4.43c.26-1.46.3-2.75.49-4.13a23.48,23.48,0,0,0,.16-3.63,18.91,18.91,0,0,0-.27-3.81c-.44-5.36-2.09-11.29-4.06-17.18-4.19-11.87-10.48-23.84-17.75-35.33-14.68-23-33.15-44.47-53.25-63.9s-42.3-37-65.92-50.87a204,204,0,0,0-36.26-17.12c-12.23-4.15-24.61-6.3-35.41-5.47l11.76-5.79c-14.33,15.67-28.53,32.68-42,49.7s-26.28,34.72-38.47,52.64a618.58,618.58,0,0,0-33.18,55.31c-2.55,4.7-4.62,9.54-7,14.29l-3.42,7.16c-1.1,2.4-2,4.84-3,7.26-1.87,4.85-4,9.67-5.68,14.54l-4.47,14.65a43.15,43.15,0,0,0-1.73,7.3l-1.4,7.28c-.41,2.4-1.11,4.91-1.3,7.21l-.57,6.87a100.53,100.53,0,0,0,3.17,27.76c4.6,18.5,14.24,36.45,26.34,53s26.63,31.94,42.38,46.08q11.83,10.6,24.53,20.3c4.24,3.21,8.5,6.38,12.84,9.41l6.52,4.48,3.25,2.15,1.61,1,.78.49.38.24A14.93,14.93,0,0,0,966.88,1573.76Zm-13.22,34.53a24.19,24.19,0,0,1-3.59-1.84l-.5-.31-1-.62-1.9-1.22-3.69-2.44-7.21-4.95c-4.77-3.33-9.41-6.79-14-10.28Q908,1576.07,895,1564.47c-17.28-15.52-33.54-32.51-47.59-51.84s-26.08-41-32.3-65.7a137.57,137.57,0,0,1-4.27-38.21l.79-9.72c.3-3.23,1.06-6.11,1.57-9.18l1.76-9.07a61.5,61.5,0,0,1,2.11-8.88c13.17-46.51,36.68-86.31,61.71-124.25a961.18,961.18,0,0,1,84.11-106.94l0,0a17.72,17.72,0,0,1,11.72-5.75c18.47-1.45,35.41,2.12,50.84,7.28a240.6,240.6,0,0,1,43,20.22c26.85,15.83,50.84,35,72.84,56.12s42,44.41,58.84,70.75c8.34,13.23,15.88,27.27,21.46,43,2.66,8,5,16.22,5.9,25.45a66.32,66.32,0,0,1,.17,14.45c-.26,2.25-.44,4.63-.82,6.77l-1.2,6.35c-3.67,16.47-9.44,31-15.89,45.18a370.38,370.38,0,0,1-22,40.59,389.07,389.07,0,0,1-57.32,72c-22,21.67-47.58,40.71-77,53.87a177.89,177.89,0,0,1-47,13.34l-6.14.84-6.21.35a105.55,105.55,0,0,1-12.45.23l-6.23-.27a54,54,0,0,1-6.72-.54C963.67,1610.16,958.61,1609.3,953.66,1608.29Z" transform="translate(-810.12 -527.55)"/><path class="cls-3" d="M1257,1881.72a18.48,18.48,0,0,1-8.24-35c2.14-1.07,214.7-108.62,287.33-294.54a18.48,18.48,0,0,1,34.43,13.45c-77.91,199.42-296.07,309.6-305.31,314.19A18.44,18.44,0,0,1,1257,1881.72Z" transform="translate(-810.12 -527.55)"/><path class="cls-1" d="M1482.65,1201.65l32.4,12.3a11.28,11.28,0,0,0,14.55-6.54l148.27-390.57a11.27,11.27,0,0,0-6.54-14.54l-32.4-12.3a118.31,118.31,0,0,0-152.61,68.62L1414,1049A118.32,118.32,0,0,0,1482.65,1201.65Z" transform="translate(-810.12 -527.55)"/><path class="cls-3" d="M1519.06,1218.1a14.48,14.48,0,0,1-5.21-1l-32.4-12.3a121.86,121.86,0,0,1-70.6-157l72.29-190.42a121.74,121.74,0,0,1,157-70.6l32.4,12.3a14.68,14.68,0,0,1,8.51,18.94l-148.27,390.57a14.7,14.7,0,0,1-13.72,9.48Zm-35.2-19.63,32.4,12.3a7.89,7.89,0,0,0,10.16-4.57l148.27-390.57a7.88,7.88,0,0,0-4.57-10.15l-32.4-12.3a115,115,0,0,0-148.22,66.65l-72.29,190.42a115,115,0,0,0,66.65,148.22Z" transform="translate(-810.12 -527.55)"/><g class="cls-2"><path class="cls-3" d="M1448.63,957.91l-23.39,61.56a150,150,0,0,0,87,193.44,14.32,14.32,0,0,0,18.45-8.32l38.88-102.31a14.34,14.34,0,0,1-15.17,3.31l-9.12-3.49A149.85,149.85,0,0,1,1448.63,957.91Z" transform="translate(-810.12 -527.55)"/></g><path class="cls-3" d="M1519,1233.63a30,30,0,0,1-10.69-2l-32.4-12.29c-70.76-26.87-106.48-106.29-79.61-177l72.29-190.43c26.86-70.75,106.28-106.47,177-79.61l32.4,12.3a30.26,30.26,0,0,1,17.53,39l-148.27,390.57A30.26,30.26,0,0,1,1519,1233.63Zm-29.64-49.69,25.23,9.57,142.82-376.22-25.23-9.58A99.35,99.35,0,0,0,1504,865.34l-72.29,190.43a99.48,99.48,0,0,0,57.63,128.17Z" transform="translate(-810.12 -527.55)"/><path class="cls-1" d="M2968.64,1294.79l-32.4-12.3a11.27,11.27,0,0,0-14.54,6.54L2773.43,1679.6a11.27,11.27,0,0,0,6.54,14.54l32.4,12.3A118.32,118.32,0,0,0,2965,1637.82l72.29-190.42A118.33,118.33,0,0,0,2968.64,1294.79Z" transform="translate(-810.12 -527.55)"/><path class="cls-3" d="M2854.41,1717.61a121.52,121.52,0,0,1-43.25-8l-32.4-12.3a14.68,14.68,0,0,1-8.51-18.94l148.26-390.57a14.68,14.68,0,0,1,18.94-8.51l32.4,12.3a121.86,121.86,0,0,1,70.6,157L2968.16,1639a122,122,0,0,1-113.75,78.58Zm77.83-432.45a7.92,7.92,0,0,0-3.23.69,7.81,7.81,0,0,0-4.13,4.39l-148.27,390.57a7.87,7.87,0,0,0,4.57,10.15l32.4,12.3a114.91,114.91,0,0,0,148.21-66.65l72.29-190.42A114.9,114.9,0,0,0,2967.43,1298l-32.4-12.3A7.91,7.91,0,0,0,2932.24,1285.16Z" transform="translate(-810.12 -527.55)"/><g class="cls-2"><path class="cls-3" d="M2815,1570l-40.53,106.79a14.32,14.32,0,0,0,8.32,18.45,149.89,149.89,0,0,0,193.38-87l21-55.31a150,150,0,0,1-159,33.86l-14.05-5.34A14.45,14.45,0,0,1,2815,1570Z" transform="translate(-810.12 -527.55)"/></g><path class="cls-3" d="M2854.42,1733.17a137.35,137.35,0,0,1-48.78-9l-32.4-12.3a30.21,30.21,0,0,1-17.52-39L2904,1282.3a30.23,30.23,0,0,1,39-17.52l32.4,12.3a137.26,137.26,0,0,1,79.61,177l-72.29,190.43a137.55,137.55,0,0,1-128.27,88.62Zm-60.56-54,25.23,9.58a99.36,99.36,0,0,0,128.17-57.64l72.29-190.42a99.49,99.49,0,0,0-57.63-128.17h0l-25.23-9.57Z" transform="translate(-810.12 -527.55)"/><g class="cls-2"><path class="cls-3" d="M2465.1,1996.91a641.21,641.21,0,0,1-919-449.71q16.46,17.79,34.19,36.59-2.62-22.38-6.16-43.2c-8.36-49,6.61-50,9.81-99.7,3.31-49.05,187.2-51.25,371.44-22,135.64,28.68,334.14,54.3,372.88,164.92,2.36,24.37,13.82,55.8,22,78.08l19.37,190.9C2394.32,1888.9,2428.41,1939.61,2465.1,1996.91Z" transform="translate(-810.12 -527.55)"/></g><circle class="cls-1" cx="1415.45" cy="720.64" r="701.62"/><path class="cls-3" d="M2225.21,1953.29a703,703,0,0,1-202.48-29.88c-180.36-54.18-328.82-175.36-418-341.2s-108.52-356.5-54.34-536.86,175.35-328.82,341.2-418,356.5-108.52,536.86-54.34c372.31,111.85,584.22,505.74,472.37,878.06C2809.19,1755.94,2528.38,1953.29,2225.21,1953.29Zm-.56-1403.65c-113.91,0-226.74,28.18-329.88,83.67-164.24,88.35-284.24,235.38-337.9,414s-34.55,367.43,53.81,531.67,235.39,284.25,414,337.91a696.31,696.31,0,0,0,200.52,29.59c300.27,0,578.33-195.42,669.06-497.41,110.76-368.72-99.1-758.81-467.82-869.58A700.9,700.9,0,0,0,2224.65,549.64Z" transform="translate(-810.12 -527.55)"/><g class="cls-2"><path class="cls-3" d="M1588,955.25a696.56,696.56,0,0,0-34.39,91.08c-111.43,371.12,99,762.33,470.11,873.84s762.32-99,873.84-470.11c3.21-10.67,6.17-21.43,8.82-32.1-143.56,313.5-499.89,481-839.44,379C1706.51,1688.69,1497.66,1316.59,1588,955.25Z" transform="translate(-810.12 -527.55)"/></g><path class="cls-3" d="M2225.21,1968.83a718.09,718.09,0,0,1-207-30.54c-184.33-55.37-336.06-179.22-427.25-348.71s-110.91-364.37-55.54-548.7c114.32-380.53,516.9-597.11,897.42-482.79S3030,1075,2915.67,1455.5C2822.05,1767.14,2535.05,1968.83,2225.21,1968.83Zm.7-1403.38c-293.58,0-565.45,191.06-654.15,486.33-52.47,174.64-33.78,359.26,52.61,519.84s230.15,277.92,404.79,330.38a680.66,680.66,0,0,0,196.06,28.93c293.58,0,565.46-191.06,654.16-486.33,108.3-360.51-96.89-741.92-457.4-850.22A680.68,680.68,0,0,0,2225.91,565.45Z" transform="translate(-810.12 -527.55)"/><path class="cls-3" d="M1550.58,1064.23c-41.49,130.88-37.52,265.86,3.28,389.42,30.58,92.64,212.71,295.53,488.43,385.65,255.66,83.57,532.26,20.81,610.63-37.3,104.52-77.5,185.52-185.55,227-316.43,109.78-346.34-142.28-584.24-509.39-700.6S1660.35,717.89,1550.58,1064.23Z" transform="translate(-810.12 -527.55)"/><path class="cls-3" d="M2308.38,1899.06c-86.59,0-180.17-11.74-272-41.75-292.5-95.6-470.33-306.21-500.54-397.72-43.56-131.91-44.72-270.6-3.36-401.08h0c53.93-170.14,163.74-279.71,326.39-325.65,141.8-40.06,320.7-28.27,517.36,34s349.68,155.76,442.51,270.18c106.49,131.25,133.14,284.06,79.22,454.21-41.36,130.48-122.2,243.18-233.79,325.92C2610.33,1857.17,2471.87,1899.06,2308.38,1899.06ZM2039.79,747.42c-61.59,0-118.8,7.28-170.58,21.91-149.61,42.26-250.74,143.4-300.57,300.63h0c-38.94,122.83-37.82,253.46,3.21,377.75,27.24,82.5,200.12,283.3,476.33,373.58,249.22,81.47,518.81,20.84,593.45-34.51,105.14-78,181.3-184.1,220.23-306.93,135-425.89-302.64-615.19-497.05-676.81C2248.14,766.06,2138.35,747.42,2039.79,747.42Zm-489.21,316.81h0Z" transform="translate(-810.12 -527.55)"/><g class="cls-6"><ellipse class="cls-1" cx="1781.51" cy="1085.65" rx="124.17" ry="89.97" transform="translate(-332.27 2186.87) rotate(-82.68)"/></g><g class="cls-6"><ellipse class="cls-1" cx="1812.26" cy="1353.42" rx="48.91" ry="56.99" transform="translate(-824.81 -507.65) rotate(-0.63)"/></g><g class="cls-4"><path class="cls-7" d="M1782.26,782.1c-105.83,51.78-187.56,143-231.67,282.12-41.49,130.9-37.49,265.88,3.25,389.43,30.6,92.64,212.75,295.53,488.46,385.68,97.35,31.85,197.71,42.43,289.06,40.12-336.55-118-558-366.4-595.94-481.29-51.79-156.83-56.81-328.16-4.15-494.23A710.77,710.77,0,0,1,1782.26,782.1Z" transform="translate(-810.12 -527.55)"/></g><path class="cls-3" d="M2923.4,1193.27a18.88,18.88,0,0,1-17.44-11.62l-.2-.5-.51-1.48c-59-197.88-246.6-360.09-514.65-445.05C2124,650.13,1878,671.68,1715.5,793.73l-2.07,1.56-2.41.94a19,19,0,0,1-17.45-33.42c172.38-129,430.52-152.4,708.48-64.32,280.14,88.8,476.75,260.16,539.47,470.18a19,19,0,0,1-18.12,24.6Z" transform="translate(-810.12 -527.55)"/><g class="cls-6"><path class="cls-1" d="M2665.34,1644.3s215.57-307.67,74.58-502.19-406.08-277.94-405.27-259c0,0,270.79,164,312,432.2C2678.53,1522.16,2665.34,1644.3,2665.34,1644.3Z" transform="translate(-810.12 -527.55)"/></g></svg>