<svg id="Layer_1" data-name="Layer 1" xmlns="http://www.w3.org/2000/svg" viewBox="0 0 3101.53 3212.95"><defs><style>.cls-1{fill:#fff;}.cls-2{fill:#ffc239;}.cls-3{fill:#371b45;}.cls-4{opacity:0.25;}.cls-5{opacity:0.35;}.cls-6{opacity:0.5;}.cls-7{fill:#121a27;}.cls-8{fill:#ffd244;}.cls-9{fill:#f7aa3a;}.cls-10{fill:#f08741;}.cls-11{fill:#3ba1da;}.cls-12{opacity:0.7;}</style></defs><title>finish-cosmic</title><path class="cls-1" d="M1472.45,3544.92c0,5-10.19,9.31-25.41,11.69a18,18,0,0,0-14.94,14.94c-2.39,15.22-6.72,25.41-11.69,25.41s-9.3-10.19-11.69-25.41a18,18,0,0,0-14.94-14.94c-15.23-2.38-25.45-6.72-25.45-11.69s10.21-9.34,25.43-11.71a18,18,0,0,0,15-14.94c2.39-15.24,6.72-25.42,11.69-25.42s9.3,10.18,11.69,25.42a18,18,0,0,0,15,14.94C1462.27,3535.58,1472.45,3539.92,1472.45,3544.92Z" transform="translate(-500.12 -407.05)"/><path class="cls-1" d="M3122.9,2030.75c0,5-10.19,9.3-25.4,11.69a18,18,0,0,0-14.94,14.94c-2.39,15.22-6.72,25.41-11.69,25.41s-9.31-10.19-11.7-25.41a18,18,0,0,0-14.94-14.94c-15.23-2.39-25.44-6.72-25.44-11.69s10.21-9.34,25.42-11.71a18,18,0,0,0,15-14.94c2.38-15.24,6.72-25.43,11.69-25.43s9.3,10.19,11.69,25.43a17.94,17.94,0,0,0,15,14.94C3112.72,2021.41,3122.9,2025.75,3122.9,2030.75Z" transform="translate(-500.12 -407.05)"/><path class="cls-1" d="M2217.74,2085.93c0,5-10.19,9.3-25.4,11.69a17.93,17.93,0,0,0-14.94,14.94c-2.39,15.21-6.73,25.4-11.7,25.4s-9.3-10.19-11.69-25.4a17.93,17.93,0,0,0-14.94-14.94c-15.23-2.39-25.44-6.72-25.44-11.69s10.2-9.34,25.42-11.71a18,18,0,0,0,15-14.95c2.39-15.23,6.72-25.42,11.69-25.42s9.31,10.19,11.7,25.42a18,18,0,0,0,14.95,14.95C2207.56,2076.59,2217.74,2080.93,2217.74,2085.93Z" transform="translate(-500.12 -407.05)"/><path class="cls-1" d="M3431.13,1045c0,5-10.19,9.31-25.41,11.69a18,18,0,0,0-14.93,14.94c-2.39,15.22-6.73,25.41-11.7,25.41s-9.3-10.19-11.69-25.41a18,18,0,0,0-14.94-14.94c-15.23-2.38-25.44-6.72-25.44-11.69s10.2-9.34,25.42-11.71a17.93,17.93,0,0,0,15-14.94c2.39-15.24,6.72-25.42,11.69-25.42s9.31,10.18,11.69,25.42a18,18,0,0,0,15,14.94C3421,1035.64,3431.13,1040,3431.13,1045Z" transform="translate(-500.12 -407.05)"/><path class="cls-1" d="M658.45,2085.93c0,5-10.18,9.3-25.4,11.69a17.93,17.93,0,0,0-14.94,14.94c-2.39,15.21-6.72,25.4-11.69,25.4s-9.31-10.19-11.69-25.4a18,18,0,0,0-15-14.94c-15.23-2.39-25.44-6.72-25.44-11.69s10.21-9.34,25.43-11.71a18,18,0,0,0,15-14.95c2.38-15.23,6.72-25.42,11.69-25.42s9.3,10.19,11.69,25.42a18,18,0,0,0,15,14.95C648.27,2076.59,658.45,2080.93,658.45,2085.93Z" transform="translate(-500.12 -407.05)"/><path class="cls-1" d="M3310.51,3437.22c0,5-10.19,9.31-25.41,11.69a18,18,0,0,0-14.94,14.94c-2.38,15.22-6.72,25.41-11.69,25.41s-9.3-10.19-11.69-25.41a18,18,0,0,0-14.94-14.94c-15.23-2.38-25.44-6.72-25.44-11.69s10.2-9.34,25.42-11.71a17.93,17.93,0,0,0,15-14.94c2.39-15.24,6.72-25.42,11.69-25.42s9.31,10.18,11.69,25.42a18,18,0,0,0,15,14.94C3300.33,3427.88,3310.51,3432.22,3310.51,3437.22Z" transform="translate(-500.12 -407.05)"/><path class="cls-1" d="M3579.55,2718.06c0,3.05-6.24,5.7-15.56,7.16a11,11,0,0,0-9.14,9.15c-1.46,9.32-4.12,15.55-7.16,15.55s-5.7-6.23-7.16-15.55a11,11,0,0,0-9.15-9.15c-9.32-1.46-15.57-4.11-15.57-7.16s6.24-5.71,15.56-7.17a11,11,0,0,0,9.16-9.15c1.46-9.32,4.12-15.56,7.16-15.56s5.7,6.24,7.16,15.56a11,11,0,0,0,9.16,9.15C3573.32,2712.35,3579.55,2715,3579.55,2718.06Z" transform="translate(-500.12 -407.05)"/><path class="cls-1" d="M586.21,2886.39c0,3-6.23,5.7-15.55,7.16a11,11,0,0,0-9.15,9.15c-1.46,9.31-4.11,15.55-7.16,15.55s-5.69-6.24-7.16-15.55a11,11,0,0,0-9.14-9.15c-9.33-1.46-15.58-4.12-15.58-7.16s6.25-5.72,15.57-7.17a11,11,0,0,0,9.16-9.15c1.46-9.33,4.11-15.56,7.15-15.56s5.7,6.23,7.16,15.56a11,11,0,0,0,9.16,9.15C580,2880.67,586.21,2883.33,586.21,2886.39Z" transform="translate(-500.12 -407.05)"/><path class="cls-2" d="M1443.87,2964.93c0,3.05-6.24,5.7-15.56,7.16a11,11,0,0,0-9.14,9.15c-1.47,9.32-4.12,15.55-7.16,15.55s-5.7-6.23-7.16-15.55a11,11,0,0,0-9.15-9.15c-9.32-1.46-15.58-4.11-15.58-7.16s6.25-5.71,15.57-7.17a11,11,0,0,0,9.16-9.15c1.46-9.32,4.11-15.56,7.16-15.56s5.69,6.24,7.15,15.56a11,11,0,0,0,9.16,9.15C1437.63,2959.22,1443.87,2961.87,1443.87,2964.93Z" transform="translate(-500.12 -407.05)"/><path class="cls-1" d="M1732.41,2456c0,3-6.24,5.69-15.56,7.16a11,11,0,0,0-9.15,9.14c-1.46,9.32-4.11,15.56-7.15,15.56s-5.7-6.24-7.16-15.56a11,11,0,0,0-9.15-9.14c-9.33-1.47-15.58-4.12-15.58-7.16s6.25-5.72,15.57-7.17a11,11,0,0,0,9.16-9.15c1.46-9.33,4.11-15.57,7.16-15.57s5.69,6.24,7.15,15.57a11,11,0,0,0,9.16,9.15C1726.17,2450.32,1732.41,2453,1732.41,2456Z" transform="translate(-500.12 -407.05)"/><path class="cls-1" d="M722.2,3467.89c0,3.05-6.24,5.7-15.56,7.16a11,11,0,0,0-9.14,9.15c-1.47,9.32-4.12,15.55-7.16,15.55s-5.7-6.23-7.16-15.55a11,11,0,0,0-9.15-9.15c-9.32-1.46-15.58-4.11-15.58-7.16s6.25-5.71,15.57-7.16a11,11,0,0,0,9.16-9.16c1.46-9.32,4.12-15.56,7.16-15.56s5.69,6.24,7.16,15.57a11,11,0,0,0,9.15,9.15C716,3462.18,722.2,3464.83,722.2,3467.89Z" transform="translate(-500.12 -407.05)"/><path class="cls-1" d="M2895,496.38c0,4.15-8.5,7.77-21.19,9.76a15,15,0,0,0-12.46,12.46c-2,12.69-5.61,21.19-9.75,21.19s-7.77-8.5-9.76-21.19a15,15,0,0,0-12.46-12.46c-12.7-2-21.22-5.61-21.22-9.76s8.51-7.79,21.2-9.76a15,15,0,0,0,12.48-12.47c2-12.71,5.61-21.2,9.76-21.2s7.76,8.49,9.75,21.2a15,15,0,0,0,12.48,12.47C2886.53,488.6,2895,492.21,2895,496.38Z" transform="translate(-500.12 -407.05)"/><circle class="cls-1" cx="2917.37" cy="1554.83" r="22.35" transform="translate(-731.08 2156.03) rotate(-45.81)"/><circle class="cls-1" cx="3048.5" cy="2821.52" r="22.35" transform="translate(-432.89 5306.93) rotate(-86.92)"/><circle class="cls-1" cx="967.12" cy="1518.74" r="22.35" transform="translate(-1296.13 746.62) rotate(-45.81)"/><circle class="cls-1" cx="544.82" cy="1422.98" r="22.35" transform="translate(-1346.74 394.97) rotate(-45)"/><circle class="cls-1" cx="1252.49" cy="1983.06" r="22.35" transform="translate(-1535.51 1059.41) rotate(-45)"/><circle class="cls-1" cx="3579.3" cy="1544.21" r="22.35" transform="translate(-522.89 2627.46) rotate(-45.81)"/><circle class="cls-1" cx="522.47" cy="702.75" r="22.35" transform="translate(-844.01 168.22) rotate(-45)"/><circle class="cls-1" cx="2485.08" cy="3597.65" r="22.35" transform="translate(-2316.17 2403.89) rotate(-45)"/><circle class="cls-2" cx="1691.01" cy="1948.57" r="22.35" transform="translate(-1382.68 1359.39) rotate(-45)"/><circle class="cls-2" cx="1967.13" cy="3054.59" r="22.35" transform="translate(-2083.88 1878.59) rotate(-45)"/><circle class="cls-1" cx="1219.75" cy="631.78" r="22.35" transform="translate(-245.96 1201.75) rotate(-72.72)"/><path class="cls-1" d="M2559.68,1581.86v572.8c0,108.62-83.34,197.53-185.2,197.53h-566.4c-101.81,0-185.21-88.91-185.21-197.53v-572.8a206.11,206.11,0,0,1,19.27-87.36,198.55,198.55,0,0,1,33.73-50.59c.54-.63,1.16-1.29,1.73-1.92,31.47-33.37,74.1-54.87,121.13-57.4,3.12-.18,6.23-.27,9.35-.27h566.44c56.24,0,106.76,27.1,140.75,69.6a199.8,199.8,0,0,1,27.68,46.15,206.7,206.7,0,0,1,16.73,81.79" transform="translate(-500.12 -407.05)"/><path class="cls-3" d="M2368.42,2373H1814.16c-116.94,0-212.08-95.14-212.08-212.09V1575.58c0-116.94,95.14-212.08,212.08-212.08h554.26c116.95,0,212.09,95.14,212.09,212.08V2160.9C2580.51,2277.85,2485.37,2373,2368.42,2373Zm-554.26-967.84c-94,0-170.43,76.45-170.43,170.43V2160.9c0,94,76.45,170.44,170.43,170.44h554.26c94,0,170.44-76.46,170.44-170.44V1575.58c0-94-76.46-170.43-170.44-170.43Z" transform="translate(-500.12 -407.05)"/><path class="cls-1" d="M2973,1469.68s-10.22,298.55-235.45,380.1a329.89,329.89,0,0,1-59.14,15.27c-82,13.46-143.84-12.91-185.81-43.79-44.93-33-67.13-71.24-67.13-71.24l-36.67-137.7-42.24-158.93-19.26-72.33s95.57,89.81,193.73,116.9c34.5,9.51,69.34,11.25,100.49-1.34,40.92-16.58,75.39-58,94.35-139.19Z" transform="translate(-500.12 -407.05)"/><path class="cls-1" d="M2737.54,1849.78a329.46,329.46,0,0,1-59.14,15.27c-82,13.46-143.85-12.91-185.81-43.79-44.93-33-67.14-71.24-67.14-71.24l-36.66-137.7-42.24-158.93-19.25-72.33s95.56,89.81,193.72,116.9c34.5,9.51,69.34,11.25,100.49-1.34-4.9,36-18.81,161.66,10.83,247.22,25.25,72.94,50.95,102.65,105.2,105.94" transform="translate(-500.12 -407.05)"/><g class="cls-4"><path class="cls-3" d="M2678.64,1875c-169.93,27.92-253-115-253-115-5.25-21,26.88-115.84,43.75-102.27,41.92,33.73,99,144.31,187.31,129.81,199.67-32.77,307.12-235.74,104.22-331l212.22,23.12s-11.9,349-294.54,395.37" transform="translate(-500.12 -407.05)"/></g><path class="cls-3" d="M2635.5,1889.45c-151.24,0-227.24-127.55-228.06-129a20.82,20.82,0,1,1,36-20.92c3.1,5.28,78.36,130.09,231.59,104.92,109.26-17.93,189-85.68,236.94-201.37,27.94-67.39,36.61-132.54,39.17-160.24l-221.36-96.63c-21.78,72.89-59.49,117.87-112.29,133.83-129.22,39.05-297.38-117.16-304.48-123.83a20.82,20.82,0,0,1,28.51-30.35c1.57,1.47,157.73,146.48,264,114.3,43.08-13,73.41-55.93,90.11-127.48l5.69-24.35,293,127.89-.49,14.13c-.12,3.72-3.55,92.09-42.84,187.5-53,128.76-146.09,207.5-269.15,227.7A285.36,285.36,0,0,1,2635.5,1889.45Z" transform="translate(-500.12 -407.05)"/><path class="cls-3" d="M2732.32,1865.68c-28.86,0-53.83-9.83-74.5-29.36-89.63-84.72-57.86-332.18-56.47-342.67a20.83,20.83,0,0,1,41.29,5.49c-8.7,65.63-17.8,248.73,43.81,306.93,16.86,15.93,38.2,21.16,65.27,16a20.82,20.82,0,0,1,7.8,40.91A144.86,144.86,0,0,1,2732.32,1865.68Z" transform="translate(-500.12 -407.05)"/><path class="cls-1" d="M2690,1360c30.17,161.55,191.91,155,236.78,146.55,93.58-17.71,129.8-103.16,129.8-103.16L2987.13,1301l-30.38-55-39-14c-28.17-58.31-91.09-126-130.32-105.34,0,0-123.5,94-97.49,233.31" transform="translate(-500.12 -407.05)"/><g class="cls-4"><path class="cls-3" d="M3073.18,1362.56c-2.58,49.72-70,91.44-209.38,67.83-49.07-8.32-87.92-45-85.34-94.69a90.13,90.13,0,0,1,94.68-85.34c49.72,2.58,202.62,62.49,200,112.2" transform="translate(-500.12 -407.05)"/></g><path class="cls-1" d="M3076.35,1191.48c-38.72,35-72.35,60.59-72.35,60.59l-108.78,100.34-60.88-173.85s1.38-34.38,6.42-79.71c9.89-89.77,34-222.45,89.43-216.11,99.74,11.41,19.86,271.51,19.86,271.51s170.8-204.69,231.65-140.88c35.6,37.34-41.75,120.52-105.35,178.11" transform="translate(-500.12 -407.05)"/><g class="cls-4"><path class="cls-3" d="M3076.58,1201.42c-38.72,35-72.36,60.59-72.36,60.59l-108.77,100.34-60.88-173.84s1.38-34.38,6.42-79.71c25.71,22.58,73.75,63.66,90.06,87.49,28.09,41,105.55-4.77,145.53,5.13" transform="translate(-500.12 -407.05)"/></g><path class="cls-3" d="M2895.22,1373.25a21.13,21.13,0,0,1-5-.62,20.84,20.84,0,0,1-14.62-13.33l-60.87-173.88a20.72,20.72,0,0,1-1.15-7.73c1-25.08,11.8-246.66,75.87-301.53,12.83-11,27.7-15.87,43.15-14.11,20.81,2.38,38,13,49.58,30.8,28.19,43.08,19.8,125.5,7.54,187.88,45.62-45.14,110-98.81,159.6-100.45,18.81-.61,35.21,5.86,47.5,18.75,10.85,11.37,15.88,26.27,14.53,43.08-6.41,80.25-171.24,208.61-193.91,225.91l-108.06,99.71A20.84,20.84,0,0,1,2895.22,1373.25Zm-39.9-197.82,49.08,140.19,85.48-78.88c.48-.44,1-.87,1.52-1.27,67-50.92,174.63-149.35,178.4-196.68.5-6.27-1.32-9.1-3.16-11-2.75-2.88-6.92-6.14-16-5.86-47.15,1.56-138.28,90.2-184.63,145.72a20.83,20.83,0,0,1-35.9-19.46c20.9-68.11,44-191.46,17.16-232.51-4.9-7.47-10.9-11.24-19.46-12.22-2.54-.28-6.16-.06-11.34,4.36C2879.08,939.84,2859.31,1087.17,2855.32,1175.43Z" transform="translate(-500.12 -407.05)"/><path class="cls-1" d="M3076.41,1386c-26.58,38.57-131.6,51.78-168.67,19.82-31.53-27.21,3-58,12.74-65.78,1.52-1.23,2.47-1.87,2.47-1.87s-39.35-14.32-44.59-48.36a46.25,46.25,0,0,1-.55-6.9c-.44-39,105.05-67.13,151.76-57.11,34.92,7.5,47.61,22.54,50.13,38,2.69,16.52-6.16,33.58-11.95,42.66-2.67,4.13-4.67,6.58-4.67,6.58s34.64,42,13.33,72.91" transform="translate(-500.12 -407.05)"/><g class="cls-4"><path class="cls-3" d="M3068,1316.42c-28.55,12.81-85.58,34.15-147.26,33.55,1.52-1.24,2.47-1.88,2.47-1.88s-39.35-14.33-44.6-48.36c36.48,10,137.61,30.66,201.35-26,2.69,16.52-6.16,33.58-12,42.65" transform="translate(-500.12 -407.05)"/></g><g class="cls-4"><path class="cls-3" d="M3076.64,1395.91c-26.58,38.58-131.6,51.79-168.67,19.83-15.51-13.36-15-27.58-9.42-39.53a50.64,50.64,0,0,0,6,6.14c37,32,142.05,18.74,168.62-19.79a37.47,37.47,0,0,0,5.65-12.44c5.42,14,7.9,31.12-2.19,45.79" transform="translate(-500.12 -407.05)"/></g><path class="cls-3" d="M2972.55,1444.6c-32.85,0-61.06-8.09-78.39-23-17.7-15.26-20.75-31.85-20.18-43.07.69-14,7.31-26.37,14.79-36-16.45-12.8-31.45-32.51-31.77-59.35-.12-10.45,3.65-26.1,22.29-41.36,37.32-30.53,115.12-44.88,154.67-36.39h0c34.37,7.37,55.86,22.68,63.87,45.49,8.33,23.72-1.24,47.47-9.52,61.88,13.76,22.48,24.82,56.66,5.25,85-15.63,22.66-50.53,39.47-93.36,45A216.83,216.83,0,0,1,2972.55,1444.6Zm34.92-200.06c-32.25,0-80.1,11.73-101.81,29.49-5.75,4.71-7,7.88-7,8.63.29,23.89,31.22,35.84,31.54,35.95a20.88,20.88,0,0,1,4.73,36.58c-7.84,5.6-19,17.59-19.34,25.42-.05,1.06-.2,4.27,5.78,9.42,12.62,10.88,42.17,15.47,73.54,11.45,29.89-3.84,55.77-14.82,64.39-27.32,11.68-16.94-12.08-47.59-12.32-47.89a20.91,20.91,0,0,1,0-26.35c5.42-6.77,15.47-24.42,11.6-35.28-2.84-7.94-14.66-14.52-33.3-18.52h0A86.65,86.65,0,0,0,3007.47,1244.54Z" transform="translate(-500.12 -407.05)"/><path class="cls-3" d="M2947.94,1360.33a247.89,247.89,0,0,1-27.29-1.49,20.82,20.82,0,0,1,4.59-41.39c68.4,7.58,127.64-22.55,128.23-22.86a20.83,20.83,0,0,1,19.24,36.94C3070.18,1332.85,3016.67,1360.33,2947.94,1360.33Z" transform="translate(-500.12 -407.05)"/><path class="cls-1" d="M2787.47,1126.73c52.07-27.5,145.8,100.72,144.77,156-.78,42.22-52.52,74.79-109.38,17.92-57.61-57.62-117.16-130.76-35.39-173.94" transform="translate(-500.12 -407.05)"/><path class="cls-1" d="M3056.56,1403.43s-36.25,85.42-129.79,103.13c-44.88,8.5-206.63,15-236.8-146.55-26-139.25,97.5-233.28,97.5-233.28,52.07-27.5,145.8,100.72,144.77,156-.78,42.22-64.65,62.87-113.27-14,0,0,24.14,68.79-37.25,111.7l23.25,43,111.65,44.26,106.21-15.07Z" transform="translate(-500.12 -407.05)"/><path class="cls-1" d="M2810.87,1349.57l-2.69-1.73c2.17-1.52,4.16-3,6.06-4.6-1,2.08-2.13,4.21-3.37,6.33" transform="translate(-500.12 -407.05)"/><g class="cls-4"><path class="cls-3" d="M2822,1266.3c-6-27.61,68.63,45.77,110.24,30.07-3.72,34.12-49.82,51.65-92.67,8.34-1.54-22.06-17.57-38.41-17.57-38.41" transform="translate(-500.12 -407.05)"/></g><g class="cls-4"><path class="cls-3" d="M3004.92,1455.2l17.93-2.53c-20.82,22.31-52.15,45.58-96.08,53.9-44.9,8.51-206.64,15-236.8-146.57-17.71-94.75,33.86-168.61,68.61-206.08-28.84,41.1-55.66,101.23-42.17,173.51,35,187.29,187.71,155.86,236.8,146.57a169.53,169.53,0,0,0,51.71-18.8" transform="translate(-500.12 -407.05)"/></g><path class="cls-1" d="M3056.52,1403.5a141.54,141.54,0,0,1-9.06,16.87l-2.75.4Z" transform="translate(-500.12 -407.05)"/><path class="cls-1" d="M3049.29,1420.1c-1.54,1.65-3.13,3.34-4.8,5l3-4.71Z" transform="translate(-500.12 -407.05)"/><path class="cls-3" d="M2746.69,1476.69a141.23,141.23,0,0,1-39.51-35.16,168,168,0,0,1-14.66-22.45,187.26,187.26,0,0,1-10.95-24.38,221.44,221.44,0,0,1-11.18-105.1,242.51,242.51,0,0,1,13-51.7,278.17,278.17,0,0,1,23.2-47.43,322.67,322.67,0,0,1,31-42.22q8.55-9.88,17.85-19.13c3.13-3.06,6.29-6.1,9.58-9.06s6.42-5.72,10.57-9l.48-.38a11.27,11.27,0,0,1,2.26-1.37,83.36,83.36,0,0,1,9-3.71c3.11-.74,6.31-1.79,9.41-2a51.54,51.54,0,0,1,9.23-.35,50.24,50.24,0,0,1,8.7,1c11.19,2.08,20.52,6.38,28.89,11.15a150.87,150.87,0,0,1,22.57,16.17,218.6,218.6,0,0,1,19.17,18.38,300.52,300.52,0,0,1,31.91,40.9,278.3,278.3,0,0,1,24.41,46.25,159.23,159.23,0,0,1,8.21,26.52,86.14,86.14,0,0,1,1.89,15.23l.08,4.11-.29,4.45a56.87,56.87,0,0,1-21.33,39.33,60.56,60.56,0,0,1-32.62,12.39,74.44,74.44,0,0,1-31.87-4.73,98.68,98.68,0,0,1-25.89-14.66c-15.26-11.82-26.42-26.45-35.78-41.43l0,0,31.84-15.41a83.27,83.27,0,0,1,2.07,9.8c.49,3,.84,6,1.09,9.06a139.33,139.33,0,0,1,.28,18,114.29,114.29,0,0,1-7.47,35.22c-1.94,5.69-5,11-7.81,16.22-3.35,5-6.52,10-10.62,14.33-3.69,4.64-8.21,8.38-12.54,12.23a57.54,57.54,0,0,1-6.9,5.15l-7,4.84a8.87,8.87,0,0,1-11.05-13.81l.85-.79,5.34-4.94c1.73-1.68,3.68-3.13,5.1-5.06,3.05-3.66,6.27-7.1,8.58-11.16,2.76-3.76,4.54-8,6.57-12.09,1.51-4.32,3.28-8.47,4.07-13a85.82,85.82,0,0,0,1.78-27,105.52,105.52,0,0,0-2.16-13.41q-.75-3.32-1.74-6.46a47.06,47.06,0,0,0-2-5.46,17.52,17.52,0,0,1,29.79-18.2l2,2.79,0,0c8.08,12.17,17.51,23.18,28.12,31,10.44,7.92,22.36,12.19,32.06,11.11a22.39,22.39,0,0,0,12.06-4.68,17.42,17.42,0,0,0,5.94-9.69,18.11,18.11,0,0,0,.45-3l.08-1.61-.11-2a31.77,31.77,0,0,0-.44-4.2c-.11-1.42-.53-3-.82-4.59a121,121,0,0,0-6.32-19.72c-11.24-26.85-28.8-53-48.88-74.81a176.51,176.51,0,0,0-15.81-15.22,112.33,112.33,0,0,0-16.76-12.12c-5.63-3.27-11.32-5.62-16.05-6.48s-8-.44-10.89.93l2.73-1.75c-2.3,1.78-5.5,4.48-8.23,6.91s-5.63,5.13-8.4,7.79c-5.51,5.34-10.82,10.94-15.92,16.73a283.45,283.45,0,0,0-27.64,36.88,250.52,250.52,0,0,0-20.74,40.6,205.07,205.07,0,0,0-11.78,43.48c-4.65,29.62-1.53,60.14,6.73,89.42a195.21,195.21,0,0,0,17.07,41.65,189.48,189.48,0,0,0,27.2,36.83l.13.15a9,9,0,0,1-11.13,13.85" transform="translate(-500.12 -407.05)"/><path class="cls-3" d="M3073,1410.38a112.08,112.08,0,0,1-5.11,11.53c-1.79,3.56-3.74,7-5.79,10.31a171.27,171.27,0,0,1-13.61,19.1,180.68,180.68,0,0,1-34.21,31.9c-6.16,4.8-13.11,8.56-19.73,12.59-7.07,3.39-13.89,7.1-21.28,9.56-14.42,5.78-29.8,8.39-44.8,9.94a8.92,8.92,0,0,1-4-17.23l.73-.27c12.89-4.82,25.42-9.62,36.68-16.74,5.9-3,11.06-7.27,16.52-10.82,5.09-4.2,10.32-8.09,15-12.73a220.29,220.29,0,0,0,26-29.21c1.88-2.66,3.77-5.31,5.73-7.92l5.43-8.09c1.74-2.74,3.52-5.44,5.16-8.18l4.6-7.64,1-1.6a17.76,17.76,0,0,1,31.81,15.5" transform="translate(-500.12 -407.05)"/><path class="cls-1" d="M1226.92,1469.68s10.22,298.55,235.45,380.1a329.46,329.46,0,0,0,59.14,15.27c82,13.46,143.84-12.91,185.81-43.79,44.93-33,67.14-71.24,67.14-71.24l36.66-137.7,42.24-158.93,19.26-72.33s-95.57,89.81-193.73,116.9c-34.5,9.51-69.34,11.25-100.49-1.34-40.92-16.58-75.4-58-94.35-139.19Z" transform="translate(-500.12 -407.05)"/><path class="cls-1" d="M1462.37,1849.78a329.46,329.46,0,0,0,59.14,15.27c82,13.46,143.84-12.91,185.81-43.79,44.93-33,67.14-71.24,67.14-71.24l36.66-137.7,42.24-158.93,19.26-72.33s-95.57,89.81-193.73,116.9c-34.5,9.51-69.34,11.25-100.49-1.34,4.9,36,18.81,161.66-10.83,247.22-25.25,72.94-51,102.65-105.2,105.94" transform="translate(-500.12 -407.05)"/><g class="cls-4"><path class="cls-3" d="M1521.27,1875c169.93,27.92,253-115,253-115,5.26-21-37-106-53.83-92.41-41.91,33.73-89,134.45-177.22,120-199.66-32.77-307.12-235.74-104.22-331l-212.22,23.12s11.9,349,294.54,395.37" transform="translate(-500.12 -407.05)"/></g><path class="cls-3" d="M1564.41,1889.45a285.45,285.45,0,0,1-46.29-3.86c-123.06-20.2-216.13-98.94-269.14-227.7-39.29-95.41-42.72-183.78-42.85-187.5l-.48-14.13,293-127.9,5.69,24.36c16.7,71.55,47,114.44,90.11,127.48,106.28,32.18,262.39-112.84,263.95-114.3a20.82,20.82,0,0,1,28.52,30.35c-7.1,6.67-175.2,162.88-304.48,123.83-52.8-16-90.51-60.94-112.29-133.83l-221.35,96.63c2.55,27.69,11.22,92.85,39.16,160.24,48,115.69,127.69,183.44,236.94,201.37,153.16,25.16,228.49-99.64,231.62-105a20.82,20.82,0,0,1,36,21C1791.65,1761.9,1715.62,1889.44,1564.41,1889.45Z" transform="translate(-500.12 -407.05)"/><path class="cls-3" d="M1467.59,1865.68a144.78,144.78,0,0,1-27.2-2.7,20.82,20.82,0,1,1,7.8-40.91c27,5.17,48.41-.07,65.27-16,61.6-58.2,52.51-241.3,43.81-306.93a20.83,20.83,0,0,1,41.29-5.49c1.39,10.49,33.15,257.95-56.47,342.67C1521.42,1855.85,1496.45,1865.67,1467.59,1865.68Z" transform="translate(-500.12 -407.05)"/><path class="cls-1" d="M1509.94,1360c-30.17,161.55-191.91,155-236.78,146.55-93.58-17.71-129.81-103.16-129.81-103.16L1212.78,1301l30.38-55,39-14c28.17-58.31,91.09-126,130.32-105.34,0,0,123.5,94,97.49,233.31" transform="translate(-500.12 -407.05)"/><g class="cls-4"><path class="cls-3" d="M1126.73,1362.56c2.58,49.72,70,91.44,209.37,67.83,49.08-8.32,87.93-45,85.35-94.69a90.14,90.14,0,0,0-94.69-85.34c-49.71,2.58-202.61,62.49-200,112.2" transform="translate(-500.12 -407.05)"/></g><path class="cls-1" d="M1123.56,1191.48c38.72,35,72.35,60.59,72.35,60.59l108.78,100.34,60.87-173.85s-1.37-34.38-6.41-79.71c-9.89-89.77-34-222.45-89.43-216.11-99.75,11.41-19.86,271.51-19.86,271.51s-170.8-204.69-231.65-140.88c-35.6,37.34,41.75,120.52,105.35,178.11" transform="translate(-500.12 -407.05)"/><g class="cls-4"><path class="cls-3" d="M1123.33,1201.42c38.72,35,72.36,60.59,72.36,60.59l108.77,100.34,60.88-173.84s-1.38-34.38-6.41-79.71c-25.73,22.58-73.76,63.66-90.07,87.49-28.09,41-105.55-4.77-145.53,5.13" transform="translate(-500.12 -407.05)"/></g><path class="cls-3" d="M1304.69,1373.25a20.82,20.82,0,0,1-14.12-5.52L1182.51,1268c-22.68-17.3-187.5-145.66-193.92-225.91-1.34-16.81,3.69-31.71,14.54-43.09,12.28-12.88,28.71-19.34,47.51-18.74,49.6,1.64,114,55.31,159.59,100.45-12.26-62.38-20.64-144.8,7.54-187.88,11.63-17.77,28.77-28.42,49.58-30.8,15.42-1.75,30.32,3.12,43.15,14.11,64.08,54.87,74.85,276.45,75.87,301.53a20.93,20.93,0,0,1-1.15,7.73l-60.87,173.88a20.84,20.84,0,0,1-14.62,13.33A21.07,21.07,0,0,1,1304.69,1373.25Zm-256.55-351.36c-8.18,0-12.24,3.11-14.87,5.87-1.84,1.93-3.66,4.76-3.16,11,3.77,47.33,111.43,145.76,178.4,196.68.52.4,1,.83,1.52,1.27l85.48,78.88,49.08-140.19c-4-88.27-23.79-235.63-61.18-267.64-5.18-4.43-8.78-4.66-11.32-4.36-8.57,1-14.57,4.75-19.47,12.22-26.9,41.12-3.76,164.44,17.16,232.51a20.83,20.83,0,0,1-35.9,19.46c-46.35-55.51-137.47-144.16-184.63-145.72Z" transform="translate(-500.12 -407.05)"/><path class="cls-1" d="M1123.5,1386c26.57,38.57,131.6,51.78,168.67,19.82,31.53-27.21-3-58-12.74-65.78-1.52-1.23-2.47-1.87-2.47-1.87s39.35-14.32,44.6-48.36a49.08,49.08,0,0,0,.55-6.9c.43-39-105.06-67.13-151.77-57.11-34.92,7.5-47.61,22.54-50.12,38-2.7,16.52,6.15,33.58,11.94,42.66,2.67,4.13,4.67,6.58,4.67,6.58s-34.64,42-13.33,72.91" transform="translate(-500.12 -407.05)"/><g class="cls-4"><path class="cls-3" d="M1131.93,1316.42c28.56,12.81,85.6,34.15,147.27,33.55-1.52-1.24-2.46-1.88-2.46-1.88s39.34-14.33,44.59-48.36c-36.49,10-137.61,30.66-201.35-26-2.69,16.52,6.16,33.58,12,42.65" transform="translate(-500.12 -407.05)"/></g><g class="cls-4"><path class="cls-3" d="M1123.27,1395.91c26.58,38.58,131.6,51.79,168.67,19.83,15.51-13.36,15-27.58,9.42-39.53a50.64,50.64,0,0,1-6,6.14c-37,32-142,18.74-168.62-19.79a37.47,37.47,0,0,1-5.65-12.44c-5.42,14-7.9,31.12,2.19,45.79" transform="translate(-500.12 -407.05)"/></g><path class="cls-3" d="M1227.35,1444.6a216.8,216.8,0,0,1-27.64-1.82c-42.83-5.5-77.73-22.31-93.36-45-19.57-28.37-8.51-62.56,5.25-85-8.28-14.41-17.85-38.16-9.52-61.88,8-22.81,29.51-38.12,63.88-45.49,39.53-8.47,117.33,5.86,154.65,36.39,18.65,15.26,22.42,30.91,22.3,41.36-.32,26.84-15.33,46.55-31.77,59.35,7.48,9.64,14.1,22,14.79,36,.56,11.22-2.49,27.81-20.18,43.06C1288.42,1436.51,1260.2,1444.6,1227.35,1444.6Zm-34.91-200.06a86.48,86.48,0,0,0-17.74,1.58h0c-18.65,4-30.48,10.58-33.31,18.52-3.87,10.86,6.18,28.51,11.65,35.35a20.92,20.92,0,0,1-.14,26.34c-.19.24-24,30.89-12.26,47.83,8.62,12.5,34.49,23.48,64.38,27.32,31.35,4,60.91-.57,73.54-11.45,6-5.16,5.83-8.37,5.78-9.42-.36-7.83-11.5-19.82-19.41-25.47a20.87,20.87,0,0,1,4.91-36.57c.2-.07,31.14-12,31.43-35.91,0-.75-1.27-3.92-7-8.63C1272.54,1256.27,1224.69,1244.54,1192.44,1244.54Zm-22.11-18.78h0Z" transform="translate(-500.12 -407.05)"/><path class="cls-3" d="M1252,1360.33c-68.72,0-122.23-27.48-124.76-28.8a20.83,20.83,0,0,1,19.24-36.94h0c.59.31,59.85,30.44,128.23,22.86a20.82,20.82,0,1,1,4.59,41.39A248.07,248.07,0,0,1,1252,1360.33Z" transform="translate(-500.12 -407.05)"/><path class="cls-1" d="M1412.44,1126.73c-52.07-27.5-145.8,100.72-144.78,156,.79,42.22,52.53,74.79,109.39,17.92,57.61-57.62,117.16-130.76,35.39-173.94" transform="translate(-500.12 -407.05)"/><path class="cls-1" d="M1143.35,1403.43s36.25,85.42,129.79,103.13c44.88,8.5,206.62,15,236.8-146.55,26-139.25-97.5-233.28-97.5-233.28-52.07-27.5-145.8,100.72-144.77,156,.77,42.22,64.65,62.87,113.27-14,0,0-24.15,68.79,37.25,111.7l-23.25,43-111.65,44.26-106.21-15.07Z" transform="translate(-500.12 -407.05)"/><path class="cls-1" d="M1389,1349.57l2.69-1.73c-2.18-1.52-4.16-3-6.06-4.6,1,2.08,2.13,4.21,3.37,6.33" transform="translate(-500.12 -407.05)"/><g class="cls-4"><path class="cls-3" d="M1377.88,1266.3c6-27.61-68.63,45.77-110.24,30.07,3.72,34.12,49.82,51.65,92.67,8.34,1.54-22.06,17.57-38.41,17.57-38.41" transform="translate(-500.12 -407.05)"/></g><g class="cls-4"><path class="cls-3" d="M1195,1455.2l-17.93-2.53c20.81,22.31,52.15,45.58,96.08,53.9,44.9,8.51,206.65,15,236.8-146.57,17.7-94.75-33.86-168.61-68.62-206.08,28.85,41.1,55.68,101.23,42.18,173.51-35,187.29-187.71,155.86-236.8,146.57a169.53,169.53,0,0,1-51.71-18.8" transform="translate(-500.12 -407.05)"/></g><path class="cls-1" d="M1143.39,1403.5a141.54,141.54,0,0,0,9.06,16.87l2.75.4Z" transform="translate(-500.12 -407.05)"/><path class="cls-1" d="M1150.62,1420.1c1.54,1.65,3.13,3.34,4.81,5-1-1.63-2-3.21-3-4.71Z" transform="translate(-500.12 -407.05)"/><path class="cls-3" d="M1442.22,1462.69a189.43,189.43,0,0,0,27.19-36.83,194.81,194.81,0,0,0,17.08-41.66c8.26-29.27,11.38-59.79,6.73-89.41a204.48,204.48,0,0,0-11.78-43.48,251,251,0,0,0-20.75-40.6,283.45,283.45,0,0,0-27.64-36.88c-5.09-5.79-10.4-11.39-15.92-16.73-2.76-2.66-5.55-5.29-8.39-7.79s-5.92-5.13-8.23-6.91l2.73,1.75c-2.85-1.37-6.07-1.78-10.89-.93s-10.42,3.22-16,6.48a112.33,112.33,0,0,0-16.76,12.12,178,178,0,0,0-15.82,15.22c-20.07,21.84-37.64,48-48.87,74.81a123,123,0,0,0-6.32,19.72c-.3,1.55-.7,3.17-.82,4.59a32,32,0,0,0-.44,4.2l-.11,2,.08,1.61a18.34,18.34,0,0,0,6.39,12.72,22.42,22.42,0,0,0,12.06,4.68c9.7,1.08,21.63-3.19,32.06-11.1,10.61-7.79,20-18.78,28.12-31l0,0,2-2.79a17.51,17.51,0,0,1,29.79,18.19,47.06,47.06,0,0,0-2,5.46c-.67,2.1-1.24,4.25-1.73,6.46a103.79,103.79,0,0,0-2.17,13.41,85.8,85.8,0,0,0,1.78,27c.79,4.49,2.56,8.65,4.07,13,2,4.06,3.81,8.34,6.57,12.09,2.31,4.07,5.53,7.52,8.58,11.17,1.42,1.93,3.37,3.38,5.1,5.06l5.34,5,.85.78a8.86,8.86,0,0,1-11,13.81l-7-4.84c-2.31-1.68-4.83-3.12-6.9-5.16-4.33-3.84-8.85-7.58-12.54-12.22-4.1-4.29-7.27-9.34-10.61-14.33-2.84-5.23-5.88-10.52-7.83-16.22a114.56,114.56,0,0,1-7.46-35.23,137.45,137.45,0,0,1,.29-18c.24-3,.59-6,1.08-9.06a81.29,81.29,0,0,1,2.07-9.8l31.83,15.41,0,0c-9.36,15-20.53,29.61-35.78,41.43a98.43,98.43,0,0,1-25.89,14.67,74.46,74.46,0,0,1-31.87,4.73,60.63,60.63,0,0,1-32.62-12.4,56.21,56.21,0,0,1-19.78-30.41,55,55,0,0,1-1.55-8.92l-.29-4.44.08-4.11a85.45,85.45,0,0,1,1.89-15.24,160.65,160.65,0,0,1,8.21-26.51,276.81,276.81,0,0,1,24.41-46.25,299.73,299.73,0,0,1,31.91-40.9,218.6,218.6,0,0,1,19.17-18.38,151,151,0,0,1,22.58-16.17c8.36-4.78,17.68-9.07,28.88-11.15a50.24,50.24,0,0,1,8.7-1,52.48,52.48,0,0,1,9.23.35c3.1.19,6.3,1.24,9.41,2a81.37,81.37,0,0,1,9,3.71,10.84,10.84,0,0,1,2.21,1.34l.52.41c4.17,3.28,7.19,6,10.58,9s6.44,6,9.58,9.07q9.33,9.21,17.84,19.12a322.4,322.4,0,0,1,31,42.21,278,278,0,0,1,23.2,47.45,242.27,242.27,0,0,1,13,51.69,221.38,221.38,0,0,1-11.19,105.11,186.34,186.34,0,0,1-10.94,24.37,168,168,0,0,1-14.66,22.45,141.39,141.39,0,0,1-39.51,35.16,9,9,0,0,1-11.14-13.85Z" transform="translate(-500.12 -407.05)"/><path class="cls-3" d="M1159.74,1396.48l4.59,7.64c1.64,2.74,3.42,5.44,5.16,8.18l5.43,8.09c2,2.6,3.84,5.26,5.73,7.92a220.29,220.29,0,0,0,26,29.21c4.65,4.64,9.88,8.53,15,12.73,5.47,3.55,10.63,7.82,16.52,10.82,11.28,7.12,23.8,11.92,36.68,16.74l.73.28a8.91,8.91,0,0,1-4,17.21c-15-1.54-30.37-4.15-44.78-9.92-7.4-2.47-14.23-6.18-21.29-9.56-6.63-4-13.57-7.8-19.73-12.6a180.71,180.71,0,0,1-34.21-31.9,171.27,171.27,0,0,1-13.61-19.1c-2-3.34-4-6.75-5.79-10.31a109.74,109.74,0,0,1-5.11-11.52,17.77,17.77,0,0,1,31.81-15.52Z" transform="translate(-500.12 -407.05)"/><path class="cls-1" d="M1735.89,1603.82c-50,190.54-80.93,444.58-85.72,698.63h890c-4-214.92-23.73-436.3-81.78-696.07,0,0-79.56-356.33-369.52-356.14-262.82.17-353,353.58-353,353.58" transform="translate(-500.12 -407.05)"/><path class="cls-3" d="M1744.5,1606.09c-1,14.86-3.17,29.33-5.11,43.86l-3.32,21.68-3.64,21.6c-5.15,28.71-10.89,57.3-15.45,86.14q-14.09,86.4-23.75,173.57c-6.55,58.07-11.68,116.31-15.85,174.63-2,29.17-4,58.34-5.5,87.54s-2.64,58.43-3.91,87.66h0l-17.79-18.13h890l-17.8,18.13-3.76-87.29c-1.45-29.08-3.34-58.12-5.25-87.14-4-58-9.09-116-15.65-173.78s-14.4-115.43-23.51-172.9c-4.43-28.76-10-57.32-14.44-86.11l-3.26-21.62-2.8-21.73c-1.81-14.51-3.35-29.08-4-43.89v-.17a9,9,0,0,1,17.37-3.71c10.94,27.61,19.18,55.92,26,84.53,3.57,14.28,6.31,28.73,9.2,43.14s5.47,28.9,8.16,43.36q15.93,86.8,26.44,174.54t15.78,175.82c1.88,29.36,2.9,58.75,3.86,88.14l1.09,44.07.33,44.08.14,18.13h-926l.29-18.13v0l.38-44.3,1.19-44.3c1.06-29.52,2.13-59.05,4.09-88.53q5.4-88.47,15.92-176.58c7.11-58.69,15.73-117.24,26.68-175.42,2.61-14.56,5.55-29.08,8.51-43.58s6.07-29,9.66-43.37c7.25-28.73,16.28-57.11,28.48-84.46a9,9,0,0,1,17.23,4.23Z" transform="translate(-500.12 -407.05)"/><path class="cls-1" d="M2641.26,1156.78h0a11.36,11.36,0,0,1-11.44-11.28l-2.31-327.26a11.35,11.35,0,0,1,11.28-11.44,119.19,119.19,0,0,1,120,118.35l.79,111.59a119.2,119.2,0,0,1-118.35,120" transform="translate(-500.12 -407.05)"/><path class="cls-3" d="M2641.17,1160.52a15.12,15.12,0,0,1-15.1-15l-2.3-327.26a15.11,15.11,0,0,1,15-15.2,122.93,122.93,0,0,1,123.79,122.06l.79,111.6a122.95,122.95,0,0,1-122.07,123.8h-.11Zm-1.51-350h-.85a7.61,7.61,0,0,0-7.56,7.67l2.31,327.26a7.62,7.62,0,0,0,7.62,7.57h.05a115.45,115.45,0,0,0,114.64-116.27l-.79-111.59a115.45,115.45,0,0,0-115.42-114.65Z" transform="translate(-500.12 -407.05)"/><g class="cls-5"><path class="cls-3" d="M2759.24,984.41l.38,52.35a119.25,119.25,0,0,1-118.37,120,11.38,11.38,0,0,1-11.44-11.3l-.64-87a11.36,11.36,0,0,0,10.38,6.66l7.76-.07a119.11,119.11,0,0,0,111.93-80.68" transform="translate(-500.12 -407.05)"/></g><path class="cls-3" d="M2641.17,1177.6a32.23,32.23,0,0,1-32.18-32l-2.31-327.26a32.23,32.23,0,0,1,32-32.41,140,140,0,0,1,141,139l.79,111.6a140,140,0,0,1-139,141h-.23ZM2648.4,828l2.17,307.44a98.39,98.39,0,0,0,88.21-98.55l-.78-111.6A98.38,98.38,0,0,0,2648.4,828Z" transform="translate(-500.12 -407.05)"/><path class="cls-1" d="M1558.57,814.41h0A11.36,11.36,0,0,1,1570,825.69l2.31,327.27A11.35,11.35,0,0,1,1561,1164.4,119.2,119.2,0,0,1,1441,1046l-.79-111.59a119.2,119.2,0,0,1,118.35-120" transform="translate(-500.12 -407.05)"/><path class="cls-3" d="M1560.19,1168.14a123.06,123.06,0,0,1-122.92-122.07l-.79-111.6a123.08,123.08,0,0,1,122.07-123.8h.11a15.13,15.13,0,0,1,15.1,15l2.31,327.26a15.13,15.13,0,0,1-15,15.21Zm-1.59-350h0A115.59,115.59,0,0,0,1444,934.42l.79,111.6a115.6,115.6,0,0,0,115.44,114.64h.83a7.62,7.62,0,0,0,7.56-7.67l-2.3-327.27a7.64,7.64,0,0,0-7.63-7.57Z" transform="translate(-500.12 -407.05)"/><g class="cls-5"><path class="cls-3" d="M1571.71,1062.17l.63,90.79A11.39,11.39,0,0,1,1561,1164.4a119.14,119.14,0,0,1-120-118.33l-.33-47a119.23,119.23,0,0,0,109.07,69.25l12-.09a11.5,11.5,0,0,0,10-6" transform="translate(-500.12 -407.05)"/></g><path class="cls-3" d="M1560.19,1185.23c-76.76,0-139.46-62.16-140-139l-.79-111.6c-.54-77.2,61.84-140.45,139-141h.23a32.23,32.23,0,0,1,32.18,32l2.31,327.26a32.22,32.22,0,0,1-32,32.41Zm-10.93-349.48A98.52,98.52,0,0,0,1461,934.3l.79,111.6a98.51,98.51,0,0,0,89.6,97.29Z" transform="translate(-500.12 -407.05)"/><g class="cls-4"><path class="cls-3" d="M2515.27,1453.92c-110.13,122.82-273.49,195.71-450.91,184.36-156.64-10-294-83.79-388.49-194.37.54-.63,1.16-1.29,1.74-1.92,31.46-33.37,74.09-54.87,121.12-57.4q4.68-.27,9.35-.27h566.44c56.25,0,106.75,27.1,140.75,69.6" transform="translate(-500.12 -407.05)"/></g><path class="cls-1" d="M2656.54,1021.23c-19.68,307.38-284.81,540.6-592.19,520.92S1523.75,1257.34,1543.43,950,1828.23,409.36,2135.61,429s540.61,284.81,520.93,592.19" transform="translate(-500.12 -407.05)"/><path class="cls-3" d="M2100.77,1547.06q-18.27,0-36.66-1.17c-308.94-19.78-544.19-287.22-524.41-596.16,9.58-149.66,76.86-286.63,189.46-385.68s257-148.34,406.69-138.74,286.63,76.86,385.68,189.46,148.32,257,138.74,406.7-76.87,286.63-189.47,385.68C2367.43,1498.08,2237.21,1547.06,2100.77,1547.06ZM2099.2,431.61c-134.63,0-263.1,48.33-365.1,138C1623,667.39,1556.62,802.54,1547.16,950.2c-19.51,304.83,212.61,568.71,517.43,588.22,147.67,9.44,290.18-39.16,401.27-136.89s177.5-232.88,186.95-380.54h0c9.45-147.67-39.16-290.17-136.9-401.27s-232.87-177.49-380.54-187Q2117.24,431.62,2099.2,431.61Z" transform="translate(-500.12 -407.05)"/><g class="cls-5"><path class="cls-3" d="M2656.14,943.84a554.61,554.61,0,0,1,.41,77.39c-19.72,307.37-284.84,540.59-592.21,520.94S1523.76,1257.33,1543.4,950c.57-8.84,1.34-17.67,2.32-26.35,20.18,273.33,239.28,496.8,520.52,514.81,298.53,19.09,557.16-200.33,589.9-494.58" transform="translate(-500.12 -407.05)"/></g><path class="cls-3" d="M2100.79,1564.14q-18.83,0-37.77-1.21c-318.34-20.38-560.75-296-540.37-614.3,9.87-154.21,79.21-295.34,195.23-397.41s264.87-152.8,419.06-143,295.35,79.21,397.42,195.23,152.83,264.86,143,419.07-79.21,295.35-195.23,397.41C2375.57,1513.67,2241.39,1564.14,2100.79,1564.14ZM2099.22,448.7c-130.48,0-255,46.83-353.83,133.79-107.67,94.72-172,225.69-181.18,368.81-18.91,295.42,206,551.16,501.47,570.07,143.17,9.18,281.23-37.95,388.9-132.67s172-225.69,181.18-368.8h0c9.16-143.11-38-281.23-132.67-388.9s-225.7-172-368.81-181.18Q2116.7,448.7,2099.22,448.7Z" transform="translate(-500.12 -407.05)"/><path class="cls-3" d="M2653.84,1035.41c-5.32,109-45.65,208.47-110.25,289.24-48.44,60.56-240.31,161.31-470.71,152.12-213.62-8.51-402.34-131.86-444.64-196.85-56.42-86.68-86.86-189.61-81.53-298.61,14.09-288.46,267.77-395.92,573.5-381S2667.94,747,2653.84,1035.41" transform="translate(-500.12 -407.05)"/><g class="cls-6"><path class="cls-1" d="M2406.18,976.37c-12.32,53.1,8.88,103.38,47.35,112.31s79.65-26.87,92-80-8.88-103.38-47.35-112.31-79.65,26.87-92,80" transform="translate(-500.12 -407.05)"/></g><g class="cls-6"><path class="cls-1" d="M2342.51,1169.6c-9,23.35,0,48.52,20,56.22s43.56-5,52.53-28.34,0-48.54-20-56.23-43.57,5-52.54,28.35" transform="translate(-500.12 -407.05)"/></g><g class="cls-5"><path class="cls-7" d="M2559.33,761.05c64.51,67.88,100.15,158.49,94.51,274.34-5.33,109-45.68,208.49-110.24,289.27-48.45,60.55-240.34,161.29-470.73,152.13-81.35-3.22-159.06-23.12-226.48-50.14,283.44,5.23,517.21-118.51,577.28-193.62,82-102.51,133.18-228.77,139.92-367.08a564.62,564.62,0,0,0-4.26-104.9" transform="translate(-500.12 -407.05)"/></g><path class="cls-3" d="M2618.59,801a20.71,20.71,0,0,1-14.23-5.63c-.17-.15-.4-.38-.56-.54l-1.59-1.58-1.21-1.89C2514.77,657,2339.05,573.76,2118.93,563c-221.29-10.78-404.21,57.29-501.8,186.83l-1.66,1.95a20.83,20.83,0,0,1-31.19-27.55C1690.4,583.84,1886,509.94,2121,521.41c233.32,11.4,420.8,101.27,514.58,246.61A20.83,20.83,0,0,1,2618.59,801Zm-.06-20.88h0Z" transform="translate(-500.12 -407.05)"/><g class="cls-6"><path class="cls-1" d="M1662.64,1164.09s-75.43-288.93,83.47-394.83,379.51-94.66,373.67-80.76c0,0-247.16,47.19-352.17,235.63-81,145.3-105,240-105,240" transform="translate(-500.12 -407.05)"/></g><path class="cls-8" d="M904.4,2343H3262v6.74c0,4.84,10.17-.49,10.12,4.35s-.11,9.82-.26,14.71c-.2,8.49-.47,17-.93,25.47-.1,2.58-.2,5.15-.36,7.72q-.37,8.1-.92,16.21c-.05.51-.11,1.08-.11,1.64-.3,4.58-.66,9.16-1,13.74-.25,2.94-.51,5.82-.76,8.75-.06.82-.11,1.6-.21,2.42-.21,2.93-.47,5.91-.77,8.84-.16,1.7-.36,3.4-.52,5.1-.82,8.34-1.8,16.72-2.83,25.06q-4.08,33.79-10.24,67.51A1188.85,1188.85,0,0,1,3122.46,2916c-101.47,182.55-243.84,327.91-409.31,431-26.6,16.67-53.88,32.21-81.6,46.56a1193.12,1193.12,0,0,1-482.33,132.14c-1.49.05-2.93.21-4.42.25-10.29.57-20.64,1-31,1.24q-30.8.86-61.64.05a1178.09,1178.09,0,0,1-414.87-86.59,1192,1192,0,0,1-131.56-62.93c-9.26-5.2-18.42-10.39-27.53-15.8-5.45-3.19-10.91-6.53-16.26-9.88q-34.11-20.84-66.32-43.63-24.17-17.05-47.24-35.19-15.44-12-30.3-24.54-33.42-28-64.47-58.25c-2.37-2.27-4.68-4.58-7-6.84a1181.26,1181.26,0,0,1-205-271.63q-13.58-24.69-25.88-49.85a1195.66,1195.66,0,0,1-112.17-374.94c-.67-5.35-1.29-10.71-1.91-16.11s-1.12-10.75-1.64-16.1c-.21-1.6-.36-3.25-.51-4.84-.06-.72-.16-1.39-.21-2.11q-.62-7-1.24-14.05c0-.87-.1-1.69-.2-2.52-.36-4.89-.72-9.83-1.08-14.76,0-.78-.1-1.6-.15-2.37-.06-.51-.06-1.08-.11-1.6s0-1-.1-1.54c-.36-5.76-.67-11.47-.93-17.23,0-.62,0-1.29-.1-1.91,0-.93,0-1.8-.1-2.73-.16-3.09-.26-6.17-.36-9.26-.15-4.63-.31-9.26-.42-13.89,0-.72,0-1.39,0-2.06-.1-4-.15-7.93-.2-11.89-.1-6.48,10.06-2.79,10.12-9.28" transform="translate(-500.12 -407.05)"/><path class="cls-8" d="M3262,2343v6.74c0,4.84,10.17-.5,10.08,4.34s-.09,9.82-.23,14.71c-.18,8.51-.46,17-.93,25.49,0,1.3-.09,2.6-.14,3.95s-.19,2.47-.23,3.78q-.36,8.08-.94,16.18c0,.52-.08,1.07-.08,1.68-.28,4.56-.66,9.12-1,13.72-.23,2.93-.51,5.82-.79,8.75,0,.84-.09,1.58-.19,2.42-.13,1.63-.32,3.3-.46,4.93-.1,1.3-.19,2.56-.32,3.91-.15,1.72-.33,3.39-.52,5.12-.79,8.32-1.77,16.7-2.79,25q-4.12,33.84-10.28,67.5A1186.91,1186.91,0,0,1,3122.45,2916c-101.47,182.56-243.83,327.95-409.32,431-26.56,16.65-53.87,32.19-81.6,46.56a1192.29,1192.29,0,0,1-482.31,132.13c-1.49.05-2.93.19-4.42.28-10.28.56-20.66,1-31,1.21q-30.76.84-61.64.05a1189.14,1189.14,0,0,1-546.42-149.53c-9.26-5.17-18.42-10.38-27.54-15.77-5.44-3.21-10.89-6.56-16.24-9.91q-34.12-20.8-66.34-43.59-24.15-17.1-47.22-35.22-15.44-12-30.34-24.52-33.35-28-64.43-58.25c-2.37-2.28-4.7-4.6-7-6.83a1182.16,1182.16,0,0,1-205-271.66q-13.53-24.71-25.86-49.87A1194.74,1194.74,0,0,1,903.6,2487.2c-.66-5.35-1.31-10.7-1.91-16.09s-1.16-10.56-1.73-15.82v-.14c-.08-1.12-.22-2.28-.32-3.44,0-.56-.09-1.12-.19-1.72s-.09-1.31-.14-1.91c-.41-4.7-.83-9.4-1.21-14-.13-.93-.18-1.82-.27-2.75-.05-.69-.1-1.44-.14-2.14-.28-3-.47-6-.7-9.07,0-1.07-.14-2.18-.19-3.35,0-.74-.09-1.58-.14-2.37-.09-.51-.09-1.07-.14-1.59s0-1-.09-1.53c-.28-4.88-.6-9.81-.84-14.7,0-.88-.09-1.72-.09-2.56,0-.6,0-1.25-.09-1.91,0-.88,0-1.76-.1-2.69-.14-3.12-.28-6.19-.37-9.26-.09-1.72-.14-3.4-.19-5.12s-.13-3.58-.18-5.4c0-1.11,0-2.27,0-3.39,0-.7,0-1.4,0-2a9.8,9.8,0,0,1-.05-1.21c0-1.35,0-2.74-.09-4.14-.05-2.19-.05-4.38-.05-6.56l-.06-4.06c.25,18.66,33.67-15.29,15.25-15.37Z" transform="translate(-500.12 -407.05)"/><path class="cls-9" d="M3262,2343v6.74c0,4.84,10.17-.49,10.12,4.34s-.11,9.83-.26,14.72c-.21,8.49-.47,17-.93,25.47,0,1.28-.1,2.62-.15,4s-.16,2.47-.21,3.76q-.39,8.1-.92,16.2a14.59,14.59,0,0,0-.11,1.65c-.31,4.58-.67,9.16-1,13.73-.26,2.94-.51,5.82-.77,8.75-.05.83-.1,1.6-.21,2.42-.15,1.65-.3,3.29-.46,4.94-.1,1.29-.2,2.57-.31,3.91-.15,1.7-.36,3.4-.51,5.09-.82,8.34-1.8,16.73-2.83,25.06q-4.09,33.81-10.24,67.51A1188.76,1188.76,0,0,1,3122.46,2916c-101.47,182.56-243.84,327.91-409.31,431q-39.9,25-81.61,46.56a1192.85,1192.85,0,0,1-482.32,132.13c-1.49.06-2.93.21-4.43.26q-15.43.84-31,1.23-30.8.86-61.64.06a1189.8,1189.8,0,0,1-546.43-149.53c-9.27-5.19-18.42-10.39-27.53-15.79-5.45-3.19-10.91-6.54-16.26-9.88q-34.11-20.85-66.33-43.63-24.15-17.05-47.23-35.2-15.44-12-30.31-24.54-33.4-28-64.46-58.25c-2.37-2.26-4.69-4.57-7-6.84a1181,1181,0,0,1-205-271.62q-13.59-24.69-25.88-49.86a1195.58,1195.58,0,0,1-112.17-374.94c-.67-5.35-1.29-10.7-1.9-16.1-.62-5.25-1.19-10.55-1.7-15.85v-.1c-.1-1.13-.26-2.32-.36-3.45-.06-.57-.1-1.13-.16-1.75s-.1-1.29-.15-1.91q-.62-7-1.24-14c-.1-.93-.15-1.8-.25-2.73-.06-.72-.11-1.44-.16-2.16-.26-3-.46-6-.67-9.06,0-1.07-.15-2.21-.2-3.34,0-.77-.11-1.59-.16-2.37,0-.51,0-1.08-.1-1.59s0-1-.1-1.54c-.31-4.89-.62-9.83-.82-14.72-.06-.88-.11-1.7-.11-2.52,0-.62,0-1.29-.1-1.91,0-.92,0-1.79-.1-2.72-.16-3.09-.26-6.18-.37-9.26-.1-1.7-.15-3.4-.2-5.1s-.1-3.6-.16-5.4c0-1.13,0-2.26,0-3.39-.06-.72-.06-1.4-.06-2.06a9.48,9.48,0,0,1-.05-1.19c0-1.39,0-2.78-.1-4.16-.05-2.16-.05-4.38-.05-6.54l-.06-4.15c.23,18.81,33.66-15.35,15.18-15.35h10.91a1190.12,1190.12,0,0,0,95.45,276.67q12.27,25.16,25.88,49.85a1181,1181,0,0,0,205,271.62c2.31,2.27,4.63,4.58,7,6.85q31,30.16,64.46,58.24,14.91,12.51,30.31,24.55,23.08,18.12,47.23,35.19,32.19,22.77,66.33,43.63c5.35,3.34,10.81,6.69,16.26,9.88,9.11,5.4,18.26,10.6,27.53,15.8A1191.05,1191.05,0,0,0,1637.31,3188a1177.88,1177.88,0,0,0,414.87,86.6q30.87.77,61.64,0,15.51-.39,31-1.24c1.5-.05,2.94-.2,4.43-.25a1193,1193,0,0,0,482.32-132.14q41.61-21.52,81.61-46.56c165.47-103.11,307.84-248.47,409.31-431a1190.88,1190.88,0,0,0,124-330.53Z" transform="translate(-500.12 -407.05)"/><path class="cls-9" d="M3266.37,2457a1188.24,1188.24,0,0,0-19-124.26l13.66,13.47c.05,2.21,5.11,2.9,5.11,5.11l-4.09-1.62c0,4.84,10.17-.49,10.12,4.34s-.11,9.83-.26,14.72c-.21,8.49-.47,17-.93,25.47,0,1.29-.1,2.62-.15,4s-.16,2.47-.21,3.76c-.72,13.43-1.65,26.91-2.83,40.34-.46,4.88-.88,9.82-1.39,14.71" transform="translate(-500.12 -407.05)"/><path class="cls-9" d="M904.4,2343l14.42-10.22q-11.57,55.43-17.65,111.24c-.41,3.66-.82,7.36-1.13,11a.18.18,0,0,0,0,.15c-.1-1.13-.26-2.31-.36-3.45,0-.51-.1-1-.1-1.54a.26.26,0,0,1-.06-.2c-.05-.62-.1-1.29-.15-1.91q-.62-7-1.24-14.05c0-.87-.1-1.69-.2-2.52a.3.3,0,0,1,0-.2c-.05-.73-.11-1.45-.15-2.17-.26-3-.47-6-.67-9.05-.16-2.42-.36-4.89-.47-7.31,0-.51,0-1-.1-1.54-.31-4.89-.62-9.83-.83-14.72,0-.87-.1-1.7-.1-2.51s-.11-1.77-.15-2.66c-.11-4.24-.39-8.47-.45-12.71-.27-4.82-.34-9.65-.45-14.47,0-.4,0-.8,0-1.21,0-1.38-.08-2.77-.11-4.15-.15-8.65,10-7.12,10.07-15.82" transform="translate(-500.12 -407.05)"/><path class="cls-8" d="M1787.17,2910.35c-125.46-6.23-214.09,36.54-198,95.55s130.92,111.88,256.39,118.11,214.09-36.54,198-95.54-130.92-111.89-256.39-118.12" transform="translate(-500.12 -407.05)"/><path class="cls-9" d="M1341.35,2624c-6.22-117.88-65.39-198.12-132.17-179.24s-122.7,128.6-116.48,246.47,72.22,199.28,139,180.39,115.87-129.75,109.65-247.62" transform="translate(-500.12 -407.05)"/><path class="cls-3" d="M1412.84,2684.13a275.75,275.75,0,0,0-.23-94.58,304,304,0,0,0-30.1-88.22c-14.46-27.53-33.06-53.07-56.12-73.38-22.87-20.45-51-34.89-82.94-36h-.14a5.36,5.36,0,0,1-1.25-10.52c17.12-4.76,35.87-4.09,53.48.26s34.13,12.68,48.89,22.9c29.53,20.7,52.58,49,69.41,80.06s27.44,65.71,30,101c2.64,35.18-2.77,71.51-18.53,102.62a6.66,6.66,0,0,1-12.5-4.12Z" transform="translate(-500.12 -407.05)"/><path class="cls-9" d="M2626.24,3149.93c65.2-2.68,116.59-49.95,114.79-105.6s-56.12-98.59-121.31-95.91-116.59,49.95-114.79,105.59,56.12,98.6,121.31,95.92" transform="translate(-500.12 -407.05)"/><path class="cls-8" d="M2627.55,3080.11c44.88-19.65,67.48-64.59,50.48-100.37s-67.16-48.88-112-29.23-67.48,64.57-50.48,100.37,67.16,48.87,112,29.23" transform="translate(-500.12 -407.05)"/><path class="cls-3" d="M2619.37,2938.91a137.46,137.46,0,0,1,76.48,13.18,128.29,128.29,0,0,1,32.69,23.66,110.21,110.21,0,0,1,22.8,34.41c11,26,9.47,56.68-2.17,82.25-5.83,12.85-14.35,24.18-24.1,33.94a132.85,132.85,0,0,1-33.16,24.25,161.77,161.77,0,0,1-38.4,13.54,151.51,151.51,0,0,1-80-4.92,134.59,134.59,0,0,1-35.87-18.83c-22.09-15.67-38.62-39.95-43.7-66.69a94.71,94.71,0,0,1,.79-40,97.08,97.08,0,0,1,6.58-18.67c2.73-6,6.6-11.3,10-16.74a4,4,0,0,1,6.87,4l-.16.29c-11.28,21.16-14.61,45.63-7.93,67.41,6.16,21.76,21.06,40.3,40.07,52.42,37.9,24.79,90,25.72,129.42,4.71,19.6-10.53,36.65-26.23,45.91-45.83a81.49,81.49,0,0,0,3.88-62.63c-7.2-20.53-22.94-38.27-42.52-50.26-19.62-12.16-43.06-18.52-67.09-19.57h0a5,5,0,0,1-.37-9.87" transform="translate(-500.12 -407.05)"/><path class="cls-3" d="M2470.73,3120.36a130.91,130.91,0,0,1-29-70.36c-2.64-26.08,3.31-52.9,15.27-76.33,11.78-23.69,30.24-43.4,51.31-58.72a200.42,200.42,0,0,1,70.8-31.79,213.39,213.39,0,0,1,77.16-3.36,191.17,191.17,0,0,1,72.71,25.75c22.1,13.37,41.53,31.58,54.94,53.69,13.23,22.13,20.43,47.83,19.46,73a4,4,0,0,1-8,.33v-.07a135.84,135.84,0,0,0-25.33-64.05c-13.56-18.54-32-33-52-43.82-40.36-21.48-88.78-26.23-133-15.64-22.06,5.33-43.26,14.35-61.73,27.3a163.65,163.65,0,0,0-25.74,21.72c-2,2-3.65,4.26-5.5,6.36s-3.76,4.18-5.29,6.52l-4.79,6.88c-.79,1.15-1.65,2.27-2.39,3.45l-2,3.66-4.11,7.31c-1.26,2.49-2.2,5.11-3.34,7.66-2.48,5.06-3.79,10.47-5.48,15.82a49.33,49.33,0,0,0-1.9,8.16l-1.58,8.27c-.31,5.59-1,11.22-1,16.87,0,22.66,6.74,45.35,18.57,65.72a5,5,0,0,1-8.1,5.65" transform="translate(-500.12 -407.05)"/><path class="cls-3" d="M2951.07,2773a7.61,7.61,0,0,1-8.19,5.51,232.05,232.05,0,0,1-26.19-4.32,255.35,255.35,0,0,1-25.67-7.72,226.51,226.51,0,0,1-89-60.46,248.19,248.19,0,0,1-31.85-44.4c-18.11-31.8-28.71-67.51-33.09-103.58a315.45,315.45,0,0,1,6.95-108.15c8.74-35.09,22.43-68.95,41.57-99.46q5.64-9,11.84-17.65h46.82a325.94,325.94,0,0,0-60.35,126.52c-7.21,31-9.94,63-6.69,94.57a256.49,256.49,0,0,0,25,90.76,224.55,224.55,0,0,0,25.06,40.09,210.62,210.62,0,0,0,33,34.11,229.93,229.93,0,0,0,85.47,44.72l.1,0a7.65,7.65,0,0,1,5.25,9.41" transform="translate(-500.12 -407.05)"/><path class="cls-9" d="M3185.85,2527.15c-22.23,111-114.69,185.28-206.54,165.94S2831.08,2568,2853.3,2457c10.24-51,35.3-94.26,68.33-124.21H3135c44.56,45.07,66.12,118.49,50.89,194.39" transform="translate(-500.12 -407.05)"/><path class="cls-8" d="M3073.37,2568.67c-24.08,52.74-63.86,90.71-108.26,108.83a125.83,125.83,0,0,1-32.83-12.05c-75.22-39.82-102.13-146.74-60.09-238.79,19.86-43.58,51.66-76,87.62-93.9h83.87c54,55,68.34,151.17,29.69,235.91" transform="translate(-500.12 -407.05)"/><path class="cls-3" d="M3134.14,2348.66a136.78,136.78,0,0,0-31.75-15.9H3146c.11,0,.16.15.26.21a148.77,148.77,0,0,1,36.79,47.69,6.17,6.17,0,0,1-10.6,6.23v0a146.74,146.74,0,0,0-38.28-38.18" transform="translate(-500.12 -407.05)"/><path class="cls-3" d="M3184.56,2567.08a211.09,211.09,0,0,1-75.43,92.61,198.81,198.81,0,0,1-56.13,26.25,175.18,175.18,0,0,1-63,5.86,149.53,149.53,0,0,1-61.54-18.68,164.92,164.92,0,0,1-49.86-41.31,180.74,180.74,0,0,1-29.79-57.07,195.17,195.17,0,0,1-9.16-62.87,236.26,236.26,0,0,1,10.24-62.1l5.25-14.82c1.75-4.95,4.22-9.57,6.28-14.36l3.29-7.1,7.71-13.58c1.34-2.21,2.84-4.38,4.27-6.59a225.22,225.22,0,0,1,58.1-60.56h75.12a158.86,158.86,0,0,0-25.37,10.5c-61.95,32.1-103.57,100.54-104,169.12-.15,34.12,9.52,68.23,29.8,94.52a127.69,127.69,0,0,0,36.94,32.52,106.39,106.39,0,0,0,22.49,10.5c4,1.34,7.92,2.52,12,3.5s8.24,1.49,12.41,2.31a143.56,143.56,0,0,0,50.83-1.85,169,169,0,0,0,49-18.52c31.19-17.14,57.42-43.69,76.92-75.12l.06-.11a7.63,7.63,0,0,1,13.53,6.95" transform="translate(-500.12 -407.05)"/><path class="cls-10" d="M1647.24,2332.76h39.88c-5.46,7.82-10.49,15.95-15.23,24.23a320.49,320.49,0,0,0-26.35,59c-13.94,41.16-19.65,85.31-18,129.56a7.62,7.62,0,0,1-15.12,1.64c-8.08-45.68-5.77-93.43,5.66-139.17a348,348,0,0,1,24.64-66.53c1.45-2.93,3-5.87,4.53-8.75" transform="translate(-500.12 -407.05)"/><path class="cls-10" d="M2344.64,2460.11a6.16,6.16,0,0,1-7.1-3.86l-.05-.11c-15.28-41.88-36.64-81-63.86-115.46-2.11-2.67-4.32-5.29-6.53-7.92H2299c23.57,37,40.91,77.75,50.27,120a6.09,6.09,0,0,1-4.63,7.31" transform="translate(-500.12 -407.05)"/><path class="cls-8" d="M1630.24,2991c-41.73,27.46-72.78,64.61-87.77,109.63-27.14,81.58,5.94,165.57,77,235.41,46.62,45.82,110.13,83.49,185,105.63,188.94,55.9,378.56-8.31,423.53-143.41,16.73-50.27,11.08-103.28-12.35-152.9-39.54-83.74-131-153-249.63-188.15" transform="translate(-500.12 -407.05)"/><path class="cls-3" d="M1548.73,3102.7a183.33,183.33,0,0,0-5.94,57.29,190,190,0,0,0,11.84,55.71c13.11,35.87,35.85,67.8,62.47,95.72a400.85,400.85,0,0,0,91.62,70.52,494,494,0,0,0,222.21,62.86,417.53,417.53,0,0,0,115.39-11.36c37.47-9.42,73.75-24.57,104.93-47.31,31.28-22.46,56.87-53.1,71.7-89.56v0a5.31,5.31,0,0,1,10.05,3.38,192.72,192.72,0,0,1-25.83,56.88,228.81,228.81,0,0,1-42.07,46.9c-32.3,27.21-70.8,46.33-111,58.21-40.2,12.15-82.25,17.05-124,16.69s-83.42-6.91-123.67-17.9c-40.13-11.39-79.07-27.5-115.14-48.81-35.83-21.56-69.28-47.94-96.88-79.62-13.84-15.77-26.66-32.6-37.35-50.87a260.57,260.57,0,0,1-25.53-58.15c-5.86-20.45-9-41.83-8.22-63.09a187.94,187.94,0,0,1,3.78-31.51,193.92,193.92,0,0,1,9.12-30.12,6.59,6.59,0,0,1,12.51,4.11Z" transform="translate(-500.12 -407.05)"/><path class="cls-9" d="M1897.49,3000.76c-148.6-16.26-274.59,58.77-281.41,167.6s108.13,210.23,256.73,226.49,274.59-58.77,281.41-167.6S2046.09,3017,1897.49,3000.76" transform="translate(-500.12 -407.05)"/><path class="cls-8" d="M1898.46,3105.93c-126.6-4.37-227,57.16-224.33,137.43s107.55,148.9,234.15,153.27,227-57.16,224.33-137.43-107.55-148.9-234.15-153.27" transform="translate(-500.12 -407.05)"/><path class="cls-3" d="M2075.85,3352a179.64,179.64,0,0,0,27.11-24.3,150.13,150.13,0,0,0,21-28.9,135,135,0,0,0,17.18-67.12c-.11-23.18-6.25-46.21-16.85-67.13a217.75,217.75,0,0,0-41.66-57.06c-33.79-33.71-76.43-58.69-122.07-74.17-45.56-15.94-94.37-22.8-142.12-19.15-47.58,3.43-94.81,18.44-131.22,46.92-18.15,14.17-32.88,32.17-42.21,52.69a131.45,131.45,0,0,0-11.34,66.15c1.91,22.85,9.75,45.39,21.24,66.16a224.83,224.83,0,0,0,19.88,29.83,276.51,276.51,0,0,0,24.49,26.8c35.15,33.83,79.14,58.74,126.15,75.41h0a5.31,5.31,0,0,1-3,10.17c-49.85-12.2-97.85-35.12-138-69.13a256.57,256.57,0,0,1-52.05-59.83c-14.29-22.69-24.37-48.73-27.81-76.27a157.62,157.62,0,0,1,11.34-82.13c11-25.87,28.86-48.5,50.15-65.95,21.28-17.6,45.71-30.57,71.14-39.52a308.83,308.83,0,0,1,38.8-10.88,362.48,362.48,0,0,1,39.66-5.73c53.23-4.4,106.7,4,156.53,21.54a370.64,370.64,0,0,1,71.4,34.72,351.58,351.58,0,0,1,32.45,23.23,287.31,287.31,0,0,1,29.22,27.38,244.35,244.35,0,0,1,45,66.73c11,24.77,17,52.29,15.71,79.76a154.92,154.92,0,0,1-25.06,76.85,168.4,168.4,0,0,1-26,30.48,194.46,194.46,0,0,1-31.74,23.44,6.59,6.59,0,0,1-7.34-10.92Z" transform="translate(-500.12 -407.05)"/><path class="cls-8" d="M1341.29,2628.78c-4.55-99.91-51.06-167.75-103.88-151.53s-92,110.36-87.41,210.26,51,167.75,103.87,151.53,92-110.36,87.42-210.26" transform="translate(-500.12 -407.05)"/><path class="cls-3" d="M1143.47,2832.83c13.08,11.85,28.43,20.64,44.56,23.86a76,76,0,0,0,47.41-5.92c14.84-6.7,28-17.63,39-30.45a194.27,194.27,0,0,0,28-43.19,295.57,295.57,0,0,0,27.31-101,324.45,324.45,0,0,0,1-52.7,301.17,301.17,0,0,0-8.06-51.63,213.62,213.62,0,0,0-18-48c-8-14.85-17.9-28.38-29.79-38.92s-26-17.48-40.89-19.21-30.45,1.33-44.74,8.88-27.3,18.77-38.55,31.84a203,203,0,0,0-15.65,20.92c-4.78,7.39-9.05,15.15-13.17,23-16.15,31.81-25.85,67.21-31,103.44v.05a5.32,5.32,0,0,1-10.58-.75c.09-37.77,6.85-76,21.33-111.9a232.58,232.58,0,0,1,28.6-51.15,152.91,152.91,0,0,1,44.7-41.08c17.94-10.67,40.07-17.1,62.21-15,22.18,1.8,43.1,11.68,59.37,25.21,16.5,13.52,28.89,30.43,38.66,48.12a247.68,247.68,0,0,1,21.74,55.72c10,38.37,11.53,78.05,7.46,116.79a337,337,0,0,1-11.76,57.35,272.85,272.85,0,0,1-22.37,54.42,219.33,219.33,0,0,1-35,48.24c-14.17,14.26-31,26.68-50.7,34s-41.88,8.39-61.73,2.08a100.5,100.5,0,0,1-27.35-13.65,122.89,122.89,0,0,1-21.69-20.23,6.6,6.6,0,0,1,9.45-9.17Z" transform="translate(-500.12 -407.05)"/><path class="cls-3" d="M2082.25,3548.49c-10.13,0-20.35-.13-30.58-.39A1195.94,1195.94,0,0,1,1629.46,3460a1213.89,1213.89,0,0,1-133.82-64c-8.89-5-18.37-10.35-28.05-16.1-5.51-3.22-11.13-6.67-16.66-10.12-339.18-207.41-554.51-569.13-575.86-967.48a86.35,86.35,0,0,1,23.41-63.74,84.47,84.47,0,0,1,61.86-26.6H3206.19a85.91,85.91,0,0,1,62,26.62,84.24,84.24,0,0,1,23.3,62.91,1204,1204,0,0,1-150.83,524.67c-99.59,179.2-243.61,330.86-416.49,438.59-26.77,16.77-54.73,32.73-83.06,47.38-151.21,78.45-320.9,124.94-490.73,134.44l-1.85.11c-1,.07-2,.13-3.06.17-9.9.55-20.54,1-31.13,1.24S2093.08,3548.49,2082.25,3548.49ZM960.34,2353.57a43.18,43.18,0,0,0-31.63,13.6,43.87,43.87,0,0,0-12,32.86c20.61,384.66,228.52,733.92,556.15,934.29,5.35,3.34,10.64,6.58,15.92,9.66,9.4,5.59,18.62,10.8,27.2,15.62a1172.37,1172.37,0,0,0,129.18,61.79,1154.89,1154.89,0,0,0,407.59,85.08c20.45.5,40.82.5,60.53,0,10.24-.26,20.45-.67,30.41-1.22,1,0,1.45-.07,1.94-.11.95-.07,1.91-.13,2.88-.16,163.57-9.16,327.44-54,473.48-129.81,27.34-14.15,54.3-29.53,80.14-45.73,166.95-104,306-250.46,402.16-423.49a1162.73,1162.73,0,0,0,145.65-506.58,43,43,0,0,0-11.9-32.09,43.47,43.47,0,0,0-31.81-13.66Z" transform="translate(-500.12 -407.05)"/><g class="cls-4"><path class="cls-3" d="M2567.79,2137c-58.16,5.69-130.73,7.73-187.06-7v31.26a79,79,0,0,1-78.74,78.7H1872.38a78.93,78.93,0,0,1-78.66-78.7v-25c-56.15,8.54-121.52,4.85-172.25-.89,2.67-52.2,7.43-102.17,13.65-149.61,46.56,2,106.67,2.79,158.6-1.7V1928a78.83,78.83,0,0,1,78.66-78.65H2302a78.75,78.75,0,0,1,62.64,31.17,77.93,77.93,0,0,1,16.1,47.48v52.56c52.29,7.6,119.91,7.6,174,5.82,6,47.67,10.53,98,13,150.65" transform="translate(-500.12 -407.05)"/></g><path class="cls-1" d="M1876.84,2052.84c-59.07,23.92-150.49,18.91-212.82,11.37a67,67,0,0,1,11.16-133.37c58.29,2.73,145.73,4,201.11-8.27" transform="translate(-500.12 -407.05)"/><g class="cls-5"><path class="cls-3" d="M1876.85,2052.83c-59.09,24-150.51,18.9-212.82,11.4a67,67,0,0,1-51.23-97.51,66.8,66.8,0,0,0,51.23,35.4c62.21,7.55,153.47,12.55,212.56-11.24Z" transform="translate(-500.12 -407.05)"/></g><path class="cls-3" d="M1759.29,2091.25c-34.4,0-68.54-2.83-97.77-6.36A87.79,87.79,0,0,1,1676.15,1910c85.42,4,154.9,1.24,195.63-7.8,7.51-1.67,33.16-3.68,46.92,40.55,12.87,41.4,11,111.14-34,129.35C1849.32,2086.45,1804.09,2091.25,1759.29,2091.25ZM1672,1951.59a46.15,46.15,0,0,0-5.48,92c88.29,10.69,160.2,7.13,202.5-10h0c8.7-3.52,12.27-18.2,13.4-24.36,4.65-25.32-1.86-54.7-7.87-65-56.68,11.2-139.66,10.28-200.35,7.43C1673.46,1951.61,1672.73,1951.59,1672,1951.59Z" transform="translate(-500.12 -407.05)"/><path class="cls-1" d="M2328.67,2052.84c59.07,23.92,150.49,18.91,212.81,11.37a67,67,0,0,0-11.15-133.37c-58.29,2.73-145.74,4-201.11-8.27" transform="translate(-500.12 -407.05)"/><g class="cls-5"><path class="cls-3" d="M2541.47,2064.23c-62.32,7.5-153.74,12.55-212.83-11.4l.26-62.53c59.09,23.79,150.36,18.8,212.57,11.25a66.64,66.64,0,0,0,51.08-35.14,67,67,0,0,1-51.08,97.82" transform="translate(-500.12 -407.05)"/></g><path class="cls-3" d="M2446.22,2091.25c-44.81,0-90-4.8-125.37-19.11-45-18.21-46.91-88-34-129.36,13.76-44.23,39.38-42.19,46.92-40.54,40.73,9,110.22,11.81,195.62,7.8A87.79,87.79,0,0,1,2544,2084.89C2514.76,2088.42,2480.61,2091.25,2446.22,2091.25Zm-115.27-147c-6,10.28-12.51,39.66-7.86,65,1.13,6.15,4.7,20.83,13.39,24.35h0c42.29,17.13,114.22,20.68,202.5,10a46.15,46.15,0,0,0-7.69-91.9C2470.62,1954.48,2387.64,1955.41,2331,1944.21Z" transform="translate(-500.12 -407.05)"/><path class="cls-1" d="M2351.5,1879.52v208.77a70.65,70.65,0,0,1-70.44,70.43H1896.58a70.63,70.63,0,0,1-70.38-70.43V1879.52a70.6,70.6,0,0,1,70.38-70.39h384.48a70.59,70.59,0,0,1,70.44,70.39" transform="translate(-500.12 -407.05)"/><g class="cls-5"><path class="cls-3" d="M2351.5,1879.52v208.77a70.63,70.63,0,0,1-70.42,70.42H1896.6a70.63,70.63,0,0,1-70.42-70.42v-78.08c57.75,58.87,171.3,95.82,275.45,96.37,33.47.18,60.46-26.29,62.85-59.67,0-.33.05-.66.08-1,2.56-29.29,26.68-53,56-55.12a60.74,60.74,0,0,1,64.89,54.32c50.41-62.23,35.65-170.41,51.68-208.07a69.79,69.79,0,0,1,14.37,42.48" transform="translate(-500.12 -407.05)"/></g><path class="cls-3" d="M2281.08,2179.54H1896.6a91.33,91.33,0,0,1-91.23-91.23V1879.52a91.33,91.33,0,0,1,91.23-91.23h384.48a91.34,91.34,0,0,1,91.23,91.23v208.79A91.34,91.34,0,0,1,2281.08,2179.54Zm-384.48-349.6a49.63,49.63,0,0,0-49.58,49.58v208.79a49.63,49.63,0,0,0,49.58,49.58h384.48a49.63,49.63,0,0,0,49.58-49.58V1879.52a49.63,49.63,0,0,0-49.58-49.58Z" transform="translate(-500.12 -407.05)"/><path class="cls-11" d="M2285.76,1983.91a60.71,60.71,0,1,1-60.71-60.71,60.71,60.71,0,0,1,60.71,60.71" transform="translate(-500.12 -407.05)"/><g class="cls-12"><path class="cls-1" d="M2285.76,1983.91a60.81,60.81,0,0,1-1.19,12.14,60.75,60.75,0,0,0-119.07,0,61.55,61.55,0,0,1-1.18-12.14,60.72,60.72,0,0,1,121.44,0" transform="translate(-500.12 -407.05)"/></g><g class="cls-5"><path class="cls-3" d="M2285.75,1983.9a60.71,60.71,0,1,1-121.41,0,59.5,59.5,0,0,1,4.16-22,60.66,60.66,0,0,0,113.08,0,59.3,59.3,0,0,1,4.17,22" transform="translate(-500.12 -407.05)"/></g><path class="cls-3" d="M2225.05,2060.24a76.33,76.33,0,1,1,76.33-76.32A76.41,76.41,0,0,1,2225.05,2060.24Zm0-121.42a45.1,45.1,0,1,0,45.1,45.1A45.16,45.16,0,0,0,2225.05,1938.82Z" transform="translate(-500.12 -407.05)"/><path class="cls-3" d="M2053,2174.33a15.63,15.63,0,0,1-15.62-15.62V2047.8a60.79,60.79,0,0,0-24.09-48.31L1997,1987.26a92.15,92.15,0,0,1-36.54-73.26V1809.12a15.62,15.62,0,1,1,31.23,0V1914a60.77,60.77,0,0,0,24.1,48.31l16.24,12.23a92.13,92.13,0,0,1,36.54,73.26v110.91A15.62,15.62,0,0,1,2053,2174.33Z" transform="translate(-500.12 -407.05)"/><path class="cls-9" d="M2536.2,2747.87s50.34,193.45-80.3,218.3c-110.86,21.07-211.08-86.12-198.28-218.71,10.56-109,34.48-98.86,25.68-158.65-10-67.69-154.32-82.95-154.32-82.95h-54.29s-144.27,15.26-154.27,82.95c-8.84,59.79,15.12,49.64,25.63,158.65,12.84,132.59-87.37,239.78-198.24,218.71-130.63-24.85-80.34-218.3-80.34-218.3s-163.25-140-23.59-282c53.73-54.62,111.42-98.81,163.57-133.1h588.76c52.16,34.29,109.85,78.48,163.58,133.1,139.71,142-23.59,282-23.59,282" transform="translate(-500.12 -407.05)"/><path class="cls-1" d="M2262.3,2243.26s242.94-141.62,443.94,62.65c184.71,187.73-31.19,373-31.19,373s66.54,255.81-106.21,288.62c-146.61,27.85-279.09-113.86-262.16-289.17,13.92-144.16,45.58-130.73,33.92-209.79-13.21-89.53-204-109.68-204-109.68h-71.79s-190.82,20.15-204,109.68c-11.66,79.06,20,65.63,33.91,209.79,16.94,175.31-115.54,317-262.15,289.17-172.75-32.81-106.22-288.62-106.22-288.62s-215.9-185.22-31.19-373c201-204.27,444-62.65,444-62.65" transform="translate(-500.12 -407.05)"/><g class="cls-4"><path class="cls-3" d="M2662.1,2910.51c-17.8,26.73-46.93,48.21-93.25,57-146.62,27.86-279.11-113.89-262.17-289.18,13.93-144.16,45.56-130.75,33.93-209.77-13.22-89.53-204.07-109.68-204.07-109.68h-71.77s-190.8,20.15-204,109.68c-11.69,79,20,65.61,33.92,209.77,16.94,175.29-115.55,317-262.16,289.18-46.33-8.77-75.46-30.25-93.26-57,1.27.26,2.55.51,3.82.71,174.63,30.16,332.42-119.4,312.27-309.28-16.63-156.1-54.33-141.56-40.41-227.22,15.72-96.93,285.74-97.54,285.74-97.54s270,.61,285.74,97.54c13.87,85.66-23.83,71.12-40.4,227.22-20.16,189.88,137.63,339.44,312.26,309.28,1.27-.2,2.55-.45,3.82-.71" transform="translate(-500.12 -407.05)"/></g><path class="cls-3" d="M2257.81,2235.57c16-12.59,33.12-21.72,51.15-29.73a315.12,315.12,0,0,1,56-18.45,424.46,424.46,0,0,1,58.54-9.07,402.57,402.57,0,0,1,59.55-.22c19.91,1.23,39.66,4.77,59.11,9.35l14.52,3.81c4.79,1.44,9.51,3.1,14.27,4.66l7.12,2.37,7,2.79,13.91,5.64a398,398,0,0,1,100,64.79c29.48,26,56.25,57.09,75.56,93.28a248.73,248.73,0,0,1,21.31,58.08,223.37,223.37,0,0,1,4.2,62c-2.87,41.52-17.71,80.64-37.72,115.13a385.93,385.93,0,0,1-34,49c-6.28,7.67-12.82,15.11-19.69,22.27-3.43,3.59-6.92,7.12-10.51,10.59s-7.07,6.75-11.41,10.47l5.64-18c1.79,7.2,3.1,13.59,4.39,20.37s2.38,13.37,3.39,20.08q3,20.11,4.35,40.49c1.82,27.14,1.34,54.69-2.82,82.29a263.44,263.44,0,0,1-9.83,41.13,199.35,199.35,0,0,1-18.42,39.34,158.79,158.79,0,0,1-29.14,33.69,155.26,155.26,0,0,1-38.14,23.16,187.4,187.4,0,0,1-42,11.31c-7,1.29-14.17,1.62-21.28,2.27-7.14.08-14.29.5-21.42-.08A202.14,202.14,0,0,1,2479,2982a210.19,210.19,0,0,1-40.1-14.54c-51.5-24.48-92.09-67.38-117.61-116.83-25.56-49.65-36.64-106.09-33.26-161.31.77-14,2.52-27,4-40.35l2.85-20,3.52-20c2.76-13.29,5.72-26.64,9.65-39.73,3.74-13.08,8.41-26,11.95-37.56a106.9,106.9,0,0,0,5.17-33.53,81.17,81.17,0,0,0-.32-8.74c-.18-3-.31-5.9-.77-9l-1.12-9.11c-.58-2.45-.9-4.72-1.59-7.05-5.48-18.36-23-34.38-43.77-46-20.85-11.82-44.58-20.38-68.82-27.12-12.14-3.35-24.5-6.23-36.94-8.71s-25.24-4.57-37.2-6l1.87.09h-71.79l1.88-.09c-12,1.41-24.86,3.54-37.2,6s-24.8,5.36-37,8.71c-24.24,6.74-48,15.3-68.82,27.12-20.8,11.64-38.29,27.66-43.77,46-.69,2.33-1,4.6-1.59,7.05l-1.11,9.11c-.47,3.06-.59,6-.78,9a81.17,81.17,0,0,0-.32,8.74,106.63,106.63,0,0,0,5.18,33.53c3.53,11.58,8.21,24.48,11.94,37.56,3.93,13.09,6.89,26.44,9.65,39.73l3.52,20,2.86,20c1.5,13.39,3.25,26.31,4,40.35,3.39,55.22-7.69,111.66-33.25,161.31-25.53,49.45-66.11,92.35-117.62,116.83a210,210,0,0,1-40.1,14.54,202.05,202.05,0,0,1-42.3,6.41c-7.13.58-14.29.16-21.43.08-7.11-.65-14.26-1-21.27-2.27a187.34,187.34,0,0,1-42-11.31,155.26,155.26,0,0,1-38.14-23.16,158.79,158.79,0,0,1-29.14-33.69,198.74,198.74,0,0,1-18.41-39.34,262.32,262.32,0,0,1-9.83-41.13c-4.17-27.6-4.65-55.15-2.83-82.29q1.35-20.37,4.35-40.49c1-6.71,2.1-13.4,3.39-20.08s2.61-13.17,4.39-20.37l5.64,18h0c-4.33-3.72-7.73-6.92-11.41-10.47s-7.08-7-10.5-10.59c-6.87-7.16-13.41-14.6-19.69-22.26a385.4,385.4,0,0,1-34-49c-20-34.49-34.83-73.61-37.73-115.13a223.38,223.38,0,0,1,4.21-62,248.81,248.81,0,0,1,21.31-58.09c19.33-36.18,46.06-67.35,75.6-93.26a392.31,392.31,0,0,1,47.34-36.19,350.94,350.94,0,0,1,52.63-28.57A346.64,346.64,0,0,1,1718.33,2178c5-.37,9.94-.53,14.91-.8s10-.06,14.92-.09c9.95-.25,19.83.72,29.74,1.17a462.23,462.23,0,0,1,58.56,9,308.1,308.1,0,0,1,56,18.28c18.07,7.92,35.17,17.21,51,30a9,9,0,0,1-8.32,15.58l-.65-.2c-17.29-5.43-35.19-10.86-52.7-15.76s-35.24-9.29-53-13.06a426.22,426.22,0,0,0-53.68-7.39c-9-.23-18-1-27-.61-4.48.1-9,.07-13.45.28s-9,.53-13.41.93a319,319,0,0,0-103.08,27,312.09,312.09,0,0,0-46.8,25.92,356.86,356.86,0,0,0-42.47,33c-27.35,23.88-50.47,51.27-67,81.85a208.74,208.74,0,0,0-17.81,48.13,183.52,183.52,0,0,0-3.51,50.82c4.52,68.59,46.69,134.58,97.15,183.24h0l8.29,7.32-2.65,10.67c-1.37,5.51-2.72,11.95-3.88,18s-2.2,12.41-3.15,18.65c-1.85,12.5-3.21,25.07-4,37.63-1.7,25.11-1.18,50.24,2.49,74.47a227.47,227.47,0,0,0,8.38,35.23,163.85,163.85,0,0,0,14.78,31.69,123,123,0,0,0,22.06,25.54,119.82,119.82,0,0,0,28.78,17.45,152.33,152.33,0,0,0,33.69,9c5.88,1.12,11.85,1.33,17.77,1.92,5.95,0,11.91.43,17.85-.09a166.93,166.93,0,0,0,35.24-5.34,174.47,174.47,0,0,0,33.64-12.2c43.45-20.61,78.88-57.58,101.28-101,22.42-43.61,32.37-93.58,29.34-142.89-.64-12.14-2.38-25.21-3.8-37.84l-2.7-18.94-3.3-18.73c-2.58-12.35-5.28-24.6-8.89-36.61-3.45-12.11-7.75-23.85-11.88-37.31a143.24,143.24,0,0,1-6.67-43.81c-.11-3.74.15-7.3.39-10.88s.41-7.19.92-10.61l1.27-10.4c.79-3.93,1.53-8.16,2.71-12.09,4.85-16,14.28-29.69,25-40.46s22.88-19.21,35.23-26.28c24.8-14,50.82-23.21,77-30.52,13.1-3.62,26.27-6.68,39.52-9.32s26.33-4.81,40.38-6.46l.84-.11h73.84l.84.11c14,1.65,27,3.83,40.37,6.46s26.43,5.7,39.53,9.32c26.16,7.31,52.17,16.5,77,30.52,12.34,7.07,24.45,15.4,35.22,26.28s20.15,24.47,25,40.46c1.18,3.93,1.92,8.16,2.71,12.09l1.28,10.4c.5,3.42.69,7,.91,10.61s.5,7.14.39,10.88a142.93,142.93,0,0,1-6.67,43.81c-4.13,13.46-8.43,25.2-11.87,37.31-3.61,12-6.32,24.26-8.89,36.61l-3.3,18.73-2.7,18.94c-1.43,12.63-3.16,25.7-3.8,37.84-3,49.31,6.92,99.28,29.34,142.89,22.4,43.45,57.82,80.42,101.28,101a174.23,174.23,0,0,0,33.64,12.2,166.74,166.74,0,0,0,35.23,5.34c5.94.52,11.9.11,17.85.09,5.93-.59,11.89-.8,17.77-1.92a152.18,152.18,0,0,0,33.69-9,119.82,119.82,0,0,0,28.78-17.45,123,123,0,0,0,22.06-25.54,162.68,162.68,0,0,0,14.78-31.69,227.47,227.47,0,0,0,8.38-35.23c3.67-24.23,4.19-49.36,2.49-74.47-.83-12.56-2.18-25.13-4-37.63-.95-6.24-2-12.48-3.15-18.65s-2.5-12.54-3.87-18l-2.66-10.67,8.29-7.32c50.47-48.66,92.62-114.66,97.17-183.24a183.2,183.2,0,0,0-3.5-50.83,209,209,0,0,0-17.82-48.14c-16.47-30.6-39.65-57.91-66.92-81.9a358.3,358.3,0,0,0-89.27-59A326.14,326.14,0,0,0,2480,2215.32a365.07,365.07,0,0,0-53.85-.65,401.94,401.94,0,0,0-53.69,7.39c-17.77,3.57-35.43,8-53.1,12.72-17.52,4.93-35.41,10.49-52.56,16.17l-.59.19a9,9,0,0,1-8.38-15.57" transform="translate(-500.12 -407.05)"/><path class="cls-3" d="M2681.82,2695.4l-5.83,2.2c-2.16.85-4.58,1.66-6.86,2.48-4.68,1.54-9.42,3-14.21,4.1s-9.6,2-14.39,2.91c-4.82.53-9.62,1.43-14.44,1.62a235.33,235.33,0,0,1-56.66-3c-9.11-2-18.28-3.59-27.11-6.31-4.42-1.31-8.94-2.3-13.25-3.89l-13-4.52c-4.37-1.4-8.55-3.23-12.76-5l-12.6-5.24c-8.25-3.82-16.35-7.87-24.49-11.79a8.89,8.89,0,0,1,7-16.34l.57.22c8.14,3.09,16.21,6.32,24.35,9.3l12.35,4c4.12,1.32,8.2,2.72,12.39,3.68l12.47,3.2c4.13,1.16,8.38,1.69,12.54,2.56,8.34,1.85,16.78,2.58,25.13,3.68a205.87,205.87,0,0,0,49.47-1.45c4-.46,7.9-1.6,11.85-2.34,3.85-1.1,7.74-2,11.46-3.35s7.42-2.69,11-4.22c1.83-.85,3.57-1.58,5.47-2.51l6.4-3a17.83,17.83,0,1,1,15.29,32.21c-.43.21-.87.39-1.32.56Z" transform="translate(-500.12 -407.05)"/><path class="cls-3" d="M1534.55,2662.31l6.4,3c1.9.93,3.64,1.66,5.47,2.51,3.62,1.54,7.28,3,11,4.22,3.72,1.37,7.62,2.25,11.47,3.35,3.94.74,7.81,1.87,11.85,2.35a206.9,206.9,0,0,0,49.47,1.45c8.35-1.11,16.78-1.84,25.12-3.68,4.18-.88,8.42-1.41,12.55-2.58l12.46-3.19c4.2-1,8.29-2.36,12.4-3.68l12.35-4c8.14-3,16.21-6.21,24.35-9.3l.53-.21a8.89,8.89,0,0,1,7,16.33c-8.14,3.92-16.25,8-24.49,11.79l-12.61,5.24c-4.21,1.75-8.39,3.58-12.75,5l-13,4.52c-4.31,1.59-8.84,2.57-13.26,3.89-8.82,2.72-18,4.35-27.1,6.31a234.88,234.88,0,0,1-56.67,3c-4.81-.18-9.61-1.08-14.43-1.62-4.79-.91-9.64-1.64-14.39-2.91s-9.53-2.56-14.22-4.1c-2.27-.82-4.69-1.63-6.85-2.47l-5.83-2.21-.83-.31a17.83,17.83,0,0,1,12.61-33.35c.45.17.91.37,1.34.57" transform="translate(-500.12 -407.05)"/><path class="cls-3" d="M2772.55,2548.81a20.59,20.59,0,0,1-4.38-.47,20.83,20.83,0,0,1-16-24.72c8.81-41.1-7-54.7-12.25-59.17-57.5-49.32-269.38,4.77-389.44,50.46a20.82,20.82,0,1,1-14.82-38.92c34.16-13,336.43-124.61,431.38-43.15,18.18,15.6,37.42,45.52,25.86,99.5A20.86,20.86,0,0,1,2772.55,2548.81Z" transform="translate(-500.12 -407.05)"/><path class="cls-3" d="M1428.2,2548.81a20.83,20.83,0,0,1-20.34-16.47c-11.56-53.93,7.67-83.83,25.84-99.41,95-81.49,397.77,30.45,432,43.48a20.82,20.82,0,1,1-14.82,38.92c-120.31-45.8-332.59-100.09-390-50.78-5.2,4.45-21,18-12.23,59.07a20.83,20.83,0,0,1-16,24.72A20.59,20.59,0,0,1,1428.2,2548.81Z" transform="translate(-500.12 -407.05)"/><path class="cls-9" d="M2103.69,2408.19c-70-.06-127.22,48.32-127.78,108s55.73,108.21,125.74,108.27,127.22-48.33,127.78-108.06-55.73-108.2-125.74-108.26" transform="translate(-500.12 -407.05)"/><path class="cls-3" d="M2101.59,2634.35a147.48,147.48,0,0,1-81-17.77,137.2,137.2,0,0,1-33.74-26.76,117.52,117.52,0,0,1-22.68-37.68,102.75,102.75,0,0,1-6-44.23,113.7,113.7,0,0,1,12-43.13c6.77-13.4,16.35-25.07,27.16-35a142.27,142.27,0,0,1,36.4-24.35,173.19,173.19,0,0,1,41.51-12.74,162.17,162.17,0,0,1,85.12,8.75,144,144,0,0,1,37.42,21.62c22.88,17.65,39.45,44.21,43.75,72.93a101.29,101.29,0,0,1-2.5,42.65,104.5,104.5,0,0,1-7.79,19.67c-3.15,6.3-7.51,11.81-11.41,17.48a4,4,0,0,1-6.8-4l.27-.53c2.9-5.78,6.21-11.26,8.28-17.28a96.44,96.44,0,0,0,4.93-18.17,97.82,97.82,0,0,0,1.25-18.53c-.51-6.17-1-12.28-2.58-18.2-5.58-23.79-20.77-44.55-40.71-58.53-39.73-28.56-95.86-32-139.43-11.09-21.64,10.49-40.79,26.7-51.7,47.51a88.32,88.32,0,0,0-6.94,67.68c6.92,22.55,23.18,42.37,43.79,56.09,20.65,13.92,45.62,21.72,71.4,23.77h0a4.95,4.95,0,0,1,0,9.87" transform="translate(-500.12 -407.05)"/><path class="cls-3" d="M2268.77,2447.05a140.54,140.54,0,0,1,27.58,76.55c1.59,27.94-6,56.26-19.85,80.69-13.66,24.71-34.23,44.9-57.42,60.29a214.68,214.68,0,0,1-77,30.75,228.52,228.52,0,0,1-82.54.19,204.65,204.65,0,0,1-76.52-30.64c-23-15.23-43-35.48-56.39-59.65-13.21-24.19-19.84-51.93-17.81-78.83a4,4,0,0,1,8,0v.08a145.45,145.45,0,0,0,24.06,70.1c13.69,20.61,32.79,37.11,53.84,49.67,42.43,25.05,94.37,32.4,142.44,23,24-4.74,47.25-13.52,67.74-26.65,10.44-6.28,19.83-14,28.7-22.29,2.21-2.08,4.12-4.42,6.2-6.62s4.24-4.34,6-6.79l5.46-7.22c.91-1.21,1.88-2.37,2.74-3.62l2.34-3.85,4.74-7.71c1.46-2.63,2.6-5.43,3.93-8.13,2.89-5.35,4.55-11.13,6.58-16.82a51.91,51.91,0,0,0,2.4-8.72L2276,2542c.56-6,1.54-12,1.76-18.14,1-24.41-5.4-49.13-17.33-71.47a5,5,0,0,1,8.33-5.31" transform="translate(-500.12 -407.05)"/></svg>