<svg id="Layer_1" data-name="Layer 1" xmlns="http://www.w3.org/2000/svg" viewBox="0 0 2754.14 3116.83"><defs><style>.cls-1{fill:#74697c;}.cls-2{opacity:0.55;}.cls-17,.cls-3{fill:#fff;}.cls-4{opacity:0.1;}.cls-5{opacity:0.3;}.cls-15,.cls-6{fill:#232323;}.cls-7{fill:#665e6d;}.cls-8{fill:#41e049;}.cls-9{fill:#7d7af4;}.cls-10{fill:#e8c534;}.cls-11{fill:#f4375b;}.cls-12{fill:#020202;}.cls-13{opacity:0.35;}.cls-14{fill:#22a7f0;}.cls-14,.cls-15,.cls-17{fill-rule:evenodd;}.cls-16{opacity:0.6;}</style></defs><title>setting-cosmic</title><path class="cls-1" d="M2667.15,2038h0a72.78,72.78,0,0,1,94-42.26l158.91,60.69a72.76,72.76,0,0,1,42.72,92l-.52,1.49" transform="translate(-567.94 -413.36)"/><g class="cls-2"><path class="cls-3" d="M2667.15,2038l5.59,2.12a73,73,0,0,1,79.37-18.53L2911,2082.3a72.75,72.75,0,0,1,46.77,65.92l4.51,1.71.51-1.5a72.8,72.8,0,0,0-42.74-92l-158.9-60.7A72.82,72.82,0,0,0,2667.15,2038Z" transform="translate(-567.94 -413.36)"/></g><path class="cls-1" d="M1222.86,2038h0a72.76,72.76,0,0,0-94-42.26l-158.92,60.69a72.76,72.76,0,0,0-42.72,92l.52,1.49" transform="translate(-567.94 -413.36)"/><g class="cls-2"><path class="cls-3" d="M927.18,2148.43l.52,1.5,5.85-2.23a72.89,72.89,0,0,1,46.72-64.11l158.9-60.69a72.82,72.82,0,0,1,78.08,17.23l5.59-2.12a72.79,72.79,0,0,0-94-42.28l-158.91,60.7A72.8,72.8,0,0,0,927.18,2148.43Z" transform="translate(-567.94 -413.36)"/></g><path class="cls-1" d="M1888.69,2229H1488.8a68.64,68.64,0,0,1-56.58-29.79l-71-103.43a138.07,138.07,0,0,0-163.71-50.62L935.58,2146.6a138.06,138.06,0,0,0-83.87,94.45L591.56,3255.6a246.89,246.89,0,0,0-7.67,76.43c7.18,116.9,55.6,184.86,163.19,182.58,61.71-1.31,120.4-27,165.13-69.56l303-288.16a235,235,0,0,1,161.91-64.68H2512.84a235,235,0,0,1,161.91,64.68l303.06,288.16c44.72,42.52,103.41,68.25,165.12,69.56,107.59,2.28,156-65.68,163.19-182.58a247.19,247.19,0,0,0-7.66-76.43L3038.3,2241.05a138.07,138.07,0,0,0-83.86-94.45L2692.5,2045.12a138.07,138.07,0,0,0-163.71,50.62l-71,103.43a68.64,68.64,0,0,1-56.58,29.79H1888.69Z" transform="translate(-567.94 -413.36)"/><g class="cls-4"><rect class="cls-3" x="1630.23" y="2538.14" width="662.26" height="199.13" rx="52.73" transform="translate(3354.78 4862.06) rotate(-180)"/></g><g class="cls-5"><path class="cls-6" d="M583.87,3332.05c7.19,116.89,55.62,184.83,163.19,182.55,61.73-1.29,120.41-27,165.17-69.54l303.06-288.16a234.81,234.81,0,0,1,161.9-64.68H2512.85a234.93,234.93,0,0,1,161.91,64.68l303.06,288.16c44.71,42.53,103.38,68.25,165.11,69.54,107.58,2.28,156-65.66,163.2-182.55a248.59,248.59,0,0,0-7.66-76.42l-5.17-20.13c-21.42,69.49-69,108-150.37,106.28-61.73-1.29-120.4-27.06-165.11-69.59l-303.06-288.11a235,235,0,0,0-161.91-64.73H1377.19a234.86,234.86,0,0,0-161.9,64.73L912.23,3272.19c-44.76,42.53-103.44,68.3-165.17,69.59-81.39,1.71-128.94-36.74-150.36-106.23l-5.12,20.08A246.79,246.79,0,0,0,583.87,3332.05Z" transform="translate(-567.94 -413.36)"/></g><g class="cls-2"><path class="cls-3" d="M583.87,3332.05q.3,4.5.62,8.85a254.36,254.36,0,0,1,7.09-40.41L851.69,2286a138.15,138.15,0,0,1,83.87-94.48L1197.49,2090a138.08,138.08,0,0,1,163.71,50.6l71,103.44a68.64,68.64,0,0,0,56.6,29.8h912.39a68.59,68.59,0,0,0,56.61-29.8l71-103.44a138.09,138.09,0,0,1,163.72-50.6l261.92,101.47a138.19,138.19,0,0,1,83.88,94.48l260.16,1014.53a254.25,254.25,0,0,1,7,40.41c.21-2.9.41-5.85.62-8.85a248.59,248.59,0,0,0-7.66-76.42L3038.31,2241.05a138.11,138.11,0,0,0-83.88-94.43l-261.92-101.47a138,138,0,0,0-163.72,50.6l-71,103.44a68.69,68.69,0,0,1-56.61,29.75H1488.8a68.74,68.74,0,0,1-56.6-29.75l-71-103.44a138,138,0,0,0-163.71-50.6L935.56,2146.62a138.07,138.07,0,0,0-83.87,94.43L591.58,3255.63A246.79,246.79,0,0,0,583.87,3332.05Z" transform="translate(-567.94 -413.36)"/></g><g class="cls-5"><circle class="cls-6" cx="615.84" cy="1889.33" r="68.56"/></g><g class="cls-5"><circle class="cls-6" cx="615.84" cy="2170.06" r="68.56"/></g><g class="cls-5"><circle class="cls-6" cx="1324.14" cy="2443.05" r="68.56" transform="matrix(0.99, -0.16, 0.16, 0.99, -942.17, -169.71)"/></g><g class="cls-5"><circle class="cls-6" cx="475.48" cy="2029.7" r="68.56"/></g><path class="cls-6" d="M568.39,3333a262.47,262.47,0,0,1,8.13-81.23L836.67,2237.2A153.92,153.92,0,0,1,930,2132.13l261.94-101.48A153,153,0,0,1,1374,2087l71,103.43a53.08,53.08,0,0,0,43.78,23h912.41a53.08,53.08,0,0,0,43.78-23L2516,2087a153,153,0,0,1,182.12-56.3L2960,2132.13a153.91,153.91,0,0,1,93.3,105.07l260.15,1014.55a262.17,262.17,0,0,1,8.13,81.23c-8,130.9-66.36,197.22-173.39,197.21-1.86,0-3.75,0-5.63-.06-64.53-1.37-126.85-27.59-175.49-73.84l-303.06-288.15a218.56,218.56,0,0,0-151.21-60.41H1377.17A218.56,218.56,0,0,0,1226,3168.14L922.91,3456.29c-48.65,46.25-111,72.47-175.5,73.84-1.89,0-3.76.06-5.62.06C634.76,3530.19,576.43,3463.87,568.39,3333Zm2117.05-187.34L2988.5,3433.8c43,40.9,98,64.09,154.76,65.29,93.28,2.13,140.21-51.4,147.37-168a231.39,231.39,0,0,0-7.21-71.62L3023.27,2244.91a122.8,122.8,0,0,0-74.44-83.84L2686.9,2059.6a122.1,122.1,0,0,0-145.31,44.92l-71,103.43a84.12,84.12,0,0,1-69.38,36.53H1488.8a84.12,84.12,0,0,1-69.38-36.53l-71-103.43a122.09,122.09,0,0,0-145.3-44.92L941.18,2161.07a122.8,122.8,0,0,0-74.44,83.84L606.59,3259.46a231.39,231.39,0,0,0-7.21,71.62c7,114.53,52.32,168.06,142.41,168.06,1.64,0,3.3,0,5,0,56.78-1.2,111.74-24.39,154.76-65.29l303.06-288.16a249.48,249.48,0,0,1,172.6-68.95H2512.84A249.46,249.46,0,0,1,2685.44,3145.64Z" transform="translate(-567.94 -413.36)"/><path class="cls-6" d="M2962.29,2165.46a15.54,15.54,0,0,0,14.65-10.39l.52-1.49a87.85,87.85,0,0,0-51.83-111.65l-158.92-60.68a88.3,88.3,0,0,0-114.09,51.28,15.53,15.53,0,1,0,29.05,11,57.25,57.25,0,0,1,74-33.25l158.91,60.69a57,57,0,0,1,33.61,72.37l-.52,1.48a15.56,15.56,0,0,0,14.65,20.67Z" transform="translate(-567.94 -413.36)"/><rect class="cls-6" x="2080.66" y="2355.73" width="161.7" height="75.89" rx="22.42" transform="translate(3755.08 4373.99) rotate(-180)"/><path class="cls-6" d="M927.72,2165.46a15.56,15.56,0,0,0,14.65-20.67l-.53-1.49a57,57,0,0,1,33.63-72.36l158.9-60.69a57.25,57.25,0,0,1,74,33.25,15.53,15.53,0,1,0,29.05-11,88.29,88.29,0,0,0-114.09-51.28l-158.91,60.68a87.84,87.84,0,0,0-51.84,111.64l.53,1.5A15.52,15.52,0,0,0,927.72,2165.46Z" transform="translate(-567.94 -413.36)"/><rect class="cls-6" x="1079.72" y="1942.37" width="195.85" height="75.89" rx="24.68"/><circle class="cls-7" cx="2429.83" cy="2746.82" r="216.36" transform="translate(-1798.55 2109.32) rotate(-45)"/><g class="cls-2"><path class="cls-3" d="M2196.65,2775.24c0,119.48,96.86,216.34,216.34,216.34a216.47,216.47,0,0,0,194.4-121.13,216.18,216.18,0,0,1-177.58,92.73c-119.48,0-216.34-96.87-216.34-216.34a215.8,215.8,0,0,1,22.09-95.37A215.12,215.12,0,0,0,2196.65,2775.24Z" transform="translate(-567.94 -413.36)"/></g><g class="cls-5"><path class="cls-6" d="M2217,2707.41a216.35,216.35,0,0,1,192.07-116.68c119.53,0,216.39,96.86,216.39,216.34a220,220,0,0,1-3.57,39.43,215.3,215.3,0,0,0,24.27-99.66c0-119.53-96.87-216.39-216.39-216.39C2323.78,2530.45,2235.61,2606.72,2217,2707.41Z" transform="translate(-567.94 -413.36)"/></g><path class="cls-6" d="M2197.94,2746.82c0-127.86,104-231.89,231.89-231.89s231.89,104,231.89,231.89-104,231.88-231.89,231.88S2197.94,2874.68,2197.94,2746.82Zm31,0c0,110.74,90.1,200.84,200.84,200.84s200.84-90.1,200.84-200.84S2540.58,2546,2429.83,2546,2229,2636.07,2229,2746.82Z" transform="translate(-567.94 -413.36)"/><path class="cls-7" d="M2567.81,2374.6a176,176,0,1,0,352.06,0c0-2.9-.06-5.8-.21-8.7-4.55-93.19-81.5-167.39-175.82-167.39a175.95,175.95,0,0,0-176,176.09Z" transform="translate(-567.94 -413.36)"/><g class="cls-5"><path class="cls-6" d="M2550.58,2427.32A176,176,0,0,0,2900.46,2455a176,176,0,0,1-332.65-80.41A173.91,173.91,0,0,1,2570,2347a172.91,172.91,0,0,0-12.58,31.66A176.33,176.33,0,0,0,2550.58,2427.32Z" transform="translate(-567.94 -413.36)"/></g><g class="cls-2"><path class="cls-3" d="M2574.64,2325.91a176,176,0,0,1,326.65,110.62,174.44,174.44,0,0,0,18.37-70.63c-4.55-93.19-81.5-167.39-175.82-167.39A176.12,176.12,0,0,0,2574.64,2325.91Z" transform="translate(-567.94 -413.36)"/></g><g class="cls-5"><path class="cls-6" d="M2567.81,2374.6a176,176,0,0,0,176,176c90.75,0,165.42-68.67,175-156.84a176.09,176.09,0,0,1-328.21-88.63,180.31,180.31,0,0,1,1-19.15A175.49,175.49,0,0,0,2567.81,2374.6Z" transform="translate(-567.94 -413.36)"/></g><path class="cls-6" d="M2552.26,2374.58c0-105.64,85.94-191.57,191.58-191.57s191.57,85.93,191.57,191.57-85.94,191.57-191.57,191.57S2552.26,2480.21,2552.26,2374.58Zm31,0c0,88.51,72,160.52,160.53,160.52s160.52-72,160.52-160.52-72-160.53-160.52-160.53S2583.31,2286.06,2583.31,2374.58Z" transform="translate(-567.94 -413.36)"/><circle class="cls-1" cx="2175.9" cy="1961.22" r="106.63"/><g class="cls-5"><path class="cls-6" d="M2637.19,2374.6a106.64,106.64,0,0,0,213,7.14,106.64,106.64,0,0,1-197.5-55.78c0-2.43.1-4.81.31-7.19A105.63,105.63,0,0,0,2637.19,2374.6Z" transform="translate(-567.94 -413.36)"/></g><g class="cls-2"><path class="cls-3" d="M2637.5,2367.2a106.64,106.64,0,0,1,204.34,42.74c0,2.48-.11,5-.31,7.4a106.62,106.62,0,1,0-204-50.14Z" transform="translate(-567.94 -413.36)"/></g><path class="cls-6" d="M2624.27,2374.58a119.57,119.57,0,1,1,119.57,119.57A119.71,119.71,0,0,1,2624.27,2374.58Zm25.87,0a93.7,93.7,0,1,0,93.7-93.7A93.8,93.8,0,0,0,2650.14,2374.58Z" transform="translate(-567.94 -413.36)"/><path class="cls-7" d="M1404.43,2781.71a176,176,0,0,0,352.06,0c0-2.9,0-5.79-.21-8.69-4.55-93.19-81.49-167.39-175.82-167.39a175.94,175.94,0,0,0-176,176.08Z" transform="translate(-567.94 -413.36)"/><g class="cls-5"><path class="cls-6" d="M1387.2,2834.44a176,176,0,0,0,349.88,27.68,176,176,0,0,1-332.65-80.41,174,174,0,0,1,2.17-27.63,173.26,173.26,0,0,0-12.57,31.67A176,176,0,0,0,1387.2,2834.44Z" transform="translate(-567.94 -413.36)"/></g><g class="cls-2"><path class="cls-3" d="M1411.26,2733a176,176,0,0,1,326.65,110.63,174.48,174.48,0,0,0,18.37-70.63c-4.55-93.19-81.49-167.39-175.82-167.39A176.11,176.11,0,0,0,1411.26,2733Z" transform="translate(-567.94 -413.36)"/></g><g class="cls-5"><path class="cls-6" d="M1404.43,2781.71a176,176,0,0,0,351,19.2,176.08,176.08,0,0,1-328.2-88.64,180.13,180.13,0,0,1,1-19.14A175.42,175.42,0,0,0,1404.43,2781.71Z" transform="translate(-567.94 -413.36)"/></g><path class="cls-6" d="M1388.89,2781.69c0-105.63,85.94-191.57,191.57-191.57S1772,2676.06,1772,2781.69s-85.94,191.58-191.57,191.58S1388.89,2887.33,1388.89,2781.69Zm31,0c0,88.52,72,160.53,160.53,160.53s160.52-72,160.52-160.53-72-160.52-160.52-160.52S1419.93,2693.18,1419.93,2781.69Z" transform="translate(-567.94 -413.36)"/><circle class="cls-1" cx="1012.52" cy="2368.34" r="106.63"/><g class="cls-5"><path class="cls-6" d="M1473.81,2781.71a106.64,106.64,0,0,0,213,7.14,106.64,106.64,0,0,1-197.5-55.78c0-2.43.1-4.81.31-7.19A105.66,105.66,0,0,0,1473.81,2781.71Z" transform="translate(-567.94 -413.36)"/></g><g class="cls-2"><path class="cls-3" d="M1474.13,2774.31a106.63,106.63,0,0,1,204.33,42.74c0,2.49-.1,5-.31,7.4a106.61,106.61,0,1,0-204-50.14Z" transform="translate(-567.94 -413.36)"/></g><path class="cls-6" d="M1460.88,2781.69a119.58,119.58,0,1,1,119.58,119.57A119.71,119.71,0,0,1,1460.88,2781.69Zm25.88,0a93.7,93.7,0,1,0,93.7-93.69A93.8,93.8,0,0,0,1486.76,2781.69Z" transform="translate(-567.94 -413.36)"/><polygon class="cls-1" points="1807.23 2199.36 1807.23 2289.5 1861.09 2342.12 1913.72 2288.2 1913.72 2199.36 1807.23 2199.36"/><g class="cls-2"><rect class="cls-3" x="1807.23" y="2199.36" width="106.49" height="24.99"/></g><polygon class="cls-1" points="1808.52 2395.99 1808.52 2485.24 1915.01 2485.24 1915.01 2394.69 1861.09 2342.12 1808.52 2395.99"/><g class="cls-2"><polygon class="cls-3" points="1807.85 2392.75 1807.85 2482.01 1809.76 2482.01 1809.76 2431.56 1862.34 2377.7 1914.34 2428.4 1914.34 2391.46 1860.42 2338.89 1807.85 2392.75"/></g><polygon class="cls-1" points="1861.09 2342.12 1915.01 2394.69 2004.27 2394.69 2004.27 2288.2 1913.72 2288.2 1861.09 2342.12"/><g class="cls-2"><polygon class="cls-3" points="1861.09 2342.12 1878.01 2358.63 1922.77 2312.78 2004.27 2312.78 2004.27 2288.2 1913.72 2288.2 1861.09 2342.12"/></g><polygon class="cls-1" points="1861.09 2342.12 1807.18 2289.55 1717.92 2289.55 1717.92 2396.03 1808.47 2396.03 1861.09 2342.12"/><g class="cls-2"><polygon class="cls-3" points="1717.92 2289.55 1717.92 2315.01 1799.83 2315.01 1844.79 2358.83 1861.09 2342.12 1807.18 2289.55 1717.92 2289.55"/></g><path class="cls-6" d="M2420,2764.73l-53.86-52.62a13,13,0,0,1-3.9-9.26v-90.13a12.94,12.94,0,0,1,12.94-12.94h106.48a12.94,12.94,0,0,1,12.94,12.94v88.84a12.94,12.94,0,0,1-3.68,9l-52.62,53.91a12.94,12.94,0,0,1-9.11,3.9H2429A12.94,12.94,0,0,1,2420,2764.73Zm48.73-139.07H2388.1v71.75l40.71,39.77,39.91-40.88Z" transform="translate(-567.94 -413.36)"/><path class="cls-6" d="M2363.52,2898.6v-89.26a12.92,12.92,0,0,1,3.68-9l52.57-53.87a12.93,12.93,0,0,1,18.29-.22l53.92,52.57a12.94,12.94,0,0,1,3.9,9.26v90.55a12.94,12.94,0,0,1-12.93,12.94H2376.46A12.94,12.94,0,0,1,2363.52,2898.6ZM2470,2813.5l-40.76-39.73-39.86,40.84v71.06H2470Z" transform="translate(-567.94 -413.36)"/><path class="cls-6" d="M2473.92,2817.31,2420,2764.74a12.93,12.93,0,0,1-.23-18.3l52.62-53.91a12.94,12.94,0,0,1,9.26-3.9h90.56a12.93,12.93,0,0,1,12.93,12.93v106.49a12.93,12.93,0,0,1-12.93,12.93H2483A12.91,12.91,0,0,1,2473.92,2817.31Zm85.35-102.81H2487.1l-39.77,40.75,40.88,39.86h71.06Z" transform="translate(-567.94 -413.36)"/><path class="cls-6" d="M2272.92,2809.39V2702.9a12.93,12.93,0,0,1,12.94-12.93h89.25a12.91,12.91,0,0,1,9,3.67l53.92,52.57a13,13,0,0,1,.23,18.3l-52.62,53.91a12.94,12.94,0,0,1-9.26,3.9h-90.55A12.93,12.93,0,0,1,2272.92,2809.39Zm137.81-53.69-40.88-39.86h-71.06v80.61H2371Z" transform="translate(-567.94 -413.36)"/><circle class="cls-8" cx="615.84" cy="1839.75" r="68.56"/><path class="cls-6" d="M1102.28,2253.11a81.5,81.5,0,1,1,81.5,81.49A81.59,81.59,0,0,1,1102.28,2253.11Zm25.87,0a55.63,55.63,0,1,0,55.63-55.63A55.7,55.7,0,0,0,1128.15,2253.11Z" transform="translate(-567.94 -413.36)"/><circle class="cls-9" cx="615.84" cy="2120.47" r="68.56"/><path class="cls-6" d="M1102.28,2533.83a81.5,81.5,0,1,1,81.5,81.5A81.59,81.59,0,0,1,1102.28,2533.83Zm25.87,0a55.63,55.63,0,1,0,55.63-55.62A55.7,55.7,0,0,0,1128.15,2533.83Z" transform="translate(-567.94 -413.36)"/><circle class="cls-10" cx="1324.14" cy="2393.47" r="68.56" transform="translate(-934.23 -170.35) rotate(-9.22)"/><path class="cls-6" d="M1242.64,2393.47a81.5,81.5,0,1,1,81.5,81.49A81.59,81.59,0,0,1,1242.64,2393.47Zm25.87,0a55.63,55.63,0,1,0,55.63-55.63A55.69,55.69,0,0,0,1268.51,2393.47Z" transform="translate(-567.94 -413.36)"/><circle class="cls-11" cx="475.48" cy="1980.11" r="68.56"/><path class="cls-6" d="M961.92,2393.47a81.5,81.5,0,1,1,81.49,81.49A81.59,81.59,0,0,1,961.92,2393.47Zm25.87,0a55.63,55.63,0,1,0,55.62-55.63A55.68,55.68,0,0,0,987.79,2393.47Z" transform="translate(-567.94 -413.36)"/><g class="cls-2"><ellipse class="cls-3" cx="756.62" cy="1964.79" rx="30.83" ry="22.85"/></g><g class="cls-2"><ellipse class="cls-3" cx="615.84" cy="1820.77" rx="30.83" ry="22.85"/></g><g class="cls-2"><ellipse class="cls-3" cx="475.48" cy="1960.48" rx="30.83" ry="22.85"/></g><g class="cls-2"><ellipse class="cls-3" cx="615.84" cy="2097.62" rx="30.83" ry="22.85"/></g><g class="cls-4"><path class="cls-3" d="M953.34,2624.37l81.84,50.73a60.09,60.09,0,0,1,22,78.2L873.2,3117a60.1,60.1,0,0,1-49.44,32.82L797,3151.64c-42.14,2.94-74.08-37.36-61.59-77.71l128.87-416.26A60.09,60.09,0,0,1,953.34,2624.37Z" transform="translate(-567.94 -413.36)"/></g><g class="cls-4"><path class="cls-3" d="M2927.31,2624.37l-81.84,50.73a60.09,60.09,0,0,0-22,78.2L3007.46,3117a60.07,60.07,0,0,0,49.43,32.82l26.76,1.87c42.14,2.94,74.08-37.36,61.59-77.71l-128.87-416.26A60.09,60.09,0,0,0,2927.31,2624.37Z" transform="translate(-567.94 -413.36)"/></g><path class="cls-3" d="M1000.3,1127.57c9.46,44.7,38.69,82.65,78.07,105.71l507.11,297.35,138-39.71,68-19.55,70.42-20.28L1605.42,1242.8,1493,1187.05l-262-129.83c-40.56-77.27-77.73-76.25-112.56-19.83-16.21-6.46-30.82-10.14-43.74-11.44C1012.09,1019.49,987.78,1068.32,1000.3,1127.57Z" transform="translate(-567.94 -413.36)"/><path class="cls-3" d="M2538.63,1414.66c170.64-125,93.09-255.34,93.09-255.34L2451.07,1370.7" transform="translate(-567.94 -413.36)"/><path class="cls-3" d="M1428.45,1959.57a71.52,71.52,0,0,0,24.81,57.67l14,12.06,3,2.61,864.22-54.55,53.88-320.63-883.55-170.06a2160.25,2160.25,0,0,0-68.32,363.62Q1430.94,1905.7,1428.45,1959.57Z" transform="translate(-567.94 -413.36)"/><circle class="cls-3" cx="1533.28" cy="574.41" r="557.42"/><g class="cls-5"><path class="cls-6" d="M1543.79,987.77c0,307.88,249.59,557.42,557.42,557.42a554.78,554.78,0,0,0,230-49.52c-7,.35-14.1.46-21.24.46-307.89,0-557.42-249.59-557.42-557.42,0-225.86,134.31-420.33,327.48-507.91C1782,441.9,1543.79,687,1543.79,987.77Z" transform="translate(-567.94 -413.36)"/></g><g class="cls-5"><path class="cls-6" d="M2234.39,1530.74c-2.27,0-4.59,0-6.86-.06.06,0,.17.06.23.06l9.29,7.48c6.29-2.49,12.46-5.16,18.58-7.93C2248.61,1530.63,2241.53,1530.74,2234.39,1530.74Z" transform="translate(-567.94 -413.36)"/></g><g class="cls-5"><path class="cls-6" d="M1000.3,1127.57c9.46,44.7,38.69,82.65,78.07,105.71l507.11,297.35,40.79-119.47c1.19,1.3,2.49,2.66,3.79,4a562.45,562.45,0,0,0,93.47,75.8,558.67,558.67,0,0,0,465.71,64.46,573.44,573.44,0,0,1-397.73-84l21.7-6.23a560.1,560.1,0,0,1-207.73-222.29l-.06,0L1493,1187.05a555,555,0,0,0,101.29,188.36c-25.83,22.26-72.28,16.32-72.28,16.32s-388-225.46-434.72-266.53c-40.28-35.41-19.2-85.94-12.58-99.25C1012.09,1019.49,987.78,1068.32,1000.3,1127.57Z" transform="translate(-567.94 -413.36)"/></g><path class="cls-3" d="M2132.87,1494.37q33.83,15.47,69.63,27.93c8.32,3,16.76,5.78,25.26,8.44,1.7-.4,3.46-.79,5.16-1.25a556.11,556.11,0,0,0,263.92-149,155,155,0,0,0-45.21-16.37l-298-59c-69.39-65.14-134.59-74.38-120.37,0C1868.1,1301.26,1909.11,1490.58,2132.87,1494.37Z" transform="translate(-567.94 -413.36)"/><path class="cls-6" d="M1526.79,987.77c0-316.73,257.69-574.41,574.42-574.41S2675.63,671,2675.63,987.77,2418,1562.19,2101.21,1562.19,1526.79,1304.51,1526.79,987.77Zm34,0c0,298,242.44,540.43,540.43,540.43s540.43-242.43,540.43-540.43-242.43-540.43-540.43-540.43S1560.78,689.78,1560.78,987.77Z" transform="translate(-567.94 -413.36)"/><path class="cls-6" d="M1590.13,1045.32c51.77,228.86,309.75,443.73,562.57,457.78l60.28,27.53c142.47-36.14,240.69-112.68,305.05-184.05,73.81-81.92,103-157.09,103-157.09,59.48-438.17-600.53-661.31-940.42-370.2l-.45,1.14Z" transform="translate(-567.94 -413.36)"/><path class="cls-12" d="M1590.13,1045.32c51.77,228.86,309.75,443.73,562.57,457.78l60.28,27.53c142.47-36.14,240.69-112.68,305.05-184.05-475.62,36.65-786.85-104.29-837.89-526.15Z" transform="translate(-567.94 -413.36)"/><path class="cls-3" d="M1320.71,2738.31c-.29,14.05,3.06,29,9.8,44.81a45.81,45.81,0,0,0,41.69,28c78.74.28,147.12-12.52,204.27-39.54a321.8,321.8,0,0,0,52.8-31.44,45.32,45.32,0,0,0,17.84-43.11l-38.69-260.42,184.11-203.93,194.36-1.42,243.25,26.91-63.28,176.57c-48.71,77.16-52.28,128.54-15.06,156.69L2334,2679.23c75.17,24.53,107.06-14.79,106.72-63.9-.28-39.6-21.47-85.54-57.78-109.33l97.61-232.71c16.59-39.54,21.35-83.56,10.87-125.19-22.15-88.15-100-139.53-223.48-210l42-281.37c122.7,34.16,328.67-121,228.69-242.06a141.28,141.28,0,0,0-41.81-34.22,149.29,149.29,0,0,0-16.65-7.93,159.57,159.57,0,0,0-28.56-8.44l-298-59c-69.39-65.14-134.59-74.38-120.37,0-22.61-.51-41.36,2.61-56.31,8.33-91.26,35.07-40.68,168.87,137.94,180.2,5.83.45,11.84.68,17.95.79,20.4,9.35,41.36,17.79,62.83,25.49,0,.06.05.06.11.06l2.1.74c1.53.56,3.06,1.13,4.59,1.64,8.27,3,16.59,5.72,25,8.38.06,0,.17.06.23.06l9.29,7.48,7.31,5.89a553.53,553.53,0,0,1-55.12,11.27,573.56,573.56,0,0,1-482-149.89L1641.9,1390q-6,12.32-11.84,25.09a1107.09,1107.09,0,0,0-44.58,115.51c-38.18,116.64-64.75,253.33-81.12,407.47a190.93,190.93,0,0,1-18.52,63.84l-2,4.08L1372,2220.15a233.84,233.84,0,0,0-22.94,149l49.8,279.85C1346.14,2672.21,1321.44,2702.29,1320.71,2738.31Z" transform="translate(-567.94 -413.36)"/><g class="cls-5"><path class="cls-6" d="M1630.06,1415.12a562.45,562.45,0,0,0,93.47,75.8,558.67,558.67,0,0,0,465.71,64.46,573.56,573.56,0,0,1-482-149.89L1641.9,1390Q1635.87,1402.35,1630.06,1415.12Z" transform="translate(-567.94 -413.36)"/></g><path class="cls-6" d="M2621,1203.66a14.17,14.17,0,0,0,14-12.26c12.6-92.83-5-179.65-52.38-258.05-42.7-70.68-109.23-132-192.38-177.26-107.95-58.8-237.41-87.78-364.53-81.52-137.36,6.71-259.91,53-354.39,134a14.16,14.16,0,1,0,18.42,21.52c198.3-169.86,495.69-153.28,686.95-49.1,168.91,92,252.83,240.21,230.24,406.64a14.16,14.16,0,0,0,12.13,15.93A14,14,0,0,0,2621,1203.66Z" transform="translate(-567.94 -413.36)"/><path class="cls-6" d="M2658.63,1001.94a14.73,14.73,0,0,0,3.27-.38,14.17,14.17,0,0,0,10.52-17c-21.13-89.34-67.91-167.26-139-231.61-64.73-58.58-148.37-103.52-241.87-130-109.8-31.08-226.29-35.78-336.84-13.58-117.11,23.51-219.14,76.18-295,152.32a14.16,14.16,0,1,0,20,20c142.88-143.3,380-194.9,604.13-131.49,191,54.05,322.59,178.3,361,340.86A14.18,14.18,0,0,0,2658.63,1001.94Z" transform="translate(-567.94 -413.36)"/><path class="cls-6" d="M2152.7,1517.23a14.16,14.16,0,0,0,.76-28.3c-241.91-13.43-498.72-222.19-549.55-446.76a14.16,14.16,0,0,0-27.63,6.25c25.53,112.77,102.35,228.42,210.75,317.29,110.76,90.79,240.33,144.59,364.87,151.5Z" transform="translate(-567.94 -413.36)"/><g class="cls-13"><path class="cls-3" d="M2268.8,831.83C2334.51,900.91,2386.26,976.44,2425,1058a285.17,285.17,0,0,1,27.39,124.17,1396.4,1396.4,0,0,1-10.12,156.95,6.72,6.72,0,0,0,11.88,5c146.61-181.81,112.67-357-177.23-522.71C2270.25,817.54,2263.47,826.23,2268.8,831.83Z" transform="translate(-567.94 -413.36)"/></g><g class="cls-13"><path class="cls-3" d="M1943.83,859.56q-42.18,32.73-72.66,71.78c-15.41,19.74-43.28,23.3-62.1,6.79-.42-.37-.84-.74-1.25-1.12-37.67-34.43-34-91.36,4.64-124.69,27.13-23.4,64.51-40.31,98.06-42.24C1959.28,767.26,1982.43,829.63,1943.83,859.56Z" transform="translate(-567.94 -413.36)"/></g><g class="cls-13"><path class="cls-3" d="M1811.35,1042.11a668.77,668.77,0,0,0-16.2,76.15c-5.83,39.72-57.7,52.14-79.51,18.43-7.68-11.89-12.56-28.18-14.34-49.34-2.57-30.64,7.44-61.55,29.63-82.84,17-16.25,35.29-21.92,55.42-13.93S1817.07,1021.1,1811.35,1042.11Z" transform="translate(-567.94 -413.36)"/></g><path class="cls-6" d="M1822.93,1897.29a14.16,14.16,0,0,0,13.89-11.47L1861,1761.07a26.29,26.29,0,0,1,25.75-21.24h54.48a45.68,45.68,0,0,0,44.9-38.7l14.76-98.91a14.16,14.16,0,0,0-28-4.18L1958.11,1697a17.18,17.18,0,0,1-16.89,14.56h-54.48a54.64,54.64,0,0,0-53.55,44.17L1809,1880.44a14.15,14.15,0,0,0,11.21,16.59A13.87,13.87,0,0,0,1822.93,1897.29Z" transform="translate(-567.94 -413.36)"/><path class="cls-6" d="M1636.83,1387.53c-7.53,11.69-15,23.51-21.58,35.79-3.28,6.13-6.68,12.23-9.87,18.43l-9.12,18.8c-3.09,6.26-5.84,12.65-8.59,19s-5.56,12.78-8.19,19.23c-4.92,13-10.26,25.91-14.61,39.12s-8.89,26.38-12.55,39.79c-4,13.33-7.33,26.81-10.57,40.31-6.54,27-12.4,54.09-18.07,81.22-11.27,54.26-20.15,108.92-27.44,163.72-1.7,13.72-3.65,27.41-5.14,41.14l-2.33,20.59L1487.6,1935c-.37,3.36-.74,6.28-1.21,9.43a173.49,173.49,0,0,1-9.7,36.17,175.78,175.78,0,0,1-7.71,17.09l-9.51,18.22L1383.17,2162l-19.08,36.53-4.77,9.13-2.38,4.56-2.46,4.94c-3.32,6.58-6.25,13.35-8.92,20.22a248.87,248.87,0,0,0-17,86.27,251.65,251.65,0,0,0,3.09,44c.56,3.74,1.17,7.1,1.77,10.46l1.8,10.14,3.61,20.28,14.43,81.13L1382.08,2652v.06l9.9-18.54c-16.31,7.29-32.44,16-47.29,27.81-14.83,11.59-28.2,27.68-35.45,47.22s-6.65,41.24-1.7,59.74c1.4,4.56,2.5,9.34,4.31,13.64l2.53,6.59c.35,1,1,2.35,1.6,3.66s1.26,2.58,2,3.83a63.27,63.27,0,0,0,24.1,24.16,61.73,61.73,0,0,0,16.15,6.32,66,66,0,0,0,8.61,1.38c1.45.15,2.9.17,4.35.24s2.29,0,3.48,0c8.63-.11,17.26-.06,25.9-.5,17.28-.52,34.58-2,51.83-4.1s34.44-5.26,51.5-9.09a444.91,444.91,0,0,0,50.43-15.12,365.46,365.46,0,0,0,48.19-22c3.84-2.21,7.78-4.26,11.54-6.6l11.29-7.07,11-7.59,2.73-1.91c1-.7,2.25-1.74,3.34-2.61a65.24,65.24,0,0,0,6.28-6,62.08,62.08,0,0,0,15-30.86,62.8,62.8,0,0,0,.6-17.26c-.34-3.22-.64-4.83-1-7l-.93-6.24-7.42-50-29.7-199.94L1621,2448l184.11-203.93-12.49,5.61,194.34-1.42-2-.1,243.27,26.9-14.13-22.62L2150.88,2429l1.64-3.34c-7.82,12.77-15.57,25.62-22.15,39.45s-12.56,28.17-16.5,43.82-5.8,32.88-1.9,50.78c3.54,18,15.52,34.68,29.54,45.3a18,18,0,0,0,2.89,1.76l182.22,87.81.25.12a14.43,14.43,0,0,0,1.85.72c12.18,3.73,24.74,6.89,38.21,8,13.44.92,27.93-.11,42-5.56,14.11-5.26,26.65-16,34.62-28.62,8.17-12.65,12-26.74,13.44-40.3,2.67-27.3-3.31-53.45-14.21-77.08-11.05-23.52-27.79-45-50.52-60.05l6.35,20.78,67.27-160.36,16.82-40.1,8.41-20c2.79-6.66,5.61-13.22,8.49-20.73a221.64,221.64,0,0,0,13.84-92.49c-1.24-15.71-3.93-31.54-9-46.47l-1.71-5.67-2.15-5.52-4.4-11c-1.68-3.57-3.51-7.07-5.27-10.61l-2.68-5.28c-.95-1.73-2-3.37-3-5.06-16.14-27.14-37.69-50-60.84-69.26-23.15-19.44-47.75-36.14-72.62-51.85s-50.15-30.33-75.4-44.77l8.38,17.27,42-281.35-21.36,13.86c19,5.2,38.38,6.23,57.08,4.72a234.52,234.52,0,0,0,54.35-11.34,292.51,292.51,0,0,0,94.95-53.54,240.65,240.65,0,0,0,38.06-40.23c11.11-15,20.47-31.9,26.26-50.58s7.69-39.15,4-59-12.52-38.31-24.17-53.67c-23-31.38-58-52.13-94.85-60.74l-101.75-20.28L2157,1288.38l8.33,4.28a319.22,319.22,0,0,0-36.58-29.76c-13.14-9-27.23-17.21-43.82-22.78-8.35-2.66-17.45-4.76-28.06-4.35a50.65,50.65,0,0,0-16.85,3.87,41.67,41.67,0,0,0-15.13,11.73,47.91,47.91,0,0,0-8,15.7,68.67,68.67,0,0,0-2.37,14.87,113.47,113.47,0,0,0,2.1,26.3l17.08-20.18c-17.6-.22-35.68,1.19-53.7,6.51a115,115,0,0,0-26.42,11.49c-8.29,5.49-16.52,11.77-22.74,20.39l-2.42,3.1c-.72,1.11-1.37,2.27-2.05,3.41-1.3,2.31-2.74,4.56-3.85,7-2,4.93-4.09,9.87-5,15.09-1.45,5.15-1.51,10.4-1.94,15.6.27,5.12.22,10.37,1.34,15.26,1.49,10.09,5.22,19.22,9.31,28a130.83,130.83,0,0,0,15.69,23.49c11.91,14.25,26.12,25.76,41.24,35.16a222.74,222.74,0,0,0,47.78,22.25,288.9,288.9,0,0,0,50.38,12.2c17,2.87,34.06,3.81,51.09,4.41l.27,0-6.8-1.55c22.85,10.46,46.18,19.78,69.81,28.1,23.68,8.12,47.29,16.51,71.45,23s48.87,10.44,73.61,13.44,49.63,4.6,74.64,4a5.74,5.74,0,0,0,1.63-11.21c-23.62-7.68-47.22-14.19-70.64-21s-46.65-13.7-70-19.92-46.75-12.21-69.43-20.39c-22.73-8-45.09-16.93-66.92-26.93a17.11,17.11,0,0,0-6.25-1.52l-.55,0h-.25c-15.58-.58-31.18-1.41-46.42-4a254.28,254.28,0,0,1-44.68-10.79,189.18,189.18,0,0,1-40.81-19c-12.58-7.81-24-17.18-33-28a96.66,96.66,0,0,1-11.51-17.12c-2.74-6-5.33-12.16-6.13-18.31-.81-3.08-.56-6.06-.87-9.08.4-2.89.22-5.92,1.13-8.64.42-2.87,1.68-5.43,2.65-8.09.58-1.3,1.44-2.46,2.11-3.72l1-1.87,1.39-1.69c3.27-4.78,8.35-8.49,13.53-12.06a81.38,81.38,0,0,1,18.39-7.88c13.34-4,28.16-5.28,43.16-5.09h0a17.08,17.08,0,0,0,17.31-16.86,19.16,19.16,0,0,0-.28-3.32,80.6,80.6,0,0,1-1.55-18.08,34.94,34.94,0,0,1,1.05-7.14,14.46,14.46,0,0,1,2-4.12,7.7,7.7,0,0,1,2.33-1.82,18,18,0,0,1,4.82-1c4.29-.18,10,.83,15.76,2.73,11.68,3.89,23.74,10.59,35,18.45a285.31,285.31,0,0,1,32.6,26.55l.07.07a17.1,17.1,0,0,0,8.26,4.21l202.38,40.09,100.59,20c29.92,7,57.7,23.69,75.43,48,9.07,12,15.41,25.34,17.92,39.36a89.89,89.89,0,0,1-3,42.84c-8.88,28.54-29.51,54.33-53.85,75a259,259,0,0,1-83.67,47.21c-30.26,10-63,13.91-91.61,6.12l-.1,0a17,17,0,0,0-20.85,11.94,16.49,16.49,0,0,0-.41,2l-42,281.35a17.05,17.05,0,0,0,8.38,17.27c25.07,14.33,50,28.8,74.12,44s47.57,31.21,68.82,49.07,40,37.84,53.52,60.6c.85,1.42,1.79,2.8,2.58,4.25l2.21,4.42,4.42,8.84,3.64,9.18,1.82,4.59,1.4,4.75c4.29,12.55,6.43,25.53,7.5,38.68a187.67,187.67,0,0,1-11.76,78.19c-2.31,6-5.19,12.79-8,19.49l-8.41,20-16.82,40.09-67.27,160.36a17,17,0,0,0,6.36,20.79c16.41,10.8,29.64,27.38,38.37,46.05s13.17,39.74,11.19,59c-1,9.6-3.68,18.63-8.29,25.62s-10.58,12.33-18.43,15.29-17.15,4-26.95,3.29c-9.87-.82-20.07-3.33-30.23-6.42l2.1.85-182.22-87.8,2.89,1.76c-4.17-3.59-8.32-7.15-10.9-11.56-1.68-2-2.43-4.48-3.72-6.69-.47-1.19-.81-2.47-1.25-3.68a16.86,16.86,0,0,1-1.05-3.81c-2.3-10.44-1.39-22.69,1.74-35.06s8.19-24.91,14.08-37.17,13-24.25,20.31-36.13l.14-.24a18.06,18.06,0,0,0,1.49-3.11l63.26-176.56a17,17,0,0,0-10.27-21.73,18.42,18.42,0,0,0-3.86-.89l-243.27-26.91a19.22,19.22,0,0,0-2-.1l-194.34,1.42a17.07,17.07,0,0,0-12.49,5.6l-184.11,203.94a17.12,17.12,0,0,0-4.2,13.88l29.7,199.94,7.42,50,.93,6.25c.29,2,.69,4.53.76,5.5a28.64,28.64,0,0,1-.27,7.9,28.12,28.12,0,0,1-6.78,14,32.69,32.69,0,0,1-2.81,2.71l-1.64,1.27-2.45,1.71-9.81,6.8-10.13,6.35c-3.38,2.11-6.94,3.94-10.39,5.93a330.33,330.33,0,0,1-43.66,19.93,409.68,409.68,0,0,1-46.32,13.88c-15.81,3.54-31.79,6.5-48,8.47s-32.49,3.37-48.89,3.85c-8.18.43-16.41.37-24.62.49-.91,0-2.29.05-2.83,0s-1.31,0-2-.1a36.25,36.25,0,0,1-3.85-.61,28.08,28.08,0,0,1-7.31-2.87,29.29,29.29,0,0,1-11.11-11.17,14.25,14.25,0,0,1-.92-1.78,17.77,17.77,0,0,1-.92-2.13l-2-5.2c-1.5-3.46-2.19-7-3.31-10.44-3.66-13.93-3.6-27.55.74-39.71,4.57-12.09,13.12-23.2,24.8-32.3,11.52-9.2,25.22-16.74,39.65-23.16l.08,0a17,17,0,0,0,9.82-18.5V2646l-28.87-162.27-14.43-81.13-3.6-20.28-1.81-10.15c-.61-3.4-1.22-6.8-1.66-9.85a216.26,216.26,0,0,1,12-112.62c2.31-5.93,4.84-11.79,7.71-17.47l2.12-4.28,2.39-4.57,4.77-9.13,19.07-36.52,76.31-146.08,9.55-18.31a210.68,210.68,0,0,0,9.23-20.45,208.26,208.26,0,0,0,11.6-43.27c.56-3.64,1-7.53,1.41-11l1.16-10.18,2.31-20.35c1.47-13.58,3.4-27.09,5.07-40.63,7.2-54.11,16-108,27-161.3s26.41-105.54,41.13-157.71c14.52-52.35,31.59-103.67,48.9-155.93l0-.11a5.7,5.7,0,0,0-10.2-4.88Z" transform="translate(-567.94 -413.36)"/><path class="cls-6" d="M1624.61,2431.42l-39.82-87.18a5.7,5.7,0,0,0-10.79,3.45l18.24,94.1a17.11,17.11,0,0,0,33.6-6.52A17.66,17.66,0,0,0,1624.61,2431.42Z" transform="translate(-567.94 -413.36)"/><path class="cls-6" d="M1402.87,2665.54c13.79-5.25,30.31-7.61,47-8.34a384.79,384.79,0,0,1,51.19,1.64h.06a5.7,5.7,0,0,0,2.21-11.11,403.09,403.09,0,0,0-51.91-13.13c-17.91-3.06-36.56-4.86-56.65-2.07l-.36,0a17.12,17.12,0,0,0,4.71,33.92A18.16,18.16,0,0,0,1402.87,2665.54Z" transform="translate(-567.94 -413.36)"/><path class="cls-3" d="M1669.66,1642.18l-115.25-17a26,26,0,0,0-28.91,19l-14.08,52.8a26,26,0,0,0,17.22,31.46l116.25,37.06" transform="translate(-567.94 -413.36)"/><g class="cls-5"><path class="cls-6" d="M1528.66,1728.5l116.25,37,9.68-48.38-106.1-33.82a25.94,25.94,0,0,1-17.22-31.44l6.23-23.45a25.87,25.87,0,0,0-12,15.75l-14,52.79A26,26,0,0,0,1528.66,1728.5Z" transform="translate(-567.94 -413.36)"/></g><g class="cls-5"><path class="cls-6" d="M1528.21,1781.86c.17.06.28.12.45.17l116.25,37,9.68-48.38-106.1-33.82a25.83,25.83,0,0,1-8.84-4.87l-2.77-.9C1534.38,1746.85,1531.16,1766.68,1528.21,1781.86Z" transform="translate(-567.94 -413.36)"/></g><path class="cls-3" d="M2136.79,1714.82l161.24,46.6a16.48,16.48,0,0,1,11.66,18.71L2296.24,1856a16.48,16.48,0,0,1-18.93,13.38L2116,1842.61" transform="translate(-567.94 -413.36)"/><g class="cls-5"><path class="cls-6" d="M2116.05,1842.59l161.28,26.74a16.49,16.49,0,0,0,18.92-13.37l7-39.37a16.59,16.59,0,0,1-11.33,2.21l-161.34-26.74,12.29-75.51-6.06-1.76Z" transform="translate(-567.94 -413.36)"/></g><g class="cls-5"><path class="cls-6" d="M2107.45,1900.65l161.28,26.74a16.47,16.47,0,0,0,18.92-13.37l7-39.37a16.54,16.54,0,0,1-11.33,2.21L2122,1850.12l12.3-75.51-6.06-1.75Z" transform="translate(-567.94 -413.36)"/></g><path class="cls-6" d="M1644.89,1782.53a17,17,0,0,0,5.16-33.18l-116.25-37.06a9,9,0,0,1-6-10.9l14.08-52.8a9.05,9.05,0,0,1,10-6.59l115.25,17a17,17,0,0,0,5-33.63l-115.25-17a43,43,0,0,0-47.81,31.45l-14.08,52.8a42.94,42.94,0,0,0,28.48,52l116.24,37.07A16.93,16.93,0,0,0,1644.89,1782.53Z" transform="translate(-567.94 -413.36)"/><path class="cls-6" d="M2023,1934.4l-320.4-54.49a93.37,93.37,0,0,1-75.88-110.43l30.39-151.33a92.87,92.87,0,0,1,107.41-73.62l314.64,54.28c50.24,8.67,84.45,56.67,76.28,107l-24.63,151.55a93.42,93.42,0,0,1-91.94,78.41A94.82,94.82,0,0,1,2023,1934.4Zm-332.57-309.56-30.39,151.34a59.38,59.38,0,0,0,48.26,70.22l320.4,54.49a59.36,59.36,0,0,0,68.56-49l24.62-151.54h0a59.54,59.54,0,0,0-48.5-68L1758.78,1578a61,61,0,0,0-10.35-.89A59,59,0,0,0,1690.47,1624.84Z" transform="translate(-567.94 -413.36)"/><g class="cls-5"><path class="cls-6" d="M1705.46,1863.15l320.41,54.5a76.4,76.4,0,0,0,88.2-63.05l14.56-89.51a76.4,76.4,0,0,1-85.15,50.87l-320.4-54.49a76.35,76.35,0,0,1-63.39-69.56l-16.26,80.95A76.32,76.32,0,0,0,1705.46,1863.15Z" transform="translate(-567.94 -413.36)"/></g><g class="cls-5"><path class="cls-6" d="M1691.58,1921.78l320.41,54.5a76.4,76.4,0,0,0,88.2-63l5.61-34.44a76.38,76.38,0,0,1-79.93,38.86l-320.41-54.5a76.32,76.32,0,0,1-62-90.29l3.18-15.75a62.35,62.35,0,0,1-.8-6.57l-16.26,81A76.32,76.32,0,0,0,1691.58,1921.78Z" transform="translate(-567.94 -413.36)"/></g><path class="cls-6" d="M2280,1886.56a33.63,33.63,0,0,0,33-27.64l13.45-75.82a33.41,33.41,0,0,0-23.67-38l-161.24-46.6a17,17,0,0,0-9.44,32.66l160.81,46.46-13.29,74.89-160.78-26.66a17,17,0,1,0-5.56,33.53l161.28,26.74A33.64,33.64,0,0,0,2280,1886.56Z" transform="translate(-567.94 -413.36)"/><path class="cls-6" d="M1379.26,2776.44c93.59,0,219.77-49.21,273.14-95.46a14.16,14.16,0,1,0-18.54-21.4c-60.24,52.19-231.22,110.48-306.89,80.37a14.16,14.16,0,0,0-10.47,26.32C1334.24,2773.33,1355.72,2776.44,1379.26,2776.44Z" transform="translate(-567.94 -413.36)"/><path class="cls-6" d="M1374.41,2525.92a14.12,14.12,0,0,0,9.58-3.73c87.58-80.42,224.41-30.12,225.78-29.6a14.16,14.16,0,1,0,10-26.5c-6.27-2.36-154.65-56.85-254.94,35.23a14.17,14.17,0,0,0,9.58,24.6Z" transform="translate(-567.94 -413.36)"/><path class="cls-6" d="M2388.93,2490.1c-3.18-.88-5.4-1.33-8-1.81s-5-.84-7.42-1.24c-4.91-.67-9.8-1.2-14.67-1.53a208.5,208.5,0,0,0-29,0,198.25,198.25,0,0,0-28.44,3.84,205.78,205.78,0,0,0-27.31,7.64,5.68,5.68,0,0,0,2.5,11l.28,0a190.78,190.78,0,0,1,26.29-1.71,179,179,0,0,1,25.93,1.9,181,181,0,0,1,25.1,5.32c4.09,1.15,8.09,2.47,12,3.87,1.93.75,3.89,1.45,5.73,2.26a50.59,50.59,0,0,1,5,2.3,17.19,17.19,0,1,0,17.08-29.83,17,17,0,0,0-3.85-1.62Z" transform="translate(-567.94 -413.36)"/><path class="cls-6" d="M2434,2665.31a14.16,14.16,0,0,0,5.89-27l-303.58-138.76a14.16,14.16,0,1,0-11.77,25.76L2428.15,2664A14.15,14.15,0,0,0,2434,2665.31Z" transform="translate(-567.94 -413.36)"/><path class="cls-6" d="M2443.68,2375.35a14.16,14.16,0,0,0,11.23-22.78c-51.68-67.5-166.37-103.2-236-73.44a14.16,14.16,0,1,0,11.13,26c51.85-22.17,155.43,3.3,202.38,64.62A14.18,14.18,0,0,0,2443.68,2375.35Z" transform="translate(-567.94 -413.36)"/><path class="cls-6" d="M2245.34,2265.76l29.52-84.37a5.71,5.71,0,0,0-10.13-5.07l-49.79,74.24a17.13,17.13,0,0,0,28.46,19.09A17.89,17.89,0,0,0,2245.34,2265.76Z" transform="translate(-567.94 -413.36)"/><path class="cls-6" d="M1983,2240.09l51.45-51a5.74,5.74,0,0,0-6.62-9.2l-64.68,32.58a17.21,17.21,0,0,0,15.48,30.74A17.68,17.68,0,0,0,1983,2240.09Z" transform="translate(-567.94 -413.36)"/><path class="cls-6" d="M1791.57,2215.7c-14.59,2.67-31.54.82-48.23-3.5s-33.49-10.91-49.89-18.39l0,0a5.69,5.69,0,0,0-5.73,9.77c14.87,10.94,30.45,21.29,47.67,29.84s36.31,15.39,58.14,16.24l.5,0a17.12,17.12,0,0,0,1.33-34.22A17.87,17.87,0,0,0,1791.57,2215.7Z" transform="translate(-567.94 -413.36)"/><path class="cls-6" d="M1585.45,1547.6a17,17,0,0,0,8.62-31.66L1087,1218.63c-36.29-21.27-61.82-55.74-70-94.56-6.68-31.54-1.32-58.25,14.34-71.45,16.43-13.84,45.14-13.65,80.87.56a17,17,0,0,0,20.74-6.86c12.91-20.93,25.58-32.41,35.75-32.41h.47c12.93.45,30,19.11,46.86,51.2a17,17,0,0,0,7.5,7.32L1597.87,1258a17,17,0,1,0,15.09-30.45L1243.42,1044.4c-23.19-42.45-47.15-63.54-73.14-64.45-21-.6-40.26,11.36-58.61,36.9-53.43-17.67-85-4.84-102.3,9.79-25.79,21.73-35.15,59.8-25.7,104.47,10.2,48.16,41.58,90.75,86.1,116.85l507.1,297.3A17,17,0,0,0,1585.45,1547.6Z" transform="translate(-567.94 -413.36)"/><path class="cls-6" d="M1312.74,1384.86a14.11,14.11,0,0,0,6.33-1.5c133.13-66.63,126.1-218.41,125.73-224.84a14.16,14.16,0,0,0-28.27,1.59c.3,5.81,6.06,139.77-110.14,197.92a14.16,14.16,0,0,0,6.35,26.83Z" transform="translate(-567.94 -413.36)"/><path class="cls-6" d="M2310,1567.21a14.1,14.1,0,0,0,6.53-1.61c65.06-33.88,99.17-137,73-220.73a14.16,14.16,0,0,0-27,8.45c24.06,77-11.34,162.31-59.06,187.16a14.17,14.17,0,0,0,6.55,26.73Z" transform="translate(-567.94 -413.36)"/><path class="cls-6" d="M2326.8,1658.94l-3.24-62.83a5.75,5.75,0,0,0-11.23-1.46l-19.24,59.9a17.28,17.28,0,1,0,32.9,10.56A17.56,17.56,0,0,0,2326.8,1658.94Z" transform="translate(-567.94 -413.36)"/><path class="cls-6" d="M2334.55,1994.34a17,17,0,0,0,16.74-14.18l53.89-320.6a17,17,0,0,0-33.52-5.63l-53.89,320.6a17,17,0,0,0,13.94,19.58A18.23,18.23,0,0,0,2334.55,1994.34Z" transform="translate(-567.94 -413.36)"/><path class="cls-6" d="M1470.29,2048.88a17,17,0,0,0,11.09-29.88l-17-14.65a54.23,54.23,0,0,1-19-44c6.74-140.75,34.17-298.6,81.52-469.16a17,17,0,1,0-32.75-9.09c-48.7,175.43-75.76,331.33-82.71,476.62a88,88,0,0,0,30.72,71.37l17,14.66A16.93,16.93,0,0,0,1470.29,2048.88Z" transform="translate(-567.94 -413.36)"/><path class="cls-6" d="M2538.64,1431.66a16.93,16.93,0,0,0,10-3.29c181-132.61,98.51-276.3,97.65-277.74a17,17,0,0,0-29.24,17.33c2.93,5,66.68,119.3-88.5,233a17,17,0,0,0,10.06,30.71Z" transform="translate(-567.94 -413.36)"/><path class="cls-3" d="M1440.84,852.34c-29.6,96.46-11.94,188.83,60,210.91s137-44.59,166.58-141S1680,736,1608.05,714,1470.44,755.88,1440.84,852.34Z" transform="translate(-567.94 -413.36)"/><g class="cls-5"><path class="cls-6" d="M1500.85,1063.22c71.15,21.87,135.56-43.11,165.58-137.82-30.13,29.91-66.62,43.39-105,31.61-72-22-89.62-114.43-60.05-210.91.11-.39.23-.73.34-1.13-26,25.44-47.25,62.94-60.84,107.35C1411.23,948.79,1428.91,1041.19,1500.85,1063.22Z" transform="translate(-567.94 -413.36)"/></g><path class="cls-6" d="M1495.86,1079.5c-39.62-12.17-67.88-44-79.56-89.6-10.4-40.61-7.46-91.24,8.29-142.55h0c15.71-51.18,41.57-94.33,72.83-121.5,34.9-30.32,76-40.32,115.61-28.16s67.77,43.51,79.25,88.26c10.2,39.77,7.15,89.92-8.6,141.23s-41.46,95-72.31,122.64c-25.44,22.81-54.13,34.59-83.16,34.59A110.08,110.08,0,0,1,1495.86,1079.5Zm23.86-328c-26.53,23.05-48.77,60.63-62.63,105.8h0c-13.94,45.42-16.74,89.5-7.86,124.14,6.1,23.84,20.88,54.57,56.6,65.53s64.69-6.19,82.84-22.47c26.32-23.61,48.52-61.72,62.52-107.31,13.93-45.41,16.83-89,8.17-122.81s-27.61-55.41-56.29-64.21a79,79,0,0,0-23.32-3.58C1554.47,726.62,1533.79,739.28,1519.72,751.52Z" transform="translate(-567.94 -413.36)"/><path class="cls-6" d="M1471.51,1033.73c-28.81-8.84-48.06-35.11-54.21-74-5.32-33.61-.84-76.28,12.63-120.14,27.13-88.44,99.84-146.33,142.07-135.31,18,4.71,32.68,16.43,42.4,33.88,19.66,35.27,19.46,92.92-.57,158.16-13.48,43.95-33.51,81.77-56.39,106.48-20.61,22.27-43.56,33.87-66.23,33.87A66.73,66.73,0,0,1,1471.51,1033.73ZM1457,847.94c-12.22,39.82-16.39,78-11.73,107.4,3.09,19.52,11.59,44.27,34.55,51.32s43.52-8.67,56.84-23.06c20-21.65,37.83-55.59,50.1-95.56,17.24-56.19,18.36-108.32,2.9-136-6-10.85-14.17-17.48-24.84-20.27a17.36,17.36,0,0,0-4.46-.54C1534.82,731.18,1479.3,775.28,1457,847.94Z" transform="translate(-567.94 -413.36)"/><g class="cls-5"><path class="cls-6" d="M1428.45,1959.57a71.52,71.52,0,0,0,24.81,57.67l14,12.06c17.39-23.22,22.89-55.8,22.89-55.8l24.75-96.3c-26.17,5.21-52.23-3.79-78.4-26.91Q1430.94,1905.7,1428.45,1959.57Z" transform="translate(-567.94 -413.36)"/></g><g class="cls-5"><polyline class="cls-6" points="1726.68 1456.21 1782.43 1469.77 1766.59 1545.51 1702.96 1526.44"/></g><g class="cls-5"><path class="cls-6" d="M2114.92,1493.58c7.36-1.47,12.23-2.61,13.71-3,11.78-3.18,153,55.57,232.82,73.13s105.65-68.43,105.65-68.43l-327.37-70.81c-152.78-8.5-119.19-113.3-119.19-113.3l-43.56,2.21C1885.72,1348.45,1936.3,1482.25,2114.92,1493.58Z" transform="translate(-567.94 -413.36)"/></g><g class="cls-5"><path class="cls-6" d="M1728.8,2218.51a396.58,396.58,0,0,1,50.7,28.61l13-14.45,194.36-1.42,243.25,26.91-63.28,176.57c-48.71,77.16-52.28,128.54-15.06,156.69L2334,2679.23c75.17,24.53,107.06-14.79,106.72-63.9a41.2,41.2,0,0,0-6.68-1.7c-83.67,68.49-225.12-76.47-189.72-158.61,0,0,48.15-107.64,84.92-196.86s-11.28-100-11.28-100l-271.91-35s-140.2,28.78-228.46,34.44-147.91-34.44-147.91-34.44S1652.33,2183.1,1728.8,2218.51Z" transform="translate(-567.94 -413.36)"/></g><g class="cls-5"><path class="cls-6" d="M1320.71,2738.31c-.29,14.05,3.06,29,9.8,44.81a45.81,45.81,0,0,0,41.69,28c78.74.28,147.12-12.52,204.27-39.54-4.36.28-8.66.68-12.91,1.13-156.69,17-81.12-127.4-81.12-127.4s-14.22-214.36-31.89-323.29,44.07-327.26,44.07-327.26l-8.78,7.19-2,4.08L1372,2220.15a233.84,233.84,0,0,0-22.94,149l49.8,279.85C1346.14,2672.21,1321.44,2702.29,1320.71,2738.31Z" transform="translate(-567.94 -413.36)"/></g><path class="cls-14" d="M1777,1630a41.33,41.33,0,1,0,36,46A41.34,41.34,0,0,0,1777,1630Z" transform="translate(-567.94 -413.36)"/><g class="cls-5"><path class="cls-15" d="M1769.92,1687.59a41.32,41.32,0,0,0,43.37-25.72,41.33,41.33,0,1,1-79.27-9.69A41.32,41.32,0,0,0,1769.92,1687.59Z" transform="translate(-567.94 -413.36)"/></g><g class="cls-16"><path class="cls-17" d="M1774.84,1647.38a41.34,41.34,0,0,0-44,27.41,41.33,41.33,0,1,1,80.16,9.8A41.36,41.36,0,0,0,1774.84,1647.38Z" transform="translate(-567.94 -413.36)"/></g><path class="cls-6" d="M1765.67,1722.46a51.87,51.87,0,1,1,12.58-103h0a51.87,51.87,0,0,1-6.19,103.36A52.94,52.94,0,0,1,1765.67,1722.46Zm10-82a30.8,30.8,0,1,0,26.83,34.3,30.84,30.84,0,0,0-26.83-34.3Z" transform="translate(-567.94 -413.36)"/></svg>